<?xml version='1.0' encoding='utf-8'?>
<svg xmlns="http://www.w3.org/2000/svg" width="1920" height="1080" viewBox="0 0 1920 1080" data-theme="light">
  <style>
        @font-face {
            font-family: 'Inter';
            src: url('assets/fonts/Inter-Regular.ttf') format('truetype');
            font-weight: 400;
            font-style: normal;
            font-display: swap;
        }
        @font-face {
            font-family: 'Inter';
            src: url('assets/fonts/Inter-Bold.ttf') format('truetype');
            font-weight: 600;
            font-style: normal;
            font-display: swap;
        }
        @font-face {
            font-family: 'Inter';
            src: url('assets/fonts/Inter-Bold.ttf') format('truetype');
            font-weight: 800;
            font-style: normal;
            font-display: swap;
        }
        
:root {
    --background: #f8fafc;
    --panel: #ffffff;
    --primary-text: #0f172a;
    --muted-text: #64748b;
    --inverse-text: #ffffff;
    --border: #e2e8f0;
    --shadow-color: #000000;
    --icon-pad-bg: #1e293b;
    --art-glow: #0891b2;
    --art-glow-opacity: 0.10;
    --art-sheen: #ffffff;
    --art-sheen-opacity: 0.34;
    --art-shadow: #0f172a;
    --art-shadow-opacity: 0.14;
    --art-muted-line: #94a3b8;
    --art-panel-tint: #f1f5f9;
    --font-family: 'Inter', 'Segoe UI', 'Kalam', Roboto, Helvetica, Arial, sans-serif;
    --radius-xl: 16px;
    --font-family-headline: 'Inter', 'Segoe UI', 'Kalam', Roboto, Helvetica, Arial, sans-serif;
    --font-family-body: 'Inter', 'Segoe UI', 'Kalam', Roboto, Helvetica, Arial, sans-serif;
    --font-heading: 'Inter', 'Segoe UI', 'Kalam', Roboto, Helvetica, Arial, sans-serif;
    --font-body: 'Inter', 'Segoe UI', 'Kalam', Roboto, Helvetica, Arial, sans-serif;
    --font-size-h1: 56px;
    --font-size-h2: 40px;
    --font-size-h3: 28px;
    --font-size-body: 24px;
    --font-size-caption: 18px;
    --secondary-text: var(--muted-text);
    --panel-border: var(--border);
    --font-weight-normal: 400;
    --font-weight-medium: 500;
    --font-weight-semibold: 600;
    --font-weight-bold: 700;
    --spacing-gutter-pct: 0.07;
    --spacing-top-pct: 0.15;
    --spacing-bottom-pct: 0.07;
    --spacing-title-y-pct: 0.055;
    --accent-1: #2563eb;
    --accent-2: #16a34a;
    --accent-3: #ea580c;
    --accent-4: #7c3aed;
    --accent-5: #0284c7;
    --accent-6: #475569;
}
:root[data-theme="dark"] {
    --background: #0f172a;
    --panel: #1e293b;
    --primary-text: #f1f5f9;
    --muted-text: #94a3b8;
    --inverse-text: #0f172a;
    --border: #334155;
    --shadow-color: #000000;
    --icon-pad-bg: #1e293b;
    --art-glow: #7dd3fc;
    --art-glow-opacity: 0.18;
    --art-sheen: #ffffff;
    --art-sheen-opacity: 0.18;
    --art-shadow: #000000;
    --art-shadow-opacity: 0.28;
    --art-muted-line: #64748b;
    --art-panel-tint: #1e293b;
    --accent-1: #60a5fa;
    --accent-2: #4ade80;
    --accent-3: #f97316;
    --accent-4: #a78bfa;
    --accent-5: #38bdf8;
    --accent-6: #94a3b8;
}
:root[data-theme="light"] {
    --background: #f8fafc;
    --panel: #ffffff;
    --primary-text: #0f172a;
    --muted-text: #64748b;
    --inverse-text: #ffffff;
    --border: #e2e8f0;
    --shadow-color: #000000;
    --icon-pad-bg: #1e293b;
    --art-glow: #0891b2;
    --art-glow-opacity: 0.10;
    --art-sheen: #ffffff;
    --art-sheen-opacity: 0.34;
    --art-shadow: #0f172a;
    --art-shadow-opacity: 0.14;
    --art-muted-line: #94a3b8;
    --art-panel-tint: #f1f5f9;
    --accent-1: #2563eb;
    --accent-2: #16a34a;
    --accent-3: #ea580c;
    --accent-4: #7c3aed;
    --accent-5: #0284c7;
    --accent-6: #475569;
}</style>
  <rect x="0" y="0" width="1.92E+3" height="1.08E+3" fill="#252a34" stroke="none" id="programmatic_background"/>
  <line id="HEADER_DECOR" x1="960.0" x2="1080.0" y1="90.0" y2="90.0" stroke="var(--accent-1)" stroke-width="6" stroke-linecap="round"/>
  <defs>
    <pattern id="svgc77bc18a-napkin-hatch" patternUnits="userSpaceOnUse" width="12" height="12">
      <path d="M -3 12 L 12 -3 M 0 15 L 15 0" fill="none" stroke="var(--primary-text)" stroke-width="1" stroke-opacity="0.05"/>
    </pattern>
    <radialGradient id="svgc77bc18a-universal-edge-vignette" cx="50%" cy="50%" r="72%">
      <stop offset="0%" stop-color="var(--background)" stop-opacity="0"/>
      <stop offset="72%" stop-color="var(--background)" stop-opacity="0.12"/>
      <stop offset="100%" stop-color="var(--primary-text)" stop-opacity="0.08"/>
    </radialGradient>
    <linearGradient id="svgc77bc18a-universal-surface-sheen" x1="0%" y1="0%" x2="100%" y2="100%">
      <stop offset="0%" stop-color="var(--art-sheen)" stop-opacity="var(--art-sheen-opacity)"/>
      <stop offset="46%" stop-color="var(--art-sheen)" stop-opacity="0.035"/>
      <stop offset="100%" stop-color="var(--art-panel-tint)" stop-opacity="0.14"/>
    </linearGradient>
    <radialGradient id="svgc77bc18a-universal-icon-aura" cx="50%" cy="42%" r="64%">
      <stop offset="0%" stop-color="var(--art-glow)" stop-opacity="var(--art-glow-opacity)"/>
      <stop offset="100%" stop-color="var(--background)" stop-opacity="0"/>
    </radialGradient>
    <filter id="svgc77bc18a-text-glow" x="-20%" y="-20%" width="140%" height="140%">
      <feDropShadow dx="0" dy="0" stdDeviation="2" flood-color="#000000" flood-opacity="0.4"/>
    </filter>
    <filter id="svgc77bc18a-shadow" x="-30%" y="-30%" width="160%" height="160%">
      <feDropShadow dx="0" dy="2" stdDeviation="3" flood-color="#000000" flood-opacity="0.08"/>
      <feDropShadow dx="0" dy="6" stdDeviation="10" flood-color="#000000" flood-opacity="0.12"/>
    </filter>
    <marker id="svgc77bc18a-arrowhead" markerWidth="10" markerHeight="7" refX="9" refY="3.5" orient="auto" markerUnits="strokeWidth">
      <polygon points="0 0, 10 3.5, 0 7" fill="var(--muted-text)" opacity="0.6"/>
    </marker>
  </defs>
  <rect width="100%" height="100%" fill="var(--background)" id="CANVAS_BG"/>
  <rect width="100%" height="100%" fill="url(#svgc77bc18a-napkin-hatch)"/>
  <rect id="UNIVERSAL_EDGE_VIGNETTE" width="100%" height="100%" fill="url(#svgc77bc18a-universal-edge-vignette)" opacity="0.62"/>
  <text id="TITLE" x="960.0" y="59" text-anchor="middle" font-weight="800" font-size="63" fill="#0f172a" style="font-size: 60px; font-family: Inter, Segoe UI, Kalam, Roboto, Helvetica, Arial, sans-serif; font-weight: 700; letter-spacing:-1.2px;" data-final-font-size="60">
    <tspan x="960.0" dy="68.00px">Why Fireballs Look Alien</tspan>
  </text>
  <rect id="TITLE_FRAME" x="134" y="59" width="1652" height="103" fill="none"/>
  <g id="DIAGRAM_SCALER" transform="translate(50.3, 35.5) scale(0.95)">
    <g transform="translate(960.0, 165.0)">
      <g transform="translate(0.0, 0.0)">
        <rect id="ITEM_1_BG" x="-600" y="-30" width="1200" height="120" rx="12" fill="var(--accent-4)" stroke="var(--accent-1)" stroke-width="2" fill-opacity="1.0"/>
        <g transform="translate(0.0, 0.0)">
          <text id="ITEM_1_HEAD" font-weight="bold" font-size="30" fill="var(--inverse-text)" x="-300.0" y="-25.0" data-bg-id="ITEM_1_BG" fill-opacity="1.0" style="font-size: 30px; font-family: Inter, Segoe UI, Kalam, Roboto, Helvetica, Arial, sans-serif; font-weight: 700; letter-spacing:-0.4px;" data-final-font-size="30">
            <tspan x="-300.0" dy="25.75px">Green Streak</tspan>
          </text>
          <rect id="ITEM_1_HEAD_FRAME" x="-300" y="-25" width="850" height="35" fill="none"/>
          <text id="ITEM_1_BODY" font-size="21" fill="var(--inverse-text)" x="-300.0" y="15.0" data-bg-id="ITEM_1_BG" style="font-size: 26px; font-family: Inter, Segoe UI, Kalam, Roboto, Helvetica, Arial, sans-serif; font-weight: 400;" data-final-font-size="26">
            <tspan x="-300.0" dy="20.84px">Ionized nickel creates vivid</tspan>
            <tspan x="-300.0" dy="29.90px">green color</tspan>
          </text>
          <rect id="ITEM_1_BODY_FRAME" x="-300" y="15" width="380" height="60" fill="none"/>
        </g>
        <circle id="ITEM_1_PAD" cx="-450.0" cy="60.0" r="50" fill="var(--icon-pad-bg)" stroke="var(--primary-text)" opacity="0.9" fill-opacity="0.9" stroke-width="2"/>
        <circle id="ITEM_1_PAD_INNER" cx="-450.0" cy="60.0" r="39.00" fill="var(--accent-4)" fill-opacity="0.22"/>
        <circle cx="-450.0" cy="60.0" r="40.0" fill="none" stroke="var(--accent-1)" stroke-width="3" stroke-dasharray="6 4"/>
        <g id="ITEM_1_ICON" transform="translate(-482.0, 28.0)" data-icon-size="64" stroke-dasharray="6 4">
          <g transform="translate(-8.95,-9.275000000000004) scale(0.1625)" vector-effect="non-scaling-stroke" fill="#f1f5f9" fill-opacity="1.0" stroke="none">
            <path fill="#f1f5f9" d="M310.375 16.75L89.405 75.72l58.126 50.905L282.563 90.28l2.032-.53zm17.063 7.844l-27.157 76.812l91.69 91.875l95.624-8.78zm-41.813 12.062l-8.594 33.657c-.28-15.516-38.03-17.018-107.56-4.376zm51.063 14.625l123.5 123.407l-58.844 7.563c16.2-21.37-32.277-91.112-64.656-130.97M74.75 87.72L15.594 308.405l79-31.47l37.28-139.155zm207.438 22l-133.032 35.81l-35.72 133.376l97.25 97.53l133.064-35.81l35.72-133.376zm-201.72 5.686l32.844 30.5l-30.156 118.97l-39.03 15.812c50.817-30.543 65.667-130.132 36.343-165.282zm195.876 14.78L359 213.377l-30.156 113.81l-44.688 11.97c119.527-107.872-34.816-238.375-131.5-140.875l9.875-37.405l113.814-30.688zM490.564 203l-92.877 8.53l-35.968 134.19l71.342 71.842L490.563 203zm-17.283 13.875L444.03 333.03c6.73-68.874-.03-90.85-30.655-111.5zm-371.155 77.188L20.22 326.688l161.75 161.468l17.31-96.72l-97.155-97.373zm.094 20l78.124 82.437l-7.438 61.375c-5.23-44.565-28.34-85.92-70.687-143.813zm246.124 44.687l-130.53 35.125l-17.564 98.188l221.688-59.157zm18.625 42.5l24.28 24.844l-115.22 32.72c61.28-26.446 83.34-37.418 90.94-57.564" vector-effect="non-scaling-stroke" stroke="none"/>
          </g>
        </g>
      </g>
      <g transform="translate(0.0, 150.0)">
        <rect id="ITEM_2_BG" x="-600" y="-30" width="1200" height="120" rx="12" fill="var(--accent-5)" stroke="var(--accent-2)" stroke-width="2" fill-opacity="1.0"/>
        <g transform="translate(0.0, 0.0)">
          <text id="ITEM_2_HEAD" font-weight="bold" font-size="30" fill="var(--primary-text)" x="-300.0" y="-25.0" data-bg-id="ITEM_2_BG" fill-opacity="1.0" style="font-size: 30px; font-family: Inter, Segoe UI, Kalam, Roboto, Helvetica, Arial, sans-serif; font-weight: 700; letter-spacing:-0.4px;" data-final-font-size="30">
            <tspan x="-300.0" dy="25.75px">Slow Descent</tspan>
          </text>
          <rect id="ITEM_2_HEAD_FRAME" x="-300" y="-25" width="850" height="35" fill="none"/>
          <text id="ITEM_2_BODY" font-size="21" fill="var(--primary-text)" x="-300.0" y="15.0" data-bg-id="ITEM_2_BG" style="font-size: 26px; font-family: Inter, Segoe UI, Kalam, Roboto, Helvetica, Arial, sans-serif; font-weight: 400;" data-final-font-size="26">
            <tspan x="-300.0" dy="20.84px">Debris falls slowly leaving</tspan>
            <tspan x="-300.0" dy="29.90px">long glowing trails</tspan>
          </text>
          <rect id="ITEM_2_BODY_FRAME" x="-300" y="15" width="380" height="60" fill="none"/>
        </g>
        <circle id="ITEM_2_PAD" cx="-450.0" cy="60.0" r="50" fill="var(--icon-pad-bg)" stroke="var(--primary-text)" opacity="0.9" fill-opacity="0.9" stroke-width="2"/>
        <circle id="ITEM_2_PAD_INNER" cx="-450.0" cy="60.0" r="39.00" fill="var(--accent-5)" fill-opacity="0.22"/>
        <circle cx="-450.0" cy="60.0" r="40.0" fill="none" stroke="var(--accent-1)" stroke-width="3" stroke-dasharray="6 4"/>
        <g id="ITEM_2_ICON" transform="translate(-482.0, 28.0)" data-icon-size="64" stroke-dasharray="6 4">
          <g transform="translate(-10.966101694915254,-8.322033898305088) scale(0.1652542372881356)" vector-effect="non-scaling-stroke" fill="#f1f5f9" fill-opacity="1.0" stroke="none">
            <path fill="#f1f5f9" d="M427.313 26.188c-4.8.012-9.63 1.264-14.032 3.406c9.05 78.836 5.48 143.09-43.217 231.844c63.85-73.5 80.035-178.61 74.75-228.344c-5.21-4.886-11.33-6.922-17.5-6.907zm-91.032 48.75c-98.73 2.416-95.504 294.125-310.155 346.812C229.537 547.755 623.41 365.046 450.03 152.812c-.923 2.79-1.863 5.586-2.81 8.407c10.803 52.818 6.81 110.217-20.44 172.874c3.956-40.244 3.315-78.758-2.905-115.656c-7.34 14.28-16.703 28.132-26.28 42.062c1.357 40.016-6.12 82.247-25.72 127.313c3.143-32.007 2.588-62.875-.563-92.875c-12.835 14.593-27.163 28.624-43.218 41.468c-3.802 25.377-10.96 51.658-22.78 78.844c2.12-21.604 2.46-42.944 1.748-63.656C271.472 375.8 229.21 395.157 178 405.906c43.122-24.2 77.516-49.167 105.688-74.75c-18.532-3.86-37.607-6.38-56.657-8.156a271.4 271.4 0 0 1 74.19-8.188c17.226-17.617 31.62-35.325 43.217-53.718c-32.133-5.78-64.654-7.476-97.53-5.28c37.746-18.268 75.352-24.643 112.718-22.19c9.655-19.872 16.26-40.42 21.03-61.31c-28.417-2.687-59.37 4.05-94.624 12.842c31.834-29.16 66.23-41.838 100.44-45.562c1.778-14.472 2.736-28.956 2.905-43.906c-19.706-14.02-36.318-20.438-50.75-20.75c-.79-.018-1.566-.02-2.344 0z" vector-effect="non-scaling-stroke" stroke="none"/>
          </g>
        </g>
      </g>
      <g transform="translate(0.0, 300.0)">
        <rect id="ITEM_3_BG" x="-600" y="-30" width="1200" height="120" rx="12" fill="var(--accent-6)" stroke="var(--accent-3)" stroke-width="2" fill-opacity="1.0"/>
        <g transform="translate(0.0, 0.0)">
          <text id="ITEM_3_HEAD" font-weight="bold" font-size="30" fill="var(--inverse-text)" x="-300.0" y="-25.0" data-bg-id="ITEM_3_BG" fill-opacity="1.0" style="font-size: 30px; font-family: Inter, Segoe UI, Kalam, Roboto, Helvetica, Arial, sans-serif; font-weight: 700; letter-spacing:-0.4px;" data-final-font-size="30">
            <tspan x="-300.0" dy="25.75px">Delayed Sound</tspan>
          </text>
          <rect id="ITEM_3_HEAD_FRAME" x="-300" y="-25" width="850" height="35" fill="none"/>
          <text id="ITEM_3_BODY" font-size="21" fill="var(--inverse-text)" x="-300.0" y="15.0" data-bg-id="ITEM_3_BG" style="font-size: 26px; font-family: Inter, Segoe UI, Kalam, Roboto, Helvetica, Arial, sans-serif; font-weight: 400;" data-final-font-size="26">
            <tspan x="-300.0" dy="20.84px">Thunder-like noise arrives</tspan>
            <tspan x="-300.0" dy="29.90px">minutes later</tspan>
          </text>
          <rect id="ITEM_3_BODY_FRAME" x="-300" y="15" width="380" height="60" fill="none"/>
        </g>
        <circle id="ITEM_3_PAD" cx="-450.0" cy="60.0" r="50" fill="var(--icon-pad-bg)" stroke="var(--primary-text)" opacity="0.9" fill-opacity="0.9" stroke-width="2"/>
        <circle id="ITEM_3_PAD_INNER" cx="-450.0" cy="60.0" r="39.00" fill="var(--accent-6)" fill-opacity="0.22"/>
        <circle cx="-450.0" cy="60.0" r="40.0" fill="none" stroke="var(--accent-2)" stroke-width="3" stroke-dasharray="6 4"/>
        <g id="ITEM_3_ICON" transform="translate(-482.0, 28.0)" data-icon-size="64" stroke-dasharray="6 4">
          <g transform="translate(-10.305084745762713,-10.305084745762713) scale(3.5254237288135593)" vector-effect="non-scaling-stroke" fill="#f1f5f9" fill-opacity="1.0" stroke="none">
            <path fill="#f1f5f9" d="M11 15H6l7-14v8h5l-7 14z" vector-effect="non-scaling-stroke" stroke="none"/>
          </g>
        </g>
      </g>
      <g transform="translate(0.0, 450.0)">
        <rect id="ITEM_4_BG" x="-600" y="-30" width="1200" height="120" rx="12" fill="var(--accent-1)" stroke="var(--accent-4)" stroke-width="2" fill-opacity="1.0"/>
        <g transform="translate(0.0, 0.0)">
          <text id="ITEM_4_HEAD" font-weight="bold" font-size="30" fill="var(--inverse-text)" x="-300.0" y="-25.0" data-bg-id="ITEM_4_BG" fill-opacity="1.0" style="font-size: 30px; font-family: Inter, Segoe UI, Kalam, Roboto, Helvetica, Arial, sans-serif; font-weight: 700; letter-spacing:-0.4px;" data-final-font-size="30">
            <tspan x="-300.0" dy="25.75px">Social Spread</tspan>
          </text>
          <rect id="ITEM_4_HEAD_FRAME" x="-300" y="-25" width="850" height="35" fill="none"/>
          <text id="ITEM_4_BODY" font-size="21" fill="var(--inverse-text)" x="-300.0" y="15.0" data-bg-id="ITEM_4_BG" style="font-size: 26px; font-family: Inter, Segoe UI, Kalam, Roboto, Helvetica, Arial, sans-serif; font-weight: 400;" data-final-font-size="26">
            <tspan x="-300.0" dy="20.84px">Dashcam footage spreads</tspan>
            <tspan x="-300.0" dy="29.90px">fast online</tspan>
          </text>
          <rect id="ITEM_4_BODY_FRAME" x="-300" y="15" width="380" height="60" fill="none"/>
        </g>
        <circle id="ITEM_4_PAD" cx="-450.0" cy="60.0" r="50" fill="var(--icon-pad-bg)" stroke="var(--primary-text)" opacity="0.9" fill-opacity="0.9" stroke-width="2"/>
        <circle id="ITEM_4_PAD_INNER" cx="-450.0" cy="60.0" r="39.00" fill="var(--accent-1)" fill-opacity="0.22"/>
        <circle cx="-450.0" cy="60.0" r="40.0" fill="none" stroke="var(--accent-3)" stroke-width="3" stroke-dasharray="6 4"/>
        <g id="ITEM_4_ICON" transform="translate(-482.0, 28.0)" data-icon-size="64" stroke-dasharray="6 4">
          <g transform="translate(-10.305084745762711,-10.305084745762713) scale(3.5254237288135593)" vector-effect="non-scaling-stroke" stroke-width="2.48" stroke-linecap="round" stroke-linejoin="round" stroke-opacity="1.0">
            <rect width="14" height="20" x="5" y="2" rx="2" ry="2" vector-effect="non-scaling-stroke" fill="none" stroke="#f1f5f9"/>
            <path d="M12 18h.01" vector-effect="non-scaling-stroke" fill="none" stroke="#f1f5f9"/>
          </g>
        </g>
      </g>
      <g transform="translate(0.0, 600.0)">
        <rect id="ITEM_5_BG" x="-600" y="-30" width="1200" height="120" rx="12" fill="var(--accent-2)" stroke="var(--accent-5)" stroke-width="2" fill-opacity="1.0"/>
        <g transform="translate(0.0, 0.0)">
          <text id="ITEM_5_HEAD" font-weight="bold" font-size="30" fill="var(--primary-text)" x="-300.0" y="-25.0" data-bg-id="ITEM_5_BG" fill-opacity="1.0" style="font-size: 30px; font-family: Inter, Segoe UI, Kalam, Roboto, Helvetica, Arial, sans-serif; font-weight: 700; letter-spacing:-0.4px;" data-final-font-size="30">
            <tspan x="-300.0" dy="25.75px">Satellite Re-entry</tspan>
          </text>
          <rect id="ITEM_5_HEAD_FRAME" x="-300" y="-25" width="850" height="35" fill="none"/>
          <text id="ITEM_5_BODY" font-size="21" fill="var(--primary-text)" x="-300.0" y="15.0" data-bg-id="ITEM_5_BG" style="font-size: 26px; font-family: Inter, Segoe UI, Kalam, Roboto, Helvetica, Arial, sans-serif; font-weight: 400;" data-final-font-size="26">
            <tspan x="-300.0" dy="20.84px">Rocket debris mimics natural</tspan>
            <tspan x="-300.0" dy="29.90px">meteor patterns</tspan>
          </text>
          <rect id="ITEM_5_BODY_FRAME" x="-300" y="15" width="380" height="60" fill="none"/>
        </g>
        <circle id="ITEM_5_PAD" cx="-450.0" cy="60.0" r="50" fill="var(--icon-pad-bg)" stroke="var(--primary-text)" opacity="0.9" fill-opacity="0.9" stroke-width="2"/>
        <circle id="ITEM_5_PAD_INNER" cx="-450.0" cy="60.0" r="39.00" fill="var(--accent-2)" fill-opacity="0.22"/>
        <circle cx="-450.0" cy="60.0" r="40.0" fill="none" stroke="var(--accent-4)" stroke-width="3" stroke-dasharray="6 4"/>
        <g id="ITEM_5_ICON" transform="translate(-482.0, 28.0)" data-icon-size="64" stroke-dasharray="6 4">
          <g transform="translate(-14.222222222222221,-14.222222222222221) scale(3.8518518518518516)" vector-effect="non-scaling-stroke" stroke-width="2.48" stroke-linecap="round" stroke-linejoin="round" stroke-opacity="1.0">
            <path d="M4 10a7.31 7.31 0 0 0 10 10Z" vector-effect="non-scaling-stroke" fill="none" stroke="#f1f5f9"/>
            <path d="m9 15 3-3" vector-effect="non-scaling-stroke" fill="none" stroke="#f1f5f9"/>
            <path d="M17 13a6 6 0 0 0-6-6" vector-effect="non-scaling-stroke" fill="none" stroke="#f1f5f9"/>
            <path d="M21 13A10 10 0 0 0 11 3" vector-effect="non-scaling-stroke" fill="none" stroke="#f1f5f9"/>
          </g>
        </g>
      </g>
    </g>
  </g>
</svg>
