<?xml version='1.0' encoding='utf-8'?>
<svg xmlns="http://www.w3.org/2000/svg" width="1920" height="1080" viewBox="0 0 1920 1080" data-theme="light">
  <style>
        @font-face {
            font-family: 'Inter';
            src: url('assets/fonts/Inter-Regular.ttf') format('truetype');
            font-weight: 400;
            font-style: normal;
            font-display: swap;
        }
        @font-face {
            font-family: 'Inter';
            src: url('assets/fonts/Inter-Bold.ttf') format('truetype');
            font-weight: 600;
            font-style: normal;
            font-display: swap;
        }
        @font-face {
            font-family: 'Inter';
            src: url('assets/fonts/Inter-Bold.ttf') format('truetype');
            font-weight: 800;
            font-style: normal;
            font-display: swap;
        }
        
:root {
    --background: #f8fafc;
    --panel: #ffffff;
    --primary-text: #0f172a;
    --muted-text: #64748b;
    --inverse-text: #ffffff;
    --border: #e2e8f0;
    --shadow-color: #000000;
    --icon-pad-bg: #1e293b;
    --art-glow: #0891b2;
    --art-glow-opacity: 0.10;
    --art-sheen: #ffffff;
    --art-sheen-opacity: 0.34;
    --art-shadow: #0f172a;
    --art-shadow-opacity: 0.14;
    --art-muted-line: #94a3b8;
    --art-panel-tint: #f1f5f9;
    --font-family: 'Inter', 'Segoe UI', 'Kalam', Roboto, Helvetica, Arial, sans-serif;
    --radius-xl: 16px;
    --font-family-headline: 'Inter', 'Segoe UI', 'Kalam', Roboto, Helvetica, Arial, sans-serif;
    --font-family-body: 'Inter', 'Segoe UI', 'Kalam', Roboto, Helvetica, Arial, sans-serif;
    --font-heading: 'Inter', 'Segoe UI', 'Kalam', Roboto, Helvetica, Arial, sans-serif;
    --font-body: 'Inter', 'Segoe UI', 'Kalam', Roboto, Helvetica, Arial, sans-serif;
    --font-size-h1: 56px;
    --font-size-h2: 40px;
    --font-size-h3: 28px;
    --font-size-body: 24px;
    --font-size-caption: 18px;
    --secondary-text: var(--muted-text);
    --panel-border: var(--border);
    --font-weight-normal: 400;
    --font-weight-medium: 500;
    --font-weight-semibold: 600;
    --font-weight-bold: 700;
    --spacing-gutter-pct: 0.07;
    --spacing-top-pct: 0.15;
    --spacing-bottom-pct: 0.07;
    --spacing-title-y-pct: 0.055;
    --accent-1: #3b82f6;
    --accent-2: #22c55e;
    --accent-3: #f59e0b;
    --accent-4: #ec4899;
    --accent-5: #8b5cf6;
    --accent-6: #06b6d4;
}
:root[data-theme="dark"] {
    --background: #0f172a;
    --panel: #1e293b;
    --primary-text: #f1f5f9;
    --muted-text: #94a3b8;
    --inverse-text: #0f172a;
    --border: #334155;
    --shadow-color: #000000;
    --icon-pad-bg: #1e293b;
    --art-glow: #7dd3fc;
    --art-glow-opacity: 0.18;
    --art-sheen: #ffffff;
    --art-sheen-opacity: 0.18;
    --art-shadow: #000000;
    --art-shadow-opacity: 0.28;
    --art-muted-line: #64748b;
    --art-panel-tint: #1e293b;
    --accent-1: #93c5fd;
    --accent-2: #86efac;
    --accent-3: #fcd34d;
    --accent-4: #f9a8d4;
    --accent-5: #c4b5fd;
    --accent-6: #a5f3fc;
}
:root[data-theme="light"] {
    --background: #f8fafc;
    --panel: #ffffff;
    --primary-text: #0f172a;
    --muted-text: #64748b;
    --inverse-text: #ffffff;
    --border: #e2e8f0;
    --shadow-color: #000000;
    --icon-pad-bg: #1e293b;
    --art-glow: #0891b2;
    --art-glow-opacity: 0.10;
    --art-sheen: #ffffff;
    --art-sheen-opacity: 0.34;
    --art-shadow: #0f172a;
    --art-shadow-opacity: 0.14;
    --art-muted-line: #94a3b8;
    --art-panel-tint: #f1f5f9;
    --accent-1: #3b82f6;
    --accent-2: #22c55e;
    --accent-3: #f59e0b;
    --accent-4: #ec4899;
    --accent-5: #8b5cf6;
    --accent-6: #06b6d4;
}</style>
  <rect x="0" y="0" width="1.92E+3" height="1.08E+3" fill="#252a34" stroke="none" id="programmatic_background"/>
  <line id="HEADER_DECOR" x1="960.0" x2="1080.0" y1="125.0" y2="125.0" stroke="var(--accent-1)" stroke-width="6" stroke-linecap="round"/>
  <defs>
    <pattern id="svg282da2ea-napkin-hatch" patternUnits="userSpaceOnUse" width="12" height="12">
      <path d="M -3 12 L 12 -3 M 0 15 L 15 0" fill="none" stroke="var(--primary-text)" stroke-width="1" stroke-opacity="0.05"/>
    </pattern>
    <filter id="svg282da2ea-soft-shadow" x="-30%" y="-30%" width="160%" height="160%">
      <feDropShadow dx="0" dy="4" stdDeviation="10" flood-color="#000000" flood-opacity="0.2"/>
    </filter>
    <radialGradient id="svg282da2ea-universal-edge-vignette" cx="50%" cy="50%" r="72%">
      <stop offset="0%" stop-color="var(--background)" stop-opacity="0"/>
      <stop offset="72%" stop-color="var(--background)" stop-opacity="0.12"/>
      <stop offset="100%" stop-color="var(--primary-text)" stop-opacity="0.08"/>
    </radialGradient>
    <linearGradient id="svg282da2ea-universal-surface-sheen" x1="0%" y1="0%" x2="100%" y2="100%">
      <stop offset="0%" stop-color="var(--art-sheen)" stop-opacity="var(--art-sheen-opacity)"/>
      <stop offset="46%" stop-color="var(--art-sheen)" stop-opacity="0.035"/>
      <stop offset="100%" stop-color="var(--art-panel-tint)" stop-opacity="0.14"/>
    </linearGradient>
    <radialGradient id="svg282da2ea-universal-icon-aura" cx="50%" cy="42%" r="64%">
      <stop offset="0%" stop-color="var(--art-glow)" stop-opacity="var(--art-glow-opacity)"/>
      <stop offset="100%" stop-color="var(--background)" stop-opacity="0"/>
    </radialGradient>
    <linearGradient id="svg282da2ea-comparison-card-depth" x1="0%" y1="0%" x2="0%" y2="100%">
      <stop offset="0%" stop-color="var(--art-sheen)" stop-opacity="0.30"/>
      <stop offset="55%" stop-color="var(--art-sheen)" stop-opacity="0.035"/>
      <stop offset="100%" stop-color="var(--art-shadow)" stop-opacity="0.10"/>
    </linearGradient>
    <filter id="svg282da2ea-text-glow" x="-20%" y="-20%" width="140%" height="140%">
      <feDropShadow dx="0" dy="0" stdDeviation="2" flood-color="#000000" flood-opacity="0.4"/>
    </filter>
    <filter id="svg282da2ea-shadow" x="-30%" y="-30%" width="160%" height="160%">
      <feDropShadow dx="0" dy="2" stdDeviation="3" flood-color="#000000" flood-opacity="0.08"/>
      <feDropShadow dx="0" dy="6" stdDeviation="10" flood-color="#000000" flood-opacity="0.12"/>
    </filter>
    <marker id="svg282da2ea-arrowhead" markerWidth="10" markerHeight="7" refX="9" refY="3.5" orient="auto" markerUnits="strokeWidth">
      <polygon points="0 0, 10 3.5, 0 7" fill="var(--muted-text)" opacity="0.6"/>
    </marker>
  </defs>
  <rect id="CANVAS_BG" width="100%" height="100%" fill="var(--background)"/>
  <rect width="100%" height="100%" fill="url(#svg282da2ea-napkin-hatch)"/>
  <rect id="UNIVERSAL_EDGE_VIGNETTE" width="100%" height="100%" fill="url(#svg282da2ea-universal-edge-vignette)" opacity="0.62"/>
  <text id="TITLE" x="960.0" y="59" text-anchor="middle" font-size="60" font-weight="800" fill="#0f172a" style="font-size: 60px; font-family: Inter, Segoe UI, Kalam, Roboto, Helvetica, Arial, sans-serif; font-weight: 700; letter-spacing:-1.2px;" data-final-font-size="60">
    <tspan x="960.0" dy="68.00px">Venus vs Satellite Confusion</tspan>
  </text>
  <rect id="TITLE_FRAME" x="134" y="59" width="1652" height="103" fill="none"/>
  <rect x="110" y="180" width="1700" height="770" rx="38" fill="var(--panel)" fill-opacity="0.28" stroke="var(--muted-text)" stroke-width="2" opacity="0.92"/>
  <line x1="960" y1="225" x2="960" y2="545" stroke="var(--muted-text)" stroke-width="4" stroke-dasharray="10 10" opacity="0.35"/>
  <rect x="878" y="370" width="164" height="34" rx="17" fill="var(--background)" stroke="var(--muted-text)" stroke-width="2" opacity="0.9"/>
  <text x="960" y="394" text-anchor="middle" font-size="20" font-weight="700" fill="var(--primary-text)">Tradeoffs</text>
  <g filter="url(#svg282da2ea-soft-shadow)">
    <rect id="ITEM_1_BG" x="150" y="230" width="700" height="300" rx="30" fill="var(--panel)" fill-opacity="0.97" stroke="var(--accent-1)" stroke-width="3"/>
    <rect x="150" y="230" width="700" height="18" rx="9" fill="var(--accent-1)" fill-opacity="0.55"/>
    <rect x="392" y="258" width="380" height="34" rx="17" fill="var(--accent-1)" fill-opacity="0.12"/>
    <circle id="ITEM_1_PAD" cx="250" cy="322" r="52" fill="var(--icon-pad-bg)" opacity="0.95" fill-opacity="0.9" stroke-width="2" stroke="var(--primary-text)"/>
    <circle id="ITEM_1_PAD_INNER" cx="250" cy="322" r="40.56" fill="var(--accent-2)" fill-opacity="0.22"/>
    <circle cx="250" cy="322" r="42" fill="none" stroke="var(--accent-1)" stroke-width="3" stroke-dasharray="6 4"/>
    <g id="ITEM_1_ICON" transform="translate(212, 284)" data-icon-size="76" stroke-dasharray="6 4">
      <g transform="translate(-3.203809523809526,-3.203809523809526) scale(3.433650793650794)" vector-effect="non-scaling-stroke" stroke-width="2.62" stroke-linecap="round" stroke-linejoin="round" stroke-opacity="1.0">
        <path d="M9.95242 9.62272L11.5109 6.31816C11.711 5.89395 12.289 5.89395 12.4891 6.31816L14.0476 9.62272L17.5329 10.1559C17.9801 10.2243 18.1583 10.7996 17.8346 11.1296L15.313 13.7001L15.9081 17.3314C15.9845 17.7978 15.5168 18.1534 15.1167 17.9331L12 16.2177L8.88328 17.9331C8.48316 18.1534 8.01545 17.7978 8.09187 17.3314L8.68695 13.7001L6.16545 11.1296C5.8417 10.7996 6.01993 10.2243 6.46711 10.1559L9.95242 9.62272Z" stroke="#f1f5f9" vector-effect="non-scaling-stroke" fill="none"/>
        <path d="M22 12L23 12" stroke="#f1f5f9" vector-effect="non-scaling-stroke" fill="none"/>
        <path d="M12 2V1" stroke="#f1f5f9" vector-effect="non-scaling-stroke" fill="none"/>
        <path d="M12 23V22" stroke="#f1f5f9" vector-effect="non-scaling-stroke" fill="none"/>
        <path d="M20 20L19 19" stroke="#f1f5f9" vector-effect="non-scaling-stroke" fill="none"/>
        <path d="M20 4L19 5" stroke="#f1f5f9" vector-effect="non-scaling-stroke" fill="none"/>
        <path d="M4 20L5 19" stroke="#f1f5f9" vector-effect="non-scaling-stroke" fill="none"/>
        <path d="M4 4L5 5" stroke="#f1f5f9" vector-effect="non-scaling-stroke" fill="none"/>
        <path d="M1 12L2 12" stroke="#f1f5f9" vector-effect="non-scaling-stroke" fill="none"/>
      </g>
    </g>
    <rect id="ITEM_1_TEXT_BG" x="330.0" y="266.0" width="468.0" height="226.0" rx="22" fill="var(--panel)" fill-opacity="0.94" stroke="var(--primary-text)" stroke-opacity="0.12" stroke-width="1.5"/>
    <rect id="COMPARISON_COLUMNS_ART_PANEL_SHEEN_1" x="330.0" y="266.0" width="468.0" height="226.0" rx="16" fill="var(--accent-2)" opacity="0.82" fill-opacity="1.0"/>
    <text id="ITEM_1_HEAD" x="564.0" y="282.0" text-anchor="middle" font-size="32" font-weight="800" fill="var(--primary-text)" data-bg-id="ITEM_1_TEXT_BG" fill-opacity="1.0" style="font-size: 30px; font-family: Inter, Segoe UI, Kalam, Roboto, Helvetica, Arial, sans-serif; font-weight: 700; letter-spacing:-0.4px;" data-final-font-size="30">
      <tspan x="564.0" dy="40.49px">Bright Horizon</tspan>
    </text>
    <rect id="ITEM_1_HEAD_FRAME" x="364" y="282" width="400" height="52" fill="none"/>
    <text id="ITEM_1_BODY" x="564.0" y="340.0" text-anchor="middle" font-size="19" fill="var(--primary-text)" data-bg-id="ITEM_1_TEXT_BG" style="font-size: 26px; font-family: Inter, Segoe UI, Kalam, Roboto, Helvetica, Arial, sans-serif; font-weight: 400;" data-final-font-size="26">
      <tspan x="564.0" dy="48.55px">Venus appears startlingly bright</tspan>
    </text>
    <rect id="ITEM_1_BODY_FRAME" x="350" y="340" width="428" height="136" fill="none"/>
  </g>
  <g filter="url(#svg282da2ea-soft-shadow)">
    <rect id="ITEM_2_BG" x="1070" y="230" width="700" height="300" rx="30" fill="var(--panel)" fill-opacity="0.97" stroke="var(--accent-2)" stroke-width="3"/>
    <rect x="1070" y="230" width="700" height="18" rx="9" fill="var(--accent-2)" fill-opacity="0.55"/>
    <rect x="1312" y="258" width="380" height="34" rx="17" fill="var(--accent-2)" fill-opacity="0.12"/>
    <circle id="ITEM_2_PAD" cx="1170" cy="322" r="52" fill="var(--icon-pad-bg)" opacity="0.95" fill-opacity="0.9" stroke-width="2" stroke="var(--primary-text)"/>
    <circle id="ITEM_2_PAD_INNER" cx="1170" cy="322" r="40.56" fill="var(--accent-3)" fill-opacity="0.22"/>
    <circle cx="1170" cy="322" r="42" fill="none" stroke="var(--accent-2)" stroke-width="3" stroke-dasharray="6 4"/>
    <g id="ITEM_2_ICON" transform="translate(1132, 284)" data-icon-size="76" stroke-dasharray="6 4">
      <g transform="translate(-10.071111111111122,-11.948888888888897) scale(4.005925925925927)" vector-effect="non-scaling-stroke" stroke-width="2.62" stroke-linecap="round" stroke-linejoin="round" stroke-opacity="1.0">
        <path d="M5 5h3m4 0h9" vector-effect="non-scaling-stroke" fill="none" stroke="#f1f5f9"/>
        <path d="M3 10h11m4 0h1" vector-effect="non-scaling-stroke" fill="none" stroke="#f1f5f9"/>
        <path d="M5 15h5m4 0h7" vector-effect="non-scaling-stroke" fill="none" stroke="#f1f5f9"/>
        <path d="M3 20h9m4 0h3" vector-effect="non-scaling-stroke" fill="none" stroke="#f1f5f9"/>
      </g>
    </g>
    <rect id="ITEM_2_TEXT_BG" x="1250.0" y="266.0" width="468.0" height="226.0" rx="22" fill="var(--panel)" fill-opacity="0.94" stroke="var(--primary-text)" stroke-opacity="0.12" stroke-width="1.5"/>
    <rect id="COMPARISON_COLUMNS_ART_PANEL_SHEEN_2" x="1250.0" y="266.0" width="468.0" height="226.0" rx="16" fill="var(--accent-3)" opacity="0.82" fill-opacity="1.0"/>
    <text id="ITEM_2_HEAD" x="1484.0" y="282.0" text-anchor="middle" font-size="32" font-weight="800" fill="var(--primary-text)" data-bg-id="ITEM_2_TEXT_BG" fill-opacity="1.0" style="font-size: 30px; font-family: Inter, Segoe UI, Kalam, Roboto, Helvetica, Arial, sans-serif; font-weight: 700; letter-spacing:-0.4px;" data-final-font-size="30">
      <tspan x="1484.0" dy="40.49px">Atmospheric Effects</tspan>
    </text>
    <rect id="ITEM_2_HEAD_FRAME" x="1284" y="282" width="400" height="52" fill="none"/>
    <text id="ITEM_2_BODY" x="1484.0" y="340.0" text-anchor="middle" font-size="19" fill="var(--primary-text)" data-bg-id="ITEM_2_TEXT_BG" style="font-size: 26px; font-family: Inter, Segoe UI, Kalam, Roboto, Helvetica, Arial, sans-serif; font-weight: 400;" data-final-font-size="26">
      <tspan x="1484.0" dy="48.55px">Haze creates flickering illusions</tspan>
    </text>
    <rect id="ITEM_2_BODY_FRAME" x="1270" y="340" width="428" height="136" fill="none"/>
  </g>
  <g filter="url(#svg282da2ea-soft-shadow)">
    <rect id="ITEM_3_BG" x="150" y="610" width="470" height="270" rx="26" fill="var(--panel)" fill-opacity="0.97" stroke="var(--accent-3)" stroke-width="3"/>
    <rect x="150" y="610" width="470" height="16" rx="8" fill="var(--accent-3)" fill-opacity="0.55"/>
    <rect x="280" y="646" width="260" height="26" rx="13" fill="var(--accent-3)" fill-opacity="0.12"/>
    <circle id="ITEM_3_PAD" cx="228" cy="692" r="46" fill="var(--icon-pad-bg)" opacity="0.95" fill-opacity="0.9" stroke-width="2" stroke="var(--primary-text)"/>
    <circle id="ITEM_3_PAD_INNER" cx="228" cy="692" r="35.88" fill="var(--accent-4)" fill-opacity="0.22"/>
    <circle cx="228" cy="692" r="37" fill="none" stroke="var(--accent-3)" stroke-width="3" stroke-dasharray="6 4"/>
    <g id="ITEM_3_ICON" transform="translate(194, 658)" data-icon-size="68" stroke-dasharray="6 4">
      <g transform="translate(-5.5917241379310365,-5.5917241379310365) scale(3.2993103448275862)" vector-effect="non-scaling-stroke" stroke-width="2.53" stroke-linecap="round" stroke-linejoin="round" stroke-opacity="1.0">
        <path d="M12 22C6.47715 22 2 17.5228 2 12C2 6.47715 6.47715 2 12 2C17.5228 2 22 6.47715 22 12C22 17.5228 17.5228 22 12 22Z" stroke="#f1f5f9" vector-effect="non-scaling-stroke" fill="none"/>
        <path d="M12 16C9.79086 16 8 14.2091 8 12C8 9.79086 9.79086 8 12 8C14.2091 8 16 9.79086 16 12C16 14.2091 14.2091 16 12 16Z" stroke="#f1f5f9" vector-effect="non-scaling-stroke" fill="none"/>
        <path d="M12 2V8" stroke="#f1f5f9" vector-effect="non-scaling-stroke" fill="none"/>
        <path d="M12 16V22" stroke="#f1f5f9" vector-effect="non-scaling-stroke" fill="none"/>
        <path d="M2 12H8" stroke="#f1f5f9" vector-effect="non-scaling-stroke" fill="none"/>
        <path d="M16 12H22" stroke="#f1f5f9" vector-effect="non-scaling-stroke" fill="none"/>
        <path d="M4.92896 4.92871L9.1716 9.17135" stroke="#f1f5f9" vector-effect="non-scaling-stroke" fill="none"/>
        <path d="M14.8284 14.8286L19.071 19.0713" stroke="#f1f5f9" vector-effect="non-scaling-stroke" fill="none"/>
        <path d="M4.92896 19.0713L9.1716 14.8286" stroke="#f1f5f9" vector-effect="non-scaling-stroke" fill="none"/>
        <path d="M14.8284 9.17139L19.071 4.92875" stroke="#f1f5f9" vector-effect="non-scaling-stroke" fill="none"/>
      </g>
    </g>
    <rect id="ITEM_3_TEXT_BG" x="268.0" y="690.0" width="326.0" height="186.0" rx="22" fill="var(--panel)" fill-opacity="0.94" stroke="var(--primary-text)" stroke-opacity="0.12" stroke-width="1.5"/>
    <rect id="COMPARISON_COLUMNS_ART_PANEL_SHEEN_3" x="268.0" y="690.0" width="326.0" height="186.0" rx="16" fill="var(--accent-4)" opacity="0.82" fill-opacity="1.0"/>
    <text id="ITEM_3_HEAD" x="431.0" y="706.0" text-anchor="middle" font-size="28" font-weight="800" fill="var(--primary-text)" data-bg-id="ITEM_3_TEXT_BG" fill-opacity="1.0" style="font-size: 30px; font-family: Inter, Segoe UI, Kalam, Roboto, Helvetica, Arial, sans-serif; font-weight: 700; letter-spacing:-0.4px;" data-final-font-size="30">
      <tspan x="431.0" dy="38.01px">Color Changes</tspan>
    </text>
    <rect id="ITEM_3_HEAD_FRAME" x="296" y="706" width="270" height="48" fill="none"/>
    <text id="ITEM_3_BODY" x="431.0" y="754.0" text-anchor="middle" font-size="18" fill="var(--primary-text)" data-bg-id="ITEM_3_TEXT_BG" style="font-size: 26px; font-family: Inter, Segoe UI, Kalam, Roboto, Helvetica, Arial, sans-serif; font-weight: 400;" data-final-font-size="26">
      <tspan x="431.0" dy="37.61px">Object shifts hue</tspan>
      <tspan x="431.0" dy="29.90px">in atmosphere</tspan>
    </text>
    <rect id="ITEM_3_BODY_FRAME" x="286" y="754" width="290" height="116" fill="none"/>
  </g>
  <g filter="url(#svg282da2ea-soft-shadow)">
    <rect id="ITEM_4_BG" x="725" y="610" width="470" height="270" rx="26" fill="var(--panel)" fill-opacity="0.97" stroke="var(--accent-4)" stroke-width="3"/>
    <rect x="725" y="610" width="470" height="16" rx="8" fill="var(--accent-4)" fill-opacity="0.55"/>
    <rect x="855" y="646" width="260" height="26" rx="13" fill="var(--accent-4)" fill-opacity="0.12"/>
    <circle id="ITEM_4_PAD" cx="803" cy="692" r="46" fill="var(--icon-pad-bg)" opacity="0.95" fill-opacity="0.9" stroke-width="2" stroke="var(--primary-text)"/>
    <circle id="ITEM_4_PAD_INNER" cx="803" cy="692" r="35.88" fill="var(--accent-5)" fill-opacity="0.22"/>
    <circle cx="803" cy="692" r="37" fill="none" stroke="var(--accent-4)" stroke-width="3" stroke-dasharray="6 4"/>
    <g id="ITEM_4_ICON" transform="translate(769, 658)" data-icon-size="68" stroke-dasharray="6 4">
      <g transform="translate(-7.005714285714289,-7.005714285714289) scale(2.562857142857143)">
        <path d="M26.3174 2H5.68263C3.65117 2 2 3.65119 2 5.68264V26.3174C2 28.3488 3.65117 30 5.68263 30H7L7.49023 29.3008L7.98047 30H9.03906L9.52734 29.3008L10.0156 30H15L20.4266 28.0049L26.0533 30H26.3174C28.3488 30 30 28.3488 30 26.3174V5.68264C30 3.65119 28.3588 2 26.3174 2Z" fill="#321B41"/>
        <path d="M20.515 15C23.5608 15 26.03 12.5309 26.03 9.485C26.03 6.43915 23.5608 3.97 20.515 3.97C17.4692 3.97 15 6.43915 15 9.485C15 12.5309 17.4692 15 20.515 15Z" fill="#FFDEA7"/>
        <path d="M26.0784 22.52H15V30H26.0784V22.52Z" fill="#E19747"/>
        <path d="M22.21 15.38C22.21 15.6403 22.1497 15.8866 22.0423 16.1056C22.7893 16.2632 23.3499 16.9261 23.3499 17.72C23.3499 18.0566 23.2492 18.3696 23.0762 18.6306C23.0907 18.6302 23.1053 18.63 23.12 18.63C24.0312 18.63 24.77 19.3687 24.77 20.28C24.77 21.1913 24.0312 21.93 23.12 21.93C22.6035 21.93 22.1425 21.6927 21.84 21.3213C21.5374 21.6927 21.0764 21.93 20.56 21.93C20.0435 21.93 19.5825 21.6927 19.28 21.3213C18.9774 21.6927 18.5164 21.93 18 21.93C17.0887 21.93 16.35 21.1913 16.35 20.28C16.35 19.4005 17.038 18.6818 17.9052 18.6327C17.7313 18.3713 17.63 18.0575 17.63 17.72C17.63 16.8809 18.2564 16.188 19.0671 16.0836C18.9663 15.8702 18.91 15.6317 18.91 15.38C18.91 14.4687 19.6487 13.73 20.56 13.73C21.4712 13.73 22.21 14.4687 22.21 15.38Z" fill="#F4F4F4"/>
        <path d="M20.3337 18.6454C20.1546 18.3815 20.05 18.063 20.05 17.72C20.05 17.2868 20.2169 16.8926 20.49 16.5982C20.1886 16.2733 19.7581 16.07 19.28 16.07C18.3687 16.07 17.63 16.8087 17.63 17.72C17.63 18.0575 17.7313 18.3713 17.9052 18.6327C17.9366 18.6309 17.9682 18.63 18 18.63C18.5164 18.63 18.9775 18.8673 19.28 19.2387C19.0487 19.5227 18.91 19.8852 18.91 20.28C18.91 21.1913 19.6487 21.93 20.56 21.93C21.0764 21.93 21.5374 21.6927 21.84 21.3213C21.6087 21.0373 21.47 20.6748 21.47 20.28C21.47 19.8852 21.6087 19.5227 21.84 19.2387C21.5374 18.8673 21.0764 18.63 20.56 18.63C20.4832 18.63 20.4077 18.6352 20.3337 18.6454Z" fill="#D3D3D3"/>
        <path d="M25.8723 24H15.1281C14.5075 24 14.0004 23.3256 14.0004 22.5C14.0004 21.6744 14.5075 21 15.1281 21H25.8723C26.4929 21 27 21.6744 27 22.5C27 23.3256 26.4929 24 25.8723 24Z" fill="#7D4533"/>
        <path d="M20.56 27.34C21.1896 27.34 21.7 26.8296 21.7 26.2C21.7 25.5704 21.1896 25.06 20.56 25.06C19.9304 25.06 19.42 25.5704 19.42 26.2C19.42 26.8296 19.9304 27.34 20.56 27.34Z" fill="#D3883E"/>
        <path d="M4 14.1V25.78C4 26.7 4.74 27.44 5.66 27.44V15.76C5.66 14.84 4.92 14.1 4 14.1Z" fill="#44911B"/>
        <path d="M6.98987 13.69V30H7.98987V13.69H6.98987Z" fill="#86D72F"/>
        <path d="M9.02209 22.53V30H10.0221V22.53H9.02209Z" fill="#86D72F"/>
        <path d="M10.7229 4H14.7029C15.0829 4 15.3929 4.33001 15.3629 4.71001C15.3229 5.05001 15.0229 5.3 14.6829 5.3H10.1429C9.13288 5.36 9.20289 6.88 10.2129 6.88H12.7929C13.1729 6.88 13.4829 7.21001 13.4429 7.60001C13.4029 7.94001 13.1029 8.19 12.7629 8.19H8.93289C8.49289 8.19 8.13287 8.55001 8.13287 8.99001C8.13287 9.43001 8.49289 9.79001 8.93289 9.79001H10.6729C11.0529 9.79001 11.3629 10.12 11.3229 10.51C11.2829 10.85 10.9829 11.1 10.6429 11.1H8.9129C8.4829 11.1 8.13287 11.45 8.13287 11.88V14.38C8.13287 14.76 7.8029 15.07 7.4129 15.03C7.0729 14.99 6.82288 14.69 6.82288 14.35V7.90001C6.82288 5.75001 8.5629 4 10.7229 4Z" fill="#FCD53F"/>
        <path d="M12.7921 14.02H14.8021C15.1821 14.02 15.4821 14.34 15.4621 14.73C15.4221 15.07 15.1221 15.32 14.7821 15.32H12.2121C11.2021 15.38 11.2721 16.9 12.2821 16.9H13.5021C13.8821 16.9 14.1921 17.23 14.1521 17.62C14.1121 17.96 13.8121 18.21 13.4721 18.21H11.0021C10.5621 18.21 10.2021 18.57 10.2021 19.01C10.2021 19.45 10.5621 19.81 11.0021 19.81H12.5921C12.9721 19.81 13.2821 20.14 13.2421 20.53C13.2021 20.87 12.9021 21.12 12.5621 21.12H10.9821C10.5521 21.12 10.2021 21.47 10.2021 21.9V24.4C10.2021 24.78 9.87212 25.09 9.48212 25.05C9.14212 25.01 8.89212 24.71 8.89212 24.37V17.92C8.89212 15.77 10.6321 14.02 12.7921 14.02Z" fill="#FCD53F"/>
      </g>
    </g>
    <rect id="ITEM_4_TEXT_BG" x="843.0" y="690.0" width="326.0" height="186.0" rx="22" fill="var(--panel)" fill-opacity="0.94" stroke="var(--primary-text)" stroke-opacity="0.12" stroke-width="1.5"/>
    <rect id="COMPARISON_COLUMNS_ART_PANEL_SHEEN_4" x="843.0" y="690.0" width="326.0" height="186.0" rx="16" fill="var(--accent-5)" opacity="0.82" fill-opacity="1.0"/>
    <text id="ITEM_4_HEAD" x="1006.0" y="706.0" text-anchor="middle" font-size="28" font-weight="800" fill="var(--primary-text)" data-bg-id="ITEM_4_TEXT_BG" fill-opacity="1.0" style="font-size: 30px; font-family: Inter, Segoe UI, Kalam, Roboto, Helvetica, Arial, sans-serif; font-weight: 700; letter-spacing:-0.4px;" data-final-font-size="30">
      <tspan x="1006.0" dy="38.01px">Rural Viewing</tspan>
    </text>
    <rect id="ITEM_4_HEAD_FRAME" x="871" y="706" width="270" height="48" fill="none"/>
    <text id="ITEM_4_BODY" x="1006.0" y="754.0" text-anchor="middle" font-size="18" fill="var(--primary-text)" data-bg-id="ITEM_4_TEXT_BG" style="font-size: 26px; font-family: Inter, Segoe UI, Kalam, Roboto, Helvetica, Arial, sans-serif; font-weight: 400;" data-final-font-size="26">
      <tspan x="1006.0" dy="37.61px">Mountain areas alter</tspan>
      <tspan x="1006.0" dy="29.90px">perception</tspan>
    </text>
    <rect id="ITEM_4_BODY_FRAME" x="861" y="754" width="290" height="116" fill="none"/>
  </g>
  <g filter="url(#svg282da2ea-soft-shadow)">
    <rect id="ITEM_5_BG" x="1300" y="610" width="470" height="270" rx="26" fill="var(--panel)" fill-opacity="0.97" stroke="var(--accent-5)" stroke-width="3"/>
    <rect x="1300" y="610" width="470" height="16" rx="8" fill="var(--accent-5)" fill-opacity="0.55"/>
    <rect x="1430" y="646" width="260" height="26" rx="13" fill="var(--accent-5)" fill-opacity="0.12"/>
    <circle id="ITEM_5_PAD" cx="1378" cy="692" r="46" fill="var(--icon-pad-bg)" opacity="0.95" fill-opacity="0.9" stroke-width="2" stroke="var(--primary-text)"/>
    <circle id="ITEM_5_PAD_INNER" cx="1378" cy="692" r="35.88" fill="var(--accent-6)" fill-opacity="0.22"/>
    <circle cx="1378" cy="692" r="37" fill="none" stroke="var(--accent-5)" stroke-width="3" stroke-dasharray="6 4"/>
    <g id="ITEM_5_ICON" transform="translate(1344, 658)" data-icon-size="68" stroke-dasharray="6 4">
      <g transform="translate(-4.920677966101698,-4.920677966101698) scale(3.243389830508475)" vector-effect="non-scaling-stroke" stroke-width="2.53" stroke-linecap="round" stroke-linejoin="round" stroke-opacity="1.0">
        <path d="M15 14c.2-1 .7-1.7 1.5-2.5 1-.9 1.5-2.2 1.5-3.5A6 6 0 0 0 6 8c0 1 .2 2.2 1.5 3.5.7.7 1.3 1.5 1.5 2.5" vector-effect="non-scaling-stroke" fill="none" stroke="#f1f5f9"/>
        <path d="M9 18h6" vector-effect="non-scaling-stroke" fill="none" stroke="#f1f5f9"/>
        <path d="M10 22h4" vector-effect="non-scaling-stroke" fill="none" stroke="#f1f5f9"/>
      </g>
    </g>
    <rect id="ITEM_5_TEXT_BG" x="1418.0" y="690.0" width="326.0" height="186.0" rx="22" fill="var(--panel)" fill-opacity="0.94" stroke="var(--primary-text)" stroke-opacity="0.12" stroke-width="1.5"/>
    <rect id="COMPARISON_COLUMNS_ART_PANEL_SHEEN_5" x="1418.0" y="690.0" width="326.0" height="186.0" rx="16" fill="var(--accent-6)" opacity="0.82" fill-opacity="1.0"/>
    <text id="ITEM_5_HEAD" x="1581.0" y="706.0" text-anchor="middle" font-size="28" font-weight="800" fill="var(--primary-text)" data-bg-id="ITEM_5_TEXT_BG" fill-opacity="1.0" style="font-size: 30px; font-family: Inter, Segoe UI, Kalam, Roboto, Helvetica, Arial, sans-serif; font-weight: 700; letter-spacing:-0.4px;" data-final-font-size="30">
      <tspan x="1581.0" dy="38.01px">Misidentification</tspan>
    </text>
    <rect id="ITEM_5_HEAD_FRAME" x="1446" y="706" width="270" height="48" fill="none"/>
    <text id="ITEM_5_BODY" x="1581.0" y="754.0" text-anchor="middle" font-size="18" fill="var(--primary-text)" data-bg-id="ITEM_5_TEXT_BG" style="font-size: 26px; font-family: Inter, Segoe UI, Kalam, Roboto, Helvetica, Arial, sans-serif; font-weight: 400;" data-final-font-size="26">
      <tspan x="1581.0" dy="37.61px">Limited info generates</tspan>
      <tspan x="1581.0" dy="29.90px">UFO ideas</tspan>
    </text>
    <rect id="ITEM_5_BODY_FRAME" x="1436" y="754" width="290" height="116" fill="none"/>
  </g>
</svg>
