<?xml version='1.0' encoding='utf-8'?>
<svg xmlns="http://www.w3.org/2000/svg" width="1920" height="1080" viewBox="0 0 1920 1080" data-theme="dark">
  <style>
        @font-face {
            font-family: 'Inter';
            src: url('assets/fonts/Inter-Regular.ttf') format('truetype');
            font-weight: 400;
            font-style: normal;
            font-display: swap;
        }
        @font-face {
            font-family: 'Inter';
            src: url('assets/fonts/Inter-Bold.ttf') format('truetype');
            font-weight: 600;
            font-style: normal;
            font-display: swap;
        }
        @font-face {
            font-family: 'Inter';
            src: url('assets/fonts/Inter-Bold.ttf') format('truetype');
            font-weight: 800;
            font-style: normal;
            font-display: swap;
        }
        
:root {
    --background: #0f172a;
    --panel: #1e293b;
    --primary-text: #f1f5f9;
    --muted-text: #94a3b8;
    --inverse-text: #0f172a;
    --border: #334155;
    --shadow-color: #000000;
    --icon-pad-bg: #1e293b;
    --art-glow: #7dd3fc;
    --art-glow-opacity: 0.18;
    --art-sheen: #ffffff;
    --art-sheen-opacity: 0.18;
    --art-shadow: #000000;
    --art-shadow-opacity: 0.28;
    --art-muted-line: #64748b;
    --art-panel-tint: #1e293b;
    --font-family: 'Inter', 'Segoe UI', 'Kalam', Roboto, Helvetica, Arial, sans-serif;
    --radius-xl: 16px;
    --font-family-headline: 'Inter', 'Segoe UI', 'Kalam', Roboto, Helvetica, Arial, sans-serif;
    --font-family-body: 'Inter', 'Segoe UI', 'Kalam', Roboto, Helvetica, Arial, sans-serif;
    --font-heading: 'Inter', 'Segoe UI', 'Kalam', Roboto, Helvetica, Arial, sans-serif;
    --font-body: 'Inter', 'Segoe UI', 'Kalam', Roboto, Helvetica, Arial, sans-serif;
    --font-size-h1: 56px;
    --font-size-h2: 40px;
    --font-size-h3: 28px;
    --font-size-body: 24px;
    --font-size-caption: 18px;
    --secondary-text: var(--muted-text);
    --panel-border: var(--border);
    --font-weight-normal: 400;
    --font-weight-medium: 500;
    --font-weight-semibold: 600;
    --font-weight-bold: 700;
    --spacing-gutter-pct: 0.07;
    --spacing-top-pct: 0.15;
    --spacing-bottom-pct: 0.07;
    --spacing-title-y-pct: 0.055;
    --accent-1: #22d3ee;
    --accent-2: #f472b6;
    --accent-3: #facc15;
    --accent-4: #a3e635;
    --accent-5: #fb923c;
    --accent-6: #c084fc;
}
:root[data-theme="dark"] {
    --background: #0f172a;
    --panel: #1e293b;
    --primary-text: #f1f5f9;
    --muted-text: #94a3b8;
    --inverse-text: #0f172a;
    --border: #334155;
    --shadow-color: #000000;
    --icon-pad-bg: #1e293b;
    --art-glow: #7dd3fc;
    --art-glow-opacity: 0.18;
    --art-sheen: #ffffff;
    --art-sheen-opacity: 0.18;
    --art-shadow: #000000;
    --art-shadow-opacity: 0.28;
    --art-muted-line: #64748b;
    --art-panel-tint: #1e293b;
    --accent-1: #22d3ee;
    --accent-2: #f472b6;
    --accent-3: #facc15;
    --accent-4: #a3e635;
    --accent-5: #fb923c;
    --accent-6: #c084fc;
}
:root[data-theme="light"] {
    --background: #f8fafc;
    --panel: #ffffff;
    --primary-text: #0f172a;
    --muted-text: #64748b;
    --inverse-text: #ffffff;
    --border: #e2e8f0;
    --shadow-color: #000000;
    --icon-pad-bg: #1e293b;
    --art-glow: #0891b2;
    --art-glow-opacity: 0.10;
    --art-sheen: #ffffff;
    --art-sheen-opacity: 0.34;
    --art-shadow: #0f172a;
    --art-shadow-opacity: 0.14;
    --art-muted-line: #94a3b8;
    --art-panel-tint: #f1f5f9;
    --accent-1: #0891b2;
    --accent-2: #db2777;
    --accent-3: #ca8a04;
    --accent-4: #65a30d;
    --accent-5: #ea580c;
    --accent-6: #9333ea;
}</style>
  <rect x="0" y="0" width="1.92E+3" height="1.08E+3" fill="#252a34" stroke="none" id="programmatic_background"/>
  <line id="HEADER_DECOR" x1="960.0" x2="1080.0" y1="135.0" y2="135.0" stroke="var(--accent-1)" stroke-width="6" stroke-linecap="round"/>
  <defs>
    <pattern id="svgc32ac4ed-napkin-hatch" patternUnits="userSpaceOnUse" width="12" height="12">
      <path d="M -3 12 L 12 -3 M 0 15 L 15 0" fill="none" stroke="var(--primary-text)" stroke-width="1" stroke-opacity="0.05"/>
    </pattern>
    <filter id="svgc32ac4ed-shadow" x="-30%" y="-30%" width="160%" height="160%">
      <feDropShadow dx="0" dy="2" stdDeviation="3" flood-color="#000000" flood-opacity="0.08"/>
      <feDropShadow dx="0" dy="6" stdDeviation="10" flood-color="#000000" flood-opacity="0.12"/>
    </filter>
    <marker id="svgc32ac4ed-arrowhead" markerWidth="10" markerHeight="10" refX="9" refY="5" orient="auto">
      <path d="M 0 0 L 10 5 L 0 10 Z" fill="var(--accent-1)"/>
    </marker>
    <filter id="svgc32ac4ed-text-glow" x="-20%" y="-20%" width="140%" height="140%">
      <feDropShadow dx="0" dy="0" stdDeviation="2" flood-color="#000000" flood-opacity="0.4"/>
    </filter>
    <radialGradient id="svgc32ac4ed-universal-edge-vignette" cx="50%" cy="50%" r="72%">
      <stop offset="0%" stop-color="var(--background)" stop-opacity="0"/>
      <stop offset="72%" stop-color="var(--background)" stop-opacity="0.12"/>
      <stop offset="100%" stop-color="var(--primary-text)" stop-opacity="0.08"/>
    </radialGradient>
    <linearGradient id="svgc32ac4ed-universal-surface-sheen" x1="0%" y1="0%" x2="100%" y2="100%">
      <stop offset="0%" stop-color="var(--art-sheen)" stop-opacity="var(--art-sheen-opacity)"/>
      <stop offset="46%" stop-color="var(--art-sheen)" stop-opacity="0.035"/>
      <stop offset="100%" stop-color="var(--art-panel-tint)" stop-opacity="0.14"/>
    </linearGradient>
    <radialGradient id="svgc32ac4ed-universal-icon-aura" cx="50%" cy="42%" r="64%">
      <stop offset="0%" stop-color="var(--art-glow)" stop-opacity="var(--art-glow-opacity)"/>
      <stop offset="100%" stop-color="var(--background)" stop-opacity="0"/>
    </radialGradient>
  </defs>
  <rect width="100%" height="100%" fill="var(--background)" id="CANVAS_BG"/>
  <rect width="100%" height="100%" fill="url(#svgc32ac4ed-napkin-hatch)"/>
  <rect id="UNIVERSAL_EDGE_VIGNETTE" width="100%" height="100%" fill="url(#svgc32ac4ed-universal-edge-vignette)" opacity="0.62"/>
  <text id="TITLE" x="960.0" y="59" text-anchor="middle" font-weight="700" font-size="72" fill="#f1f5f9" style="font-size: 60px; font-family: Inter, Segoe UI, Kalam, Roboto, Helvetica, Arial, sans-serif; font-weight: 700; letter-spacing:-1.2px;" data-final-font-size="60">
    <tspan x="960.0" dy="68.00px">AllSky7 Network</tspan>
  </text>
  <rect id="TITLE_FRAME" x="134" y="59" width="1652" height="103" fill="none"/>
  <g id="DIAGRAM_SCALER" transform="translate(28.8, 27.0) scale(0.97)">
    <path d="M 960 360 L 960 450" stroke="var(--muted-text)" stroke-width="3.0" fill="none" opacity="0.52"/>
    <path d="M 160.0 450 L 1760.0 450" stroke="var(--muted-text)" stroke-width="3.0" fill="none" opacity="0.52"/>
    <path d="M 160.0 450 L 160.0 570" stroke="var(--muted-text)" stroke-width="3.0" fill="none" opacity="0.52"/>
    <path d="M 693.3 450 L 693.3 570" stroke="var(--muted-text)" stroke-width="3.0" fill="none" opacity="0.52"/>
    <path d="M 1226.7 450 L 1226.7 570" stroke="var(--muted-text)" stroke-width="3.0" fill="none" opacity="0.52"/>
    <path d="M 1760.0 450 L 1760.0 570" stroke="var(--muted-text)" stroke-width="3.0" fill="none" opacity="0.52"/>
    <g transform="translate(960.0, 270.0)">
      <rect id="ITEM_1_BG" x="-210" y="-90" width="420" height="180" rx="24" fill="var(--panel)" fill-opacity="0.86" stroke="var(--primary-text)" stroke-width="2.6"/>
      <circle id="ITEM_1_PAD" cx="0" cy="40" r="42" fill="var(--icon-pad-bg)" stroke="var(--primary-text)" opacity="0.9" fill-opacity="0.9" stroke-width="2"/>
      <circle id="ITEM_1_PAD_INNER" cx="0" cy="40" r="32.76" fill="var(--accent-5)" fill-opacity="0.22"/>
      <circle cx="0" cy="40" r="33.6" fill="none" stroke="var(--accent-1)" stroke-width="3" stroke-dasharray="6 4"/>
      <g id="ITEM_1_ICON" transform="translate(-36.0, 4.0)" data-icon-size="72">
        <g transform="translate(-1.7851239669421488,-1.7851239669421488) scale(0.1487603305785124)" vector-effect="non-scaling-stroke" fill="#f1f5f9" fill-opacity="1.0" stroke="none">
          <path fill="#f1f5f9" d="M253.813 15.625c-132.32 0-239.782 107.46-239.782 239.78s107.463 239.782 239.782 239.782s239.782-107.46 239.782-239.78S386.132 15.624 253.814 15.624zm0 17.906c122.653 0 221.906 99.223 221.906 221.876c0 30.738-6.26 59.99-17.533 86.594l-42.343-34.72c-49.613 13.98-110.337 9.033-138.906-60.874l-41.97 152.938c-8.837-45.53-23.35-81.28-47.905-115.22c-19.71 13.855-32.352 32.63-39.72 50.97L88.94 237.03c-17.85 27.32-33.77 56.565-45.032 90.47c-7.744-22.6-11.968-46.852-11.968-72.094c0-26.013 4.484-50.973 12.687-74.156c2.752 6.608 9.27 11.25 16.875 11.25c10.093 0 18.28-8.157 18.28-18.25s-8.187-18.28-18.28-18.28c-2.385 0-4.66.48-6.75 1.31c27.537-55.83 77.83-98.368 138.844-115.5a22 22 0 0 0-.844 6.095c0 12.146 9.823 22 21.97 22c12.144 0 22-9.854 22-22c0-4.99-1.67-9.59-4.47-13.28c7.092-.683 14.29-1.064 21.563-1.064zm18.75 27.657a11.65 11.65 0 0 0-11.657 11.657c0 6.443 5.213 11.687 11.656 11.687s11.688-5.243 11.688-11.686c0-6.444-5.244-11.656-11.688-11.656zM198.03 90.22c-6.02.06-12.132.868-18.218 2.5c-38.945 10.434-62.06 50.46-51.625 89.405s50.463 62.06 89.407 51.625c21.712-5.818 38.48-20.85 47.28-39.75a55 55 0 0 1-26.155 15.75c-29.504 7.905-59.846-9.59-67.75-39.094c-7.907-29.504 9.62-59.813 39.124-67.72c10.41-2.788 20.906-2.417 30.5.533c-12.28-8.598-27.116-13.405-42.563-13.25zm155.282.81c-9.408 0-17.03 7.624-17.03 17.032c0 9.41 7.622 17.032 17.03 17.032c9.41 0 17.032-7.623 17.032-17.03c0-9.41-7.623-17.033-17.03-17.033zm-248.937 27.376c-6.443 0-11.656 5.244-11.656 11.688c0 6.443 5.212 11.656 11.655 11.656s11.656-5.213 11.656-11.656s-5.212-11.688-11.655-11.688m275.688 40.813l-.625 29.843l-28.22 9.812l28.22 9.813l.625 29.843l18.03-23.78l28.563 8.625l-17.03-24.5l17.03-24.53L398.094 183l-18.03-23.78zm-72.094 11.593c-6.445 0-11.658 5.212-11.658 11.656c0 6.442 5.213 11.686 11.657 11.686c6.442 0 11.686-5.244 11.686-11.687c0-6.445-5.244-11.657-11.687-11.657zm139 74.75c-6.445 0-11.658 5.244-11.658 11.687s5.213 11.656 11.657 11.656c6.442 0 11.686-5.213 11.686-11.656s-5.244-11.688-11.687-11.688zm-127.314 3.5c-6.443 0-11.656 5.244-11.656 11.687s5.213 11.656 11.656 11.656a11.65 11.65 0 0 0 11.656-11.656c0-6.443-5.212-11.688-11.656-11.688z" vector-effect="non-scaling-stroke" stroke="none"/>
        </g>
      </g>
      <text id="ITEM_1_HEAD" x="0.0" y="-80.0" text-anchor="middle" font-weight="bold" font-size="36" fill="var(--accent-5)" data-bg-id="ITEM_1_BG" fill-opacity="1.0" stroke="none" style="font-size: 30px; font-family: Inter, Segoe UI, Kalam, Roboto, Helvetica, Arial, sans-serif; font-weight: 700; letter-spacing:-0.4px;" data-final-font-size="30">
        <tspan x="0.0" dy="34.80px">Dark Sky</tspan>
      </text>
      <rect id="ITEM_1_HEAD_FRAME" x="-180" y="-80" width="360" height="45" fill="none"/>
    </g>
    <g transform="translate(160.0, 720)">
      <rect id="ITEM_2_BG" x="-180.0" y="-150" width="360" height="390" rx="24" fill="var(--accent-6)" fill-opacity="0.48" stroke="var(--accent-1)" stroke-width="2.6"/>
      <text id="ITEM_2_HEAD" x="0.0" y="8.0" text-anchor="middle" font-weight="bold" font-size="30" fill="var(--primary-text)" data-bg-id="ITEM_2_BG" fill-opacity="1.0" stroke="none" style="font-size: 30px; font-family: Inter, Segoe UI, Kalam, Roboto, Helvetica, Arial, sans-serif; font-weight: 700; letter-spacing:-0.4px;" data-final-font-size="30">
        <tspan x="0.0" dy="49.55px">Coastal View</tspan>
      </text>
      <rect id="ITEM_2_HEAD_FRAME" x="-150.0" y="8" width="300" height="70" fill="none"/>
      <text id="ITEM_2_BODY" x="0.0" y="78.0" text-anchor="middle" font-size="23" fill="var(--primary-text)" opacity="0.94" data-bg-id="ITEM_2_BG" style="font-size: 26px; font-family: Inter, Segoe UI, Kalam, Roboto, Helvetica, Arial, sans-serif; font-weight: 400;" data-final-font-size="26">
        <tspan x="0.0" dy="46.13px">Horizons make low-angle</tspan>
        <tspan x="0.0" dy="29.90px">meteors easier to see</tspan>
      </text>
      <rect id="ITEM_2_BODY_FRAME" x="-174" y="78" width="348" height="158" fill="none"/>
      <circle id="ITEM_2_PAD" cx="0" cy="-45.0" r="62" fill="var(--icon-pad-bg)" stroke="var(--background)" stroke-width="2" stroke-opacity="0.65" opacity="0.94" fill-opacity="0.9"/>
      <circle id="ITEM_2_PAD_INNER" cx="0" cy="-45.0" r="48.36" fill="var(--accent-6)" fill-opacity="0.22"/>
      <circle cx="0" cy="-45.0" r="49.6" fill="none" stroke="var(--accent-1)" stroke-width="3" stroke-dasharray="6 4"/>
      <g id="ITEM_2_ICON" transform="translate(-48.0, -93.0)" data-icon-size="96" stroke-dasharray="6 4">
        <g transform="translate(-23.97767441860465,-25.66465116279069) scale(4.798511627906977)" vector-effect="non-scaling-stroke" fill="#f1f5f9" fill-opacity="1.0" stroke="none">
          <path fill="#f1f5f9" d="M4.93 20.97c0-.26.09-.47.28-.62c.14-.16.35-.23.63-.23h18.34c.25 0 .46.08.64.24s.26.37.26.61s-.09.45-.27.62s-.39.27-.63.27H5.84a.87.87 0 0 1-.64-.27a.83.83 0 0 1-.27-.62m1.97-8.29c0-.26.08-.47.23-.63c.17-.18.38-.26.65-.26c.23 0 .43.09.6.26l1.5 1.5q.27.27.27.63c0 .23-.09.44-.27.62q-.225.27-.6.27c-.375 0-.47-.09-.64-.27l-1.5-1.5c-.16-.15-.24-.35-.24-.62m2.93 5.59c-.04.16.01.23.15.23h1.49c.07 0 .14-.06.22-.17c.3-.64.74-1.14 1.33-1.52s1.24-.56 1.96-.56c.73 0 1.39.19 1.99.56s1.05.88 1.35 1.52c.08.11.16.17.23.17h1.48c.13 0 .18-.08.15-.23a5.23 5.23 0 0 0-1.95-2.76c-.96-.71-2.04-1.06-3.25-1.06c-1.2 0-2.28.35-3.23 1.06c-.93.71-1.58 1.63-1.92 2.76m4.31-6.46V9.68c0-.25.08-.46.24-.64s.37-.26.61-.26a.874.874 0 0 1 .88.9v2.14a.85.85 0 0 1-.88.89c-.24 0-.45-.09-.61-.26s-.24-.39-.24-.64m5.72 2.37c0-.24.08-.45.25-.63l1.54-1.5c.16-.18.36-.26.62-.26c.24 0 .44.08.6.25s.23.38.23.64s-.08.47-.23.62l-1.48 1.5c-.17.17-.36.26-.56.28c-.23.02-.44-.06-.65-.24s-.32-.41-.32-.66" vector-effect="non-scaling-stroke" stroke="none"/>
        </g>
      </g>
    </g>
    <g transform="translate(693.3, 720)">
      <rect id="ITEM_3_BG" x="-180.0" y="-150" width="360" height="390" rx="24" fill="var(--accent-1)" fill-opacity="0.48" stroke="var(--accent-2)" stroke-width="2.6"/>
      <text id="ITEM_3_HEAD" x="0.0" y="8.0" text-anchor="middle" font-weight="bold" font-size="30" fill="var(--primary-text)" data-bg-id="ITEM_3_BG" fill-opacity="1.0" stroke="none" style="font-size: 30px; font-family: Inter, Segoe UI, Kalam, Roboto, Helvetica, Arial, sans-serif; font-weight: 700; letter-spacing:-0.4px;" data-final-font-size="30">
        <tspan x="0.0" dy="49.55px">Tourist Lens</tspan>
      </text>
      <rect id="ITEM_3_HEAD_FRAME" x="-150.0" y="8" width="300" height="70" fill="none"/>
      <text id="ITEM_3_BODY" x="0.0" y="78.0" text-anchor="middle" font-size="23" fill="var(--primary-text)" opacity="0.94" data-bg-id="ITEM_3_BG" style="font-size: 26px; font-family: Inter, Segoe UI, Kalam, Roboto, Helvetica, Arial, sans-serif; font-weight: 400;" data-final-font-size="26">
        <tspan x="0.0" dy="46.13px">Mobile cameras point at sky</tspan>
        <tspan x="0.0" dy="29.90px">during summer</tspan>
      </text>
      <rect id="ITEM_3_BODY_FRAME" x="-174" y="78" width="348" height="158" fill="none"/>
      <circle id="ITEM_3_PAD" cx="0" cy="-45.0" r="62" fill="var(--icon-pad-bg)" stroke="var(--background)" stroke-width="2" stroke-opacity="0.65" opacity="0.94" fill-opacity="0.9"/>
      <circle id="ITEM_3_PAD_INNER" cx="0" cy="-45.0" r="48.36" fill="var(--accent-1)" fill-opacity="0.22"/>
      <circle cx="0" cy="-45.0" r="49.6" fill="none" stroke="var(--accent-2)" stroke-width="3" stroke-dasharray="6 4"/>
      <g id="ITEM_3_ICON" transform="translate(-48.0, -93.0)" data-icon-size="96" stroke-dasharray="6 4">
        <g transform="translate(-4.458305084745767,-4.45830508474577) scale(4.371525423728814)" vector-effect="non-scaling-stroke" stroke-width="2.86" stroke-linecap="round" stroke-linejoin="round" stroke-opacity="1.0">
          <rect width="14" height="20" x="5" y="2" rx="2" ry="2" vector-effect="non-scaling-stroke" fill="none" stroke="#f1f5f9"/>
          <path d="M12 18h.01" vector-effect="non-scaling-stroke" fill="none" stroke="#f1f5f9"/>
        </g>
      </g>
    </g>
    <g transform="translate(1226.7, 720)">
      <rect id="ITEM_4_BG" x="-180.0" y="-150" width="360" height="390" rx="24" fill="var(--accent-2)" fill-opacity="0.48" stroke="var(--accent-3)" stroke-width="2.6"/>
      <text id="ITEM_4_HEAD" x="0.0" y="8.0" text-anchor="middle" font-weight="bold" font-size="30" fill="var(--primary-text)" data-bg-id="ITEM_4_BG" fill-opacity="1.0" stroke="none" style="font-size: 30px; font-family: Inter, Segoe UI, Kalam, Roboto, Helvetica, Arial, sans-serif; font-weight: 700; letter-spacing:-0.4px;" data-final-font-size="30">
        <tspan x="0.0" dy="49.55px">Ferry Route</tspan>
      </text>
      <rect id="ITEM_4_HEAD_FRAME" x="-150.0" y="8" width="300" height="70" fill="none"/>
      <text id="ITEM_4_BODY" x="0.0" y="78.0" text-anchor="middle" font-size="23" fill="var(--primary-text)" opacity="0.94" data-bg-id="ITEM_4_BG" style="font-size: 26px; font-family: Inter, Segoe UI, Kalam, Roboto, Helvetica, Arial, sans-serif; font-weight: 400;" data-final-font-size="26">
        <tspan x="0.0" dy="46.13px">Dense traffic increases</tspan>
        <tspan x="0.0" dy="29.90px">witness numbers rapidly</tspan>
      </text>
      <rect id="ITEM_4_BODY_FRAME" x="-174" y="78" width="348" height="158" fill="none"/>
      <circle id="ITEM_4_PAD" cx="0" cy="-45.0" r="62" fill="var(--icon-pad-bg)" stroke="var(--background)" stroke-width="2" stroke-opacity="0.65" opacity="0.94" fill-opacity="0.9"/>
      <circle id="ITEM_4_PAD_INNER" cx="0" cy="-45.0" r="48.36" fill="var(--accent-2)" fill-opacity="0.22"/>
      <circle cx="0" cy="-45.0" r="49.6" fill="none" stroke="var(--accent-3)" stroke-width="3" stroke-dasharray="6 4"/>
      <g id="ITEM_4_ICON" transform="translate(-48.0, -93.0)" data-icon-size="96" stroke-dasharray="6 4">
        <g transform="translate(-7.207433628318584,-10.203185840707969) scale(3.423716814159292)">
          <path d="M14 7L16.8536 4.14645C16.9473 4.05268 17.0745 4 17.2071 4H19.7664C19.8663 4 19.9258 4.11127 19.8704 4.19434L18 7L17.1113 8H20V7C20 6.44772 20.4477 6 21 6H30V8L29.5 9.5L30 11V12L29.0078 12.9883L30 14V19L27.8625 21.7771L30 25V28.5H6C5 28.5 5 26.5 5 26C5 25.2821 4.5 25 4.5 25L8 19L10 17L12 15.9922V15C12.4 14.6 12.5 14.1667 12.5 14L13.1562 13.4922L12.5 13L11.1022 11.0031L11.5269 10.0046L9.70433 9.00618L9 8H14.8887L14 7Z" fill="#CDC4D6"/>
          <path d="M30.01 27C28.26 27 28.25 28.12 26.5 28.12C24.75 28.12 24.75 27 22.99 27C21.24 27 21.24 28.12 19.49 28.12C17.74 28.12 17.74 27 15.99 27C14.24 27 14.24 28.12 12.49 28.12C10.74 28.12 10.74 27 8.98999 27C7.23999 27 7.24 28.12 5.5 28.12C3.75 28.12 3.75 27 2 27V30H30.01V27Z" fill="#5092FF"/>
          <path d="M21.0825 8.5C21.0825 8.22386 21.3064 8 21.5825 8H30.0002V11H21.5825C21.3064 11 21.0825 10.7761 21.0825 10.5V8.5Z" fill="#00A6ED"/>
          <path d="M11.9927 15L9.99269 17H12.9927C13.545 17 13.9927 16.5523 13.9927 16C13.9927 15.4477 13.545 15 12.9927 15H11.9927Z" fill="#00A6ED"/>
          <path d="M16.0825 17C16.6348 17 17.0825 16.5523 17.0825 16C17.0825 15.4477 16.6348 15 16.0825 15C15.5303 15 15.0825 15.4477 15.0825 16C15.0825 16.5523 15.5303 17 16.0825 17Z" fill="#00A6ED"/>
          <path d="M20.0825 16C20.0825 16.5523 19.6348 17 19.0825 17C18.5302 17 18.0825 16.5523 18.0825 16C18.0825 15.4477 18.5302 15 19.0825 15C19.6348 15 20.0825 15.4477 20.0825 16Z" fill="#00A6ED"/>
          <path d="M22.0825 17C22.6348 17 23.0825 16.5523 23.0825 16C23.0825 15.4477 22.6348 15 22.0825 15C21.5302 15 21.0825 15.4477 21.0825 16C21.0825 16.5523 21.5302 17 22.0825 17Z" fill="#00A6ED"/>
          <path d="M26.0825 16C26.0825 16.5523 25.6348 17 25.0825 17C24.5302 17 24.0825 16.5523 24.0825 16C24.0825 15.4477 24.5302 15 25.0825 15C25.6348 15 26.0825 15.4477 26.0825 16Z" fill="#00A6ED"/>
          <path d="M28.0825 17C28.6348 17 29.0825 16.5523 29.0825 16C29.0825 15.4477 28.6348 15 28.0825 15C27.5303 15 27.0825 15.4477 27.0825 16C27.0825 16.5523 27.5303 17 28.0825 17Z" fill="#00A6ED"/>
          <path d="M9.70508 9L11.1138 11H14.0122C14.5645 11 15.0122 10.5523 15.0122 10C15.0122 9.44772 14.5645 9 14.0122 9H9.70508Z" fill="#00A6ED"/>
          <path d="M15.5 12C15.2239 12 15 12.2239 15 12.5V13L22.5 13.5203L30 13V12H15.5Z" fill="#433B6B"/>
          <path d="M5.5 19C5.22386 19 5 19.2239 5 19.5V20L17 20.5L30 20V19H5.5Z" fill="#433B6B"/>
          <path d="M8 7.5C8 7.22386 8.22386 7 8.5 7H20V8H8.5C8.22386 8 8 7.77614 8 7.5Z" fill="#0084CE"/>
          <path d="M11 13.5C11 13.2239 11.2239 13 11.5 13H30V14H11.5C11.2239 14 11 13.7761 11 13.5Z" fill="#0084CE"/>
          <path d="M3 20C2.44772 20 2 20.4476 2 20.9999V23C2 25 4.5 25 4.5 25H30V20H3Z" fill="#0084CE"/>
          <rect x="19" y="8" width="1" height="4" fill="#B4ACBC"/>
        </g>
      </g>
    </g>
    <g transform="translate(1760.0, 720)">
      <rect id="ITEM_5_BG" x="-180.0" y="-150" width="360" height="390" rx="24" fill="var(--accent-3)" fill-opacity="0.48" stroke="var(--accent-4)" stroke-width="2.6"/>
      <text id="ITEM_5_HEAD" x="0.0" y="8.0" text-anchor="middle" font-weight="bold" font-size="30" fill="var(--primary-text)" data-bg-id="ITEM_5_BG" fill-opacity="1.0" stroke="none" style="font-size: 30px; font-family: Inter, Segoe UI, Kalam, Roboto, Helvetica, Arial, sans-serif; font-weight: 700; letter-spacing:-0.4px;" data-final-font-size="30">
        <tspan x="0.0" dy="49.55px">Data Exchange</tspan>
      </text>
      <rect id="ITEM_5_HEAD_FRAME" x="-150.0" y="8" width="300" height="70" fill="none"/>
      <text id="ITEM_5_BODY" x="0.0" y="78.0" text-anchor="middle" font-size="23" fill="var(--primary-text)" opacity="0.94" data-bg-id="ITEM_5_BG" style="font-size: 26px; font-family: Inter, Segoe UI, Kalam, Roboto, Helvetica, Arial, sans-serif; font-weight: 400;" data-final-font-size="26">
        <tspan x="0.0" dy="46.13px">Stations share data across</tspan>
        <tspan x="0.0" dy="29.90px">European borders</tspan>
      </text>
      <rect id="ITEM_5_BODY_FRAME" x="-174" y="78" width="348" height="158" fill="none"/>
      <circle id="ITEM_5_PAD" cx="0" cy="-45.0" r="62" fill="var(--icon-pad-bg)" stroke="var(--background)" stroke-width="2" stroke-opacity="0.65" opacity="0.94" fill-opacity="0.9"/>
      <circle id="ITEM_5_PAD_INNER" cx="0" cy="-45.0" r="48.36" fill="var(--accent-3)" fill-opacity="0.22"/>
      <circle cx="0" cy="-45.0" r="49.6" fill="none" stroke="var(--accent-4)" stroke-width="3" stroke-dasharray="6 4"/>
      <g id="ITEM_5_ICON" transform="translate(-48.0, -93.0)" data-icon-size="96" stroke-dasharray="6 4">
        <g transform="translate(-9.315555555555555,-9.315555555555555) scale(4.776296296296296)" vector-effect="non-scaling-stroke" stroke-width="2.86" stroke-linecap="round" stroke-linejoin="round" stroke-opacity="1.0">
          <path d="M5 18m-2 0a2 2 0 1 0 4 0a2 2 0 1 0 -4 0" vector-effect="non-scaling-stroke" fill="none" stroke="#f1f5f9"/>
          <path d="M19 6m-2 0a2 2 0 1 0 4 0a2 2 0 1 0 -4 0" vector-effect="non-scaling-stroke" fill="none" stroke="#f1f5f9"/>
          <path d="M19 8v5a5 5 0 0 1 -5 5h-3l3 -3m0 6l-3 -3" vector-effect="non-scaling-stroke" fill="none" stroke="#f1f5f9"/>
          <path d="M5 16v-5a5 5 0 0 1 5 -5h3l-3 -3m0 6l3 -3" vector-effect="non-scaling-stroke" fill="none" stroke="#f1f5f9"/>
        </g>
      </g>
    </g>
  </g>
</svg>
