<?xml version='1.0' encoding='utf-8'?>
<svg xmlns="http://www.w3.org/2000/svg" width="1920" height="1080" viewBox="0 0 1920 1080" data-theme="light">
  <style>
        @font-face {
            font-family: 'Inter';
            src: url('assets/fonts/Inter-Regular.ttf') format('truetype');
            font-weight: 400;
            font-style: normal;
            font-display: swap;
        }
        @font-face {
            font-family: 'Inter';
            src: url('assets/fonts/Inter-Bold.ttf') format('truetype');
            font-weight: 600;
            font-style: normal;
            font-display: swap;
        }
        @font-face {
            font-family: 'Inter';
            src: url('assets/fonts/Inter-Bold.ttf') format('truetype');
            font-weight: 800;
            font-style: normal;
            font-display: swap;
        }
        
:root {
    --background: #f8fafc;
    --panel: #ffffff;
    --primary-text: #0f172a;
    --muted-text: #64748b;
    --inverse-text: #ffffff;
    --border: #e2e8f0;
    --shadow-color: #000000;
    --icon-pad-bg: #1e293b;
    --art-glow: #0891b2;
    --art-glow-opacity: 0.10;
    --art-sheen: #ffffff;
    --art-sheen-opacity: 0.34;
    --art-shadow: #0f172a;
    --art-shadow-opacity: 0.14;
    --art-muted-line: #94a3b8;
    --art-panel-tint: #f1f5f9;
    --font-family: 'Inter', 'Segoe UI', 'Kalam', Roboto, Helvetica, Arial, sans-serif;
    --radius-xl: 16px;
    --font-family-headline: 'Inter', 'Segoe UI', 'Kalam', Roboto, Helvetica, Arial, sans-serif;
    --font-family-body: 'Inter', 'Segoe UI', 'Kalam', Roboto, Helvetica, Arial, sans-serif;
    --font-heading: 'Inter', 'Segoe UI', 'Kalam', Roboto, Helvetica, Arial, sans-serif;
    --font-body: 'Inter', 'Segoe UI', 'Kalam', Roboto, Helvetica, Arial, sans-serif;
    --font-size-h1: 56px;
    --font-size-h2: 40px;
    --font-size-h3: 28px;
    --font-size-body: 24px;
    --font-size-caption: 18px;
    --secondary-text: var(--muted-text);
    --panel-border: var(--border);
    --font-weight-normal: 400;
    --font-weight-medium: 500;
    --font-weight-semibold: 600;
    --font-weight-bold: 700;
    --spacing-gutter-pct: 0.07;
    --spacing-top-pct: 0.15;
    --spacing-bottom-pct: 0.07;
    --spacing-title-y-pct: 0.055;
    --accent-1: #3b82f6;
    --accent-2: #22c55e;
    --accent-3: #f59e0b;
    --accent-4: #ec4899;
    --accent-5: #8b5cf6;
    --accent-6: #06b6d4;
}
:root[data-theme="dark"] {
    --background: #0f172a;
    --panel: #1e293b;
    --primary-text: #f1f5f9;
    --muted-text: #94a3b8;
    --inverse-text: #0f172a;
    --border: #334155;
    --shadow-color: #000000;
    --icon-pad-bg: #1e293b;
    --art-glow: #7dd3fc;
    --art-glow-opacity: 0.18;
    --art-sheen: #ffffff;
    --art-sheen-opacity: 0.18;
    --art-shadow: #000000;
    --art-shadow-opacity: 0.28;
    --art-muted-line: #64748b;
    --art-panel-tint: #1e293b;
    --accent-1: #93c5fd;
    --accent-2: #86efac;
    --accent-3: #fcd34d;
    --accent-4: #f9a8d4;
    --accent-5: #c4b5fd;
    --accent-6: #a5f3fc;
}
:root[data-theme="light"] {
    --background: #f8fafc;
    --panel: #ffffff;
    --primary-text: #0f172a;
    --muted-text: #64748b;
    --inverse-text: #ffffff;
    --border: #e2e8f0;
    --shadow-color: #000000;
    --icon-pad-bg: #1e293b;
    --art-glow: #0891b2;
    --art-glow-opacity: 0.10;
    --art-sheen: #ffffff;
    --art-sheen-opacity: 0.34;
    --art-shadow: #0f172a;
    --art-shadow-opacity: 0.14;
    --art-muted-line: #94a3b8;
    --art-panel-tint: #f1f5f9;
    --accent-1: #3b82f6;
    --accent-2: #22c55e;
    --accent-3: #f59e0b;
    --accent-4: #ec4899;
    --accent-5: #8b5cf6;
    --accent-6: #06b6d4;
}</style>
  <rect x="0" y="0" width="1.92E+3" height="1.08E+3" fill="#252a34" stroke="none" id="programmatic_background"/>
  <line id="HEADER_DECOR" x1="960.0" x2="1080.0" y1="135.0" y2="135.0" stroke="var(--accent-1)" stroke-width="6" stroke-linecap="round"/>
  <defs>
    <pattern id="svgb8111777-napkin-hatch" patternUnits="userSpaceOnUse" width="12" height="12">
      <path d="M -3 12 L 12 -3 M 0 15 L 15 0" fill="none" stroke="var(--primary-text)" stroke-width="1" stroke-opacity="0.05"/>
    </pattern>
    <filter id="svgb8111777-shadow" x="-30%" y="-30%" width="160%" height="160%">
      <feDropShadow dx="0" dy="2" stdDeviation="3" flood-color="#000000" flood-opacity="0.08"/>
      <feDropShadow dx="0" dy="6" stdDeviation="10" flood-color="#000000" flood-opacity="0.12"/>
    </filter>
    <radialGradient id="svgb8111777-universal-edge-vignette" cx="50%" cy="50%" r="72%">
      <stop offset="0%" stop-color="var(--background)" stop-opacity="0"/>
      <stop offset="72%" stop-color="var(--background)" stop-opacity="0.12"/>
      <stop offset="100%" stop-color="var(--primary-text)" stop-opacity="0.08"/>
    </radialGradient>
    <linearGradient id="svgb8111777-universal-surface-sheen" x1="0%" y1="0%" x2="100%" y2="100%">
      <stop offset="0%" stop-color="var(--art-sheen)" stop-opacity="var(--art-sheen-opacity)"/>
      <stop offset="46%" stop-color="var(--art-sheen)" stop-opacity="0.035"/>
      <stop offset="100%" stop-color="var(--art-panel-tint)" stop-opacity="0.14"/>
    </linearGradient>
    <radialGradient id="svgb8111777-universal-icon-aura" cx="50%" cy="42%" r="64%">
      <stop offset="0%" stop-color="var(--art-glow)" stop-opacity="var(--art-glow-opacity)"/>
      <stop offset="100%" stop-color="var(--background)" stop-opacity="0"/>
    </radialGradient>
    <filter id="svgb8111777-text-glow" x="-20%" y="-20%" width="140%" height="140%">
      <feDropShadow dx="0" dy="0" stdDeviation="2" flood-color="#000000" flood-opacity="0.4"/>
    </filter>
    <marker id="svgb8111777-arrowhead" markerWidth="10" markerHeight="7" refX="9" refY="3.5" orient="auto" markerUnits="strokeWidth">
      <polygon points="0 0, 10 3.5, 0 7" fill="var(--muted-text)" opacity="0.6"/>
    </marker>
  </defs>
  <rect width="100%" height="100%" fill="var(--background)" id="CANVAS_BG"/>
  <rect width="100%" height="100%" fill="url(#svgb8111777-napkin-hatch)"/>
  <rect id="UNIVERSAL_EDGE_VIGNETTE" width="100%" height="100%" fill="url(#svgb8111777-universal-edge-vignette)" opacity="0.62"/>
  <text id="TITLE" x="960.0" y="59" text-anchor="middle" font-weight="800" font-size="56" fill="#0f172a" style="font-size: 60px; font-family: Inter, Segoe UI, Kalam, Roboto, Helvetica, Arial, sans-serif; font-weight: 700; letter-spacing:-1.2px;" data-final-font-size="60">
    <tspan x="960.0" dy="68.00px">Alor 1959 Visitor Profile</tspan>
  </text>
  <rect id="TITLE_FRAME" x="134" y="28" width="1652" height="88" fill="none"/>
  <g transform="translate(960, 590)">
    <circle r="178" fill="var(--panel)" fill-opacity="0.72" stroke="var(--muted-text)" stroke-width="3" stroke-dasharray="12 6" opacity="0.75"/>
    <circle id="CENTER_PAD" r="116" fill="var(--icon-pad-bg)" stroke="none" opacity="0.96"/>
    <g id="CENTER_ICON" transform="translate(-70, -70)" data-icon-size="140" stroke-dasharray="8 5">
      <g transform="translate(-33.40571428571429,-33.4057142857143) scale(6.4628571428571435)">
        <path d="M18.6992 4.62713L20.9469 8.93616C21.288 9.57602 21.9102 10.0259 22.6326 10.1259L27.3788 10.7758C29.9175 11.1257 30.9008 14.255 29.0244 15.9946L25.7733 18.9939C25.2114 19.5138 24.9505 20.2836 25.091 21.0334L25.8837 25.4324C26.3252 27.8819 23.7765 29.7915 21.5389 28.6717L17.0034 26.4222C16.3713 26.1123 15.6287 26.1123 14.9966 26.4222L10.4611 28.6717C8.22347 29.7815 5.67477 27.8819 6.11628 25.4324L6.90898 21.0334C7.04946 20.2836 6.78857 19.5138 6.22665 18.9939L2.97556 15.9946C1.09916 14.265 2.08251 11.1257 4.62118 10.7758L9.36737 10.1259C10.0898 10.0259 10.722 9.58601 11.0531 8.93616L13.3008 4.62713C14.4447 2.45762 17.5653 2.45762 18.6992 4.62713Z" fill="#FCD53F"/>
      </g>
    </g>
    <circle r="90" fill="none" stroke="var(--primary-text)" stroke-width="3" stroke-dasharray="8 5" opacity="0.8"/>
    <text id="CENTER_LABEL" x="0" y="12" text-anchor="middle" font-weight="800" font-size="34" fill="var(--primary-text)" display="none">SUBJECT</text>
  </g>
  <g transform="translate(400, 420)">
    <line x1="62" y1="32" x2="360" y2="150" stroke="var(--accent-1)" stroke-width="4.5" stroke-dasharray="6 6" opacity="0.75"/>
    <circle cx="360" cy="150" r="7" fill="var(--accent-1)"/>
    <circle id="ITEM_1_PAD" r="56" fill="var(--icon-pad-bg)" stroke="var(--primary-text)" opacity="0.95" fill-opacity="0.9" stroke-width="2"/>
    <circle id="ITEM_1_PAD_INNER" cx="0" cy="0" r="43.68" fill="var(--accent-3)" fill-opacity="0.22"/>
    <circle id="ITEM_1_NODE" r="46" fill="none" stroke="var(--accent-1)" stroke-width="3" stroke-dasharray="6 4" filter="url(#svgb8111777-shadow)"/>
    <rect id="ITEM_1_TEXT_BG" x="-382" y="-78" width="302" height="172" rx="24" fill="var(--panel)" fill-opacity="0.96" filter="url(#svgb8111777-shadow)" stroke="none"/>
    <text id="ITEM_1_HEAD" x="-110.0" y="-48.0" text-anchor="end" font-weight="bold" font-size="30" fill="var(--primary-text)" data-bg-id="ITEM_1_TEXT_BG" fill-opacity="1.0" style="font-size: 30px; font-family: Inter, Segoe UI, Kalam, Roboto, Helvetica, Arial, sans-serif; font-weight: 700; letter-spacing:-0.4px;" data-final-font-size="30">
      <tspan x="-110.0" dy="30.25px">Red Skin</tspan>
    </text>
    <rect id="ITEM_1_HEAD_FRAME" x="-318" y="-48" width="208" height="44" fill="none"/>
    <text id="ITEM_1_BODY" x="-110.0" y="-2.0" text-anchor="end" font-size="20" fill="var(--primary-text)" data-bg-id="ITEM_1_TEXT_BG" style="font-size: 26px; font-family: Inter, Segoe UI, Kalam, Roboto, Helvetica, Arial, sans-serif; font-weight: 400;" data-final-font-size="26">
      <tspan x="-110.0" dy="29.64px">Witnesses describe</tspan>
      <tspan x="-110.0" dy="29.90px">reddish skin tone</tspan>
    </text>
    <rect id="ITEM_1_BODY_FRAME" x="-352" y="-2" width="242" height="104" fill="none"/>
    <g id="ITEM_1_ICON" transform="translate(-33, -33)" data-icon-size="66" stroke-dasharray="6 4">
      <g transform="translate(-13.591999999999999,-13.591999999999999) scale(0.728)">
        <path fill="url(#ssvg-id-dark-skin-tonea)" d="M4 4h120v120H4z"/>
      </g>
    </g>
  </g>
  <g transform="translate(960, 348)">
    <line x1="0" y1="76" x2="0" y2="208" stroke="var(--accent-2)" stroke-width="4.5" stroke-dasharray="6 6" opacity="0.75"/>
    <circle cx="0" cy="208" r="7" fill="var(--accent-2)"/>
    <circle id="ITEM_2_PAD" r="56" fill="var(--icon-pad-bg)" stroke="var(--primary-text)" opacity="0.95" fill-opacity="0.9" stroke-width="2"/>
    <circle id="ITEM_2_PAD_INNER" cx="0" cy="0" r="43.68" fill="var(--accent-4)" fill-opacity="0.22"/>
    <circle id="ITEM_2_NODE" r="46" fill="none" stroke="var(--accent-2)" stroke-width="3" stroke-dasharray="6 4" filter="url(#svgb8111777-shadow)"/>
    <rect id="ITEM_2_TEXT_BG" x="-210" y="-178" width="420" height="124" rx="24" fill="var(--panel)" fill-opacity="0.96" filter="url(#svgb8111777-shadow)" stroke="none"/>
    <text id="ITEM_2_HEAD" x="0.0" y="-154.0" text-anchor="middle" font-weight="bold" font-size="30" fill="var(--primary-text)" data-bg-id="ITEM_2_TEXT_BG" fill-opacity="1.0" style="font-size: 30px; font-family: Inter, Segoe UI, Kalam, Roboto, Helvetica, Arial, sans-serif; font-weight: 700; letter-spacing:-0.4px;" data-final-font-size="30">
      <tspan x="0.0" dy="28.25px">Silver Hair</tspan>
    </text>
    <rect id="ITEM_2_HEAD_FRAME" x="-150" y="-154" width="300" height="40" fill="none"/>
    <text id="ITEM_2_BODY" x="0.0" y="-112.0" text-anchor="middle" font-size="20" fill="var(--primary-text)" data-bg-id="ITEM_2_TEXT_BG" style="font-size: 26px; font-family: Inter, Segoe UI, Kalam, Roboto, Helvetica, Arial, sans-serif; font-weight: 400;" data-final-font-size="26">
      <tspan x="0.0" dy="22.44px">Subjects wear wavy silver</tspan>
      <tspan x="0.0" dy="29.90px">or white hair</tspan>
    </text>
    <rect id="ITEM_2_BODY_FRAME" x="-184" y="-112" width="368" height="68" fill="none"/>
    <g id="ITEM_2_ICON" transform="translate(-33, -33)" data-icon-size="66" stroke-dasharray="6 4">
      <g transform="translate(-15.533333333333331,-14.413333333333334) scale(3.982222222222222)">
        <path d="M106.633 66.04c.096 2.52.146 5.094.146 7.73 0 4.5-.35 8.592-.976 12.335 4.793-.766 8.976-3.84 8.976-10.224 0-8.48-7.869-9.842-7.869-9.842h-.277zM21.09 66.04s-7.87 1.36-7.87 9.84c0 6.386 4.185 9.461 8.98 10.227-.63-3.745-.98-7.838-.98-12.337 0-2.636.051-5.21.147-7.73h-.277z" fill="#e49800"/>
        <path d="M64 10.55c-33.91 0-42.78 26.29-42.78 63.22 0 38.29 24.61 48.19 42.78 48.19 17.9 0 42.78-9.62 42.78-48.19 0-36.94-8.87-63.22-42.78-63.22z" fill="#fac01b"/>
        <path d="M49.91 77.19c0 3.81-2.55 6.9-5.71 6.9s-5.73-3.09-5.73-6.9c0-3.82 2.57-6.91 5.73-6.91 3.16 0 5.71 3.09 5.71 6.91M78.08 77.19c0 3.81 2.56 6.9 5.72 6.9 3.15 0 5.72-3.09 5.72-6.9 0-3.82-2.57-6.91-5.72-6.91-3.16 0-5.72 3.09-5.72 6.91" fill="#444"/>
        <path d="M76.38 100.52H64 51.62c-1.42 0-2.03.95-1.09 2.38 1.31 2 6.19 5.85 13.47 5.85s12.16-3.85 13.47-5.85c.94-1.43.33-2.38-1.09-2.38z" fill="#513f35"/>
        <path d="M69.98 89.99c-2.11.6-4.29.89-5.98.89-1.69 0-3.87-.29-5.98-.89-.9-.26-1.25.6-.93 1.17.67 1.18 3.36 3.55 6.91 3.55 3.55 0 6.24-2.37 6.91-3.55.33-.57-.03-1.42-.93-1.17z" fill="#e49800"/>
        <path d="M65.451 5.73c-24.71.074-27.276 10.656-27.938 10.535-7.12-1.33-16.888 3.642-22.248 12.248-13.845 22.241 3.094 39.79 3.446 41.748 1.852 10.104 2.902 11.838 2.902 11.838s.41-13.87 8.78-22.917c5.35-5.778 10.472-18.495 10.472-18.495S55.9 45.67 67.335 51.766c9.674 5.15 15.707 11.865 15.707 11.865s1.81-5.151.393-10.536C80.372 41.53 68.38 36.315 68.38 36.315s5.99 1.554 14.145 8.23c17.984 14.75 22.764 41.56 22.764 41.56 6.167-5.188 16.432-17.792 15.18-36.521-.631-9.346-10.265-43.995-55.018-43.855z" fill="#ececec"/>
      </g>
    </g>
  </g>
  <g transform="translate(1520, 420)">
    <line x1="-62" y1="32" x2="-360" y2="150" stroke="var(--accent-3)" stroke-width="4.5" stroke-dasharray="6 6" opacity="0.75"/>
    <circle cx="-360" cy="150" r="7" fill="var(--accent-3)"/>
    <circle id="ITEM_3_PAD" r="56" fill="var(--icon-pad-bg)" stroke="var(--primary-text)" opacity="0.95" fill-opacity="0.9" stroke-width="2"/>
    <circle id="ITEM_3_PAD_INNER" cx="0" cy="0" r="43.68" fill="var(--accent-5)" fill-opacity="0.22"/>
    <circle id="ITEM_3_NODE" r="46" fill="none" stroke="var(--accent-3)" stroke-width="3" stroke-dasharray="6 4" filter="url(#svgb8111777-shadow)"/>
    <rect id="ITEM_3_TEXT_BG" x="80" y="-78" width="302" height="172" rx="24" fill="var(--panel)" fill-opacity="0.96" filter="url(#svgb8111777-shadow)" stroke="none"/>
    <text id="ITEM_3_HEAD" x="110.0" y="-48.0" text-anchor="start" font-weight="bold" font-size="30" fill="var(--primary-text)" data-bg-id="ITEM_3_TEXT_BG" fill-opacity="1.0" style="font-size: 30px; font-family: Inter, Segoe UI, Kalam, Roboto, Helvetica, Arial, sans-serif; font-weight: 700; letter-spacing:-0.4px;" data-final-font-size="30">
      <tspan x="110.0" dy="30.25px">Blue Outfit</tspan>
    </text>
    <rect id="ITEM_3_HEAD_FRAME" x="110" y="-48" width="208" height="44" fill="none"/>
    <text id="ITEM_3_BODY" x="110.0" y="-2.0" text-anchor="start" font-size="20" fill="var(--primary-text)" data-bg-id="ITEM_3_TEXT_BG" style="font-size: 26px; font-family: Inter, Segoe UI, Kalam, Roboto, Helvetica, Arial, sans-serif; font-weight: 400;" data-final-font-size="26">
      <tspan x="110.0" dy="23.66px">Visitors wear dark</tspan>
      <tspan x="110.0" dy="29.90px">blue clothing</tspan>
      <tspan x="110.0" dy="29.90px">and boots</tspan>
    </text>
    <rect id="ITEM_3_BODY_FRAME" x="110" y="-2" width="242" height="104" fill="none"/>
    <g id="ITEM_3_ICON" transform="translate(-33, -33)" data-icon-size="66" stroke-dasharray="6 4">
      <g transform="translate(-15.122033898305084,-11.050169491525423) scale(0.18508474576271186)" vector-effect="non-scaling-stroke" fill="#f1f5f9" fill-opacity="1.0" stroke="none">
        <path fill="#f1f5f9" d="M260.72 29.094c-54.533 0-98.97 21.704-98.97 48.312c0 26.61 44.437 48.28 98.97 48.28c54.53 0 98.967-21.67 98.967-48.28S315.25 29.094 260.72 29.094m0 13.25c40.07 0 71.81 15.508 71.81 35.062s-31.74 35.47-71.81 35.47c-40.073 0-72.69-15.916-72.69-35.47c0-19.552 32.617-35.064 72.69-35.062M86.53 57.187c-13.242-.094-32.234 14.59-42.31 37.688c-43.3 99.244-9.583 359.695 87.874 351.97c-22.002-50.492-43.8-107.983-56.72-168.75c26.337 72.494 72.33 135.58 117.845 120.186c-32.017-40.185-66.048-87.265-90.032-140.342c35.016 59.175 85.37 105.853 123.03 85.5c-29.742-26.583-61.568-57.524-88.812-93.25c39.647 37.38 87.092 61.34 112.25 37.75c-47.69-21.07-94.37-53.67-125.062-89.75c-16.312-19.176-28.195-39.39-32.72-60c-2.26-10.306-2.508-20.796-.468-30.938l.063-.28c.007-.044.022-.083.03-.126c4.05-21.265 15.043-35.413 4.5-45.97c-2.484-2.487-5.76-3.66-9.47-3.687zm347.658 0c-3.71.027-6.954 1.2-9.438 3.688c-8.176 8.186-3.416 18.564 1.03 32.72c6.153 14.187 7.144 29.566 3.845 44.593c-4.524 20.61-16.44 40.824-32.75 60c-30.798 36.206-77.67 68.907-125.53 89.968c25.22 23.208 72.482-.71 112-37.97c-27.245 35.728-59.07 66.67-88.814 93.25c37.662 20.355 88.016-26.323 123.033-85.498c-23.985 53.077-58.016 100.157-90.032 140.343c45.515 15.395 91.478-47.69 117.814-120.186c-12.918 60.768-34.686 118.26-56.688 168.75c97.457 7.726 131.142-252.725 87.844-351.97c-10.077-23.097-29.07-37.78-42.313-37.686zm-22.22 73.97c-100.397 68.228-200.733 82.462-301.25 5.468c4.02 15.655 13.89 32.733 28.126 49.47c28.922 34 75.48 66.378 121.906 86.31c46.426-19.932 92.984-52.31 121.906-86.31c14.98-17.613 25.138-35.594 28.72-51.907c.223-1.02.416-2.027.593-3.032z" vector-effect="non-scaling-stroke" stroke="none"/>
      </g>
    </g>
  </g>
  <g transform="translate(430, 770)">
    <line x1="62" y1="-32" x2="360" y2="-150" stroke="var(--accent-4)" stroke-width="4.5" stroke-dasharray="6 6" opacity="0.75"/>
    <circle cx="360" cy="-150" r="7" fill="var(--accent-4)"/>
    <circle id="ITEM_4_PAD" r="56" fill="var(--icon-pad-bg)" stroke="var(--primary-text)" opacity="0.95" fill-opacity="0.9" stroke-width="2"/>
    <circle id="ITEM_4_PAD_INNER" cx="0" cy="0" r="43.68" fill="var(--accent-6)" fill-opacity="0.22"/>
    <circle id="ITEM_4_NODE" r="46" fill="none" stroke="var(--accent-4)" stroke-width="3" stroke-dasharray="6 4" filter="url(#svgb8111777-shadow)"/>
    <rect id="ITEM_4_TEXT_BG" x="-382" y="-78" width="302" height="172" rx="24" fill="var(--panel)" fill-opacity="0.96" filter="url(#svgb8111777-shadow)" stroke="none"/>
    <text id="ITEM_4_HEAD" x="-110.0" y="-48.0" text-anchor="end" font-weight="bold" font-size="30" fill="var(--primary-text)" data-bg-id="ITEM_4_TEXT_BG" fill-opacity="1.0" style="font-size: 30px; font-family: Inter, Segoe UI, Kalam, Roboto, Helvetica, Arial, sans-serif; font-weight: 700; letter-spacing:-0.4px;" data-final-font-size="30">
      <tspan x="-110.0" dy="30.25px">Metal Belt</tspan>
    </text>
    <rect id="ITEM_4_HEAD_FRAME" x="-318" y="-48" width="208" height="44" fill="none"/>
    <text id="ITEM_4_BODY" x="-110.0" y="-2.0" text-anchor="end" font-size="20" fill="var(--primary-text)" data-bg-id="ITEM_4_TEXT_BG" style="font-size: 26px; font-family: Inter, Segoe UI, Kalam, Roboto, Helvetica, Arial, sans-serif; font-weight: 400;" data-final-font-size="26">
      <tspan x="-110.0" dy="23.66px">Cylindrical</tspan>
      <tspan x="-110.0" dy="29.90px">metallic objects</tspan>
      <tspan x="-110.0" dy="29.90px">attached to belts</tspan>
    </text>
    <rect id="ITEM_4_BODY_FRAME" x="-352" y="-2" width="242" height="104" fill="none"/>
    <g id="ITEM_4_ICON" transform="translate(-33, -33)" data-icon-size="66" stroke-dasharray="6 4">
      <g transform="translate(-14.381694915254236,-14.381694915254236) scale(3.9484745762711864)" vector-effect="non-scaling-stroke" stroke-width="2.50" stroke-linecap="round" stroke-linejoin="round" stroke-opacity="1.0">
        <ellipse cx="12" cy="5" rx="9" ry="3" vector-effect="non-scaling-stroke" fill="none" stroke="#f1f5f9"/>
        <path d="M3 5v14a9 3 0 0 0 18 0V5" vector-effect="non-scaling-stroke" fill="none" stroke="#f1f5f9"/>
      </g>
    </g>
  </g>
  <g transform="translate(1490, 770)">
    <line x1="-62" y1="-32" x2="-360" y2="-150" stroke="var(--accent-5)" stroke-width="4.5" stroke-dasharray="6 6" opacity="0.75"/>
    <circle cx="-360" cy="-150" r="7" fill="var(--accent-5)"/>
    <circle id="ITEM_5_PAD" r="56" fill="var(--icon-pad-bg)" stroke="var(--primary-text)" opacity="0.95" fill-opacity="0.9" stroke-width="2"/>
    <circle id="ITEM_5_PAD_INNER" cx="0" cy="0" r="43.68" fill="var(--accent-1)" fill-opacity="0.22"/>
    <circle id="ITEM_5_NODE" r="46" fill="none" stroke="var(--accent-5)" stroke-width="3" stroke-dasharray="6 4" filter="url(#svgb8111777-shadow)"/>
    <rect id="ITEM_5_TEXT_BG" x="80" y="-78" width="302" height="172" rx="24" fill="var(--panel)" fill-opacity="0.96" filter="url(#svgb8111777-shadow)" stroke="none"/>
    <text id="ITEM_5_HEAD" x="110.0" y="-48.0" text-anchor="start" font-weight="bold" font-size="30" fill="var(--primary-text)" data-bg-id="ITEM_5_TEXT_BG" fill-opacity="1.0" style="font-size: 30px; font-family: Inter, Segoe UI, Kalam, Roboto, Helvetica, Arial, sans-serif; font-weight: 700; letter-spacing:-0.4px;" data-final-font-size="30">
      <tspan x="110.0" dy="30.25px">Clock Device</tspan>
    </text>
    <rect id="ITEM_5_HEAD_FRAME" x="110" y="-48" width="208" height="44" fill="none"/>
    <text id="ITEM_5_BODY" x="110.0" y="-2.0" text-anchor="start" font-size="20" fill="var(--primary-text)" data-bg-id="ITEM_5_TEXT_BG" style="font-size: 26px; font-family: Inter, Segoe UI, Kalam, Roboto, Helvetica, Arial, sans-serif; font-weight: 400;" data-final-font-size="26">
      <tspan x="110.0" dy="23.66px">Farmer shown a</tspan>
      <tspan x="110.0" dy="29.90px">strange clock-like</tspan>
      <tspan x="110.0" dy="29.90px">object</tspan>
    </text>
    <rect id="ITEM_5_BODY_FRAME" x="110" y="-2" width="242" height="104" fill="none"/>
    <g id="ITEM_5_ICON" transform="translate(-33, -33)" data-icon-size="66" stroke-dasharray="6 4">
      <g transform="translate(-18.768888888888885,-18.76888888888889) scale(4.314074074074074)" vector-effect="non-scaling-stroke" stroke-width="2.50" stroke-linecap="round" stroke-linejoin="round" stroke-opacity="1.0">
        <path d="M6 9a3 3 0 0 1 3 -3h6a3 3 0 0 1 3 3v6a3 3 0 0 1 -3 3h-6a3 3 0 0 1 -3 -3v-6z" vector-effect="non-scaling-stroke" fill="none" stroke="#f1f5f9"/>
        <path d="M9 18v3h6v-3" vector-effect="non-scaling-stroke" fill="none" stroke="#f1f5f9"/>
        <path d="M9 6v-3h6v3" vector-effect="non-scaling-stroke" fill="none" stroke="#f1f5f9"/>
      </g>
    </g>
  </g>
</svg>
