<?xml version='1.0' encoding='utf-8'?>
<svg xmlns="http://www.w3.org/2000/svg" width="1920" height="1080" viewBox="0 0 1920 1080" data-theme="dark">
  <style>
        @font-face {
            font-family: 'Inter';
            src: url('assets/fonts/Inter-Regular.ttf') format('truetype');
            font-weight: 400;
            font-style: normal;
            font-display: swap;
        }
        @font-face {
            font-family: 'Inter';
            src: url('assets/fonts/Inter-Bold.ttf') format('truetype');
            font-weight: 600;
            font-style: normal;
            font-display: swap;
        }
        @font-face {
            font-family: 'Inter';
            src: url('assets/fonts/Inter-Bold.ttf') format('truetype');
            font-weight: 800;
            font-style: normal;
            font-display: swap;
        }
        
:root {
    --background: #0f172a;
    --panel: #1e293b;
    --primary-text: #f1f5f9;
    --muted-text: #94a3b8;
    --inverse-text: #0f172a;
    --border: #334155;
    --shadow-color: #000000;
    --icon-pad-bg: #1e293b;
    --art-glow: #7dd3fc;
    --art-glow-opacity: 0.18;
    --art-sheen: #ffffff;
    --art-sheen-opacity: 0.18;
    --art-shadow: #000000;
    --art-shadow-opacity: 0.28;
    --art-muted-line: #64748b;
    --art-panel-tint: #1e293b;
    --font-family: 'Inter', 'Segoe UI', 'Kalam', Roboto, Helvetica, Arial, sans-serif;
    --radius-xl: 16px;
    --font-family-headline: 'Inter', 'Segoe UI', 'Kalam', Roboto, Helvetica, Arial, sans-serif;
    --font-family-body: 'Inter', 'Segoe UI', 'Kalam', Roboto, Helvetica, Arial, sans-serif;
    --font-heading: 'Inter', 'Segoe UI', 'Kalam', Roboto, Helvetica, Arial, sans-serif;
    --font-body: 'Inter', 'Segoe UI', 'Kalam', Roboto, Helvetica, Arial, sans-serif;
    --font-size-h1: 56px;
    --font-size-h2: 40px;
    --font-size-h3: 28px;
    --font-size-body: 24px;
    --font-size-caption: 18px;
    --secondary-text: var(--muted-text);
    --panel-border: var(--border);
    --font-weight-normal: 400;
    --font-weight-medium: 500;
    --font-weight-semibold: 600;
    --font-weight-bold: 700;
    --spacing-gutter-pct: 0.07;
    --spacing-top-pct: 0.15;
    --spacing-bottom-pct: 0.07;
    --spacing-title-y-pct: 0.055;
    --accent-1: #60a5fa;
    --accent-2: #4ade80;
    --accent-3: #f97316;
    --accent-4: #a78bfa;
    --accent-5: #38bdf8;
    --accent-6: #94a3b8;
}
:root[data-theme="dark"] {
    --background: #0f172a;
    --panel: #1e293b;
    --primary-text: #f1f5f9;
    --muted-text: #94a3b8;
    --inverse-text: #0f172a;
    --border: #334155;
    --shadow-color: #000000;
    --icon-pad-bg: #1e293b;
    --art-glow: #7dd3fc;
    --art-glow-opacity: 0.18;
    --art-sheen: #ffffff;
    --art-sheen-opacity: 0.18;
    --art-shadow: #000000;
    --art-shadow-opacity: 0.28;
    --art-muted-line: #64748b;
    --art-panel-tint: #1e293b;
    --accent-1: #60a5fa;
    --accent-2: #4ade80;
    --accent-3: #f97316;
    --accent-4: #a78bfa;
    --accent-5: #38bdf8;
    --accent-6: #94a3b8;
}
:root[data-theme="light"] {
    --background: #f8fafc;
    --panel: #ffffff;
    --primary-text: #0f172a;
    --muted-text: #64748b;
    --inverse-text: #ffffff;
    --border: #e2e8f0;
    --shadow-color: #000000;
    --icon-pad-bg: #1e293b;
    --art-glow: #0891b2;
    --art-glow-opacity: 0.10;
    --art-sheen: #ffffff;
    --art-sheen-opacity: 0.34;
    --art-shadow: #0f172a;
    --art-shadow-opacity: 0.14;
    --art-muted-line: #94a3b8;
    --art-panel-tint: #f1f5f9;
    --accent-1: #2563eb;
    --accent-2: #16a34a;
    --accent-3: #ea580c;
    --accent-4: #7c3aed;
    --accent-5: #0284c7;
    --accent-6: #475569;
}</style>
  <rect x="0" y="0" width="1.92E+3" height="1.08E+3" fill="#252a34" stroke="none" id="programmatic_background"/>
  <line id="HEADER_DECOR" x1="960.0" x2="1080.0" y1="135.0" y2="135.0" stroke="var(--accent-1)" stroke-width="6" stroke-linecap="round"/>
  <defs>
    <pattern id="svgcb15df9f-napkin-hatch" patternUnits="userSpaceOnUse" width="12" height="12">
      <path d="M -3 12 L 12 -3 M 0 15 L 15 0" fill="none" stroke="var(--primary-text)" stroke-width="1" stroke-opacity="0.05"/>
    </pattern>
    <filter id="svgcb15df9f-shadow" x="-30%" y="-30%" width="160%" height="160%">
      <feDropShadow dx="0" dy="2" stdDeviation="3" flood-color="#000000" flood-opacity="0.08"/>
      <feDropShadow dx="0" dy="6" stdDeviation="10" flood-color="#000000" flood-opacity="0.12"/>
    </filter>
    <radialGradient id="svgcb15df9f-universal-edge-vignette" cx="50%" cy="50%" r="72%">
      <stop offset="0%" stop-color="var(--background)" stop-opacity="0"/>
      <stop offset="72%" stop-color="var(--background)" stop-opacity="0.12"/>
      <stop offset="100%" stop-color="var(--primary-text)" stop-opacity="0.08"/>
    </radialGradient>
    <linearGradient id="svgcb15df9f-universal-surface-sheen" x1="0%" y1="0%" x2="100%" y2="100%">
      <stop offset="0%" stop-color="var(--art-sheen)" stop-opacity="var(--art-sheen-opacity)"/>
      <stop offset="46%" stop-color="var(--art-sheen)" stop-opacity="0.035"/>
      <stop offset="100%" stop-color="var(--art-panel-tint)" stop-opacity="0.14"/>
    </linearGradient>
    <radialGradient id="svgcb15df9f-universal-icon-aura" cx="50%" cy="42%" r="64%">
      <stop offset="0%" stop-color="var(--art-glow)" stop-opacity="var(--art-glow-opacity)"/>
      <stop offset="100%" stop-color="var(--background)" stop-opacity="0"/>
    </radialGradient>
    <filter id="svgcb15df9f-text-glow" x="-20%" y="-20%" width="140%" height="140%">
      <feDropShadow dx="0" dy="0" stdDeviation="2" flood-color="#000000" flood-opacity="0.4"/>
    </filter>
    <marker id="svgcb15df9f-arrowhead" markerWidth="10" markerHeight="7" refX="9" refY="3.5" orient="auto" markerUnits="strokeWidth">
      <polygon points="0 0, 10 3.5, 0 7" fill="var(--muted-text)" opacity="0.6"/>
    </marker>
  </defs>
  <rect width="100%" height="100%" fill="var(--background)" id="CANVAS_BG"/>
  <rect width="100%" height="100%" fill="url(#svgcb15df9f-napkin-hatch)"/>
  <rect id="UNIVERSAL_EDGE_VIGNETTE" width="100%" height="100%" fill="url(#svgcb15df9f-universal-edge-vignette)" opacity="0.62"/>
  <text id="TITLE" x="960.0" y="59" text-anchor="middle" font-weight="800" font-size="56" fill="#f1f5f9" style="font-size: 60px; font-family: Inter, Segoe UI, Kalam, Roboto, Helvetica, Arial, sans-serif; font-weight: 700; letter-spacing:-1.2px;" data-final-font-size="60">
    <tspan x="960.0" dy="68.00px">Mukuku Ring Time line</tspan>
  </text>
  <rect id="TITLE_FRAME" x="134" y="59" width="1652" height="103" fill="none"/>
  <g transform="translate(960, 560)">
    <circle r="180" fill="var(--panel)" fill-opacity="0.72" stroke="var(--muted-text)" stroke-width="3" stroke-dasharray="12 6" opacity="0.75"/>
    <circle id="CENTER_PAD" r="118" fill="var(--icon-pad-bg)" stroke="none" opacity="0.96"/>
    <g id="CENTER_ICON" transform="translate(-70, -70)" data-icon-size="140" stroke-dasharray="8 5">
      <g transform="translate(-35.188571428571436,-35.18857142857143) scale(6.574285714285715)">
        <path d="M18.6992 4.62713L20.9469 8.93616C21.288 9.57602 21.9102 10.0259 22.6326 10.1259L27.3788 10.7758C29.9175 11.1257 30.9008 14.255 29.0244 15.9946L25.7733 18.9939C25.2114 19.5138 24.9505 20.2836 25.091 21.0334L25.8837 25.4324C26.3252 27.8819 23.7765 29.7915 21.5389 28.6717L17.0034 26.4222C16.3713 26.1123 15.6287 26.1123 14.9966 26.4222L10.4611 28.6717C8.22347 29.7815 5.67477 27.8819 6.11628 25.4324L6.90898 21.0334C7.04946 20.2836 6.78857 19.5138 6.22665 18.9939L2.97556 15.9946C1.09916 14.265 2.08251 11.1257 4.62118 10.7758L9.36737 10.1259C10.0898 10.0259 10.722 9.58601 11.0531 8.93616L13.3008 4.62713C14.4447 2.45762 17.5653 2.45762 18.6992 4.62713Z" fill="#FCD53F"/>
      </g>
    </g>
    <circle r="92" fill="none" stroke="var(--primary-text)" stroke-width="3" stroke-dasharray="8 5" opacity="0.8"/>
    <text id="CENTER_LABEL" x="0" y="12" text-anchor="middle" font-weight="800" font-size="34" fill="var(--primary-text)" display="none">SUBJECT</text>
  </g>
  <g transform="translate(430, 380)">
    <line x1="60" y1="36" x2="350" y2="160" stroke="var(--accent-1)" stroke-width="4.5" stroke-dasharray="6 6" opacity="0.75"/>
    <circle cx="350" cy="160" r="7" fill="var(--accent-1)"/>
    <circle id="ITEM_1_PAD" r="56" fill="var(--icon-pad-bg)" stroke="var(--primary-text)" opacity="0.95" fill-opacity="0.9" stroke-width="2"/>
    <circle id="ITEM_1_PAD_INNER" cx="0" cy="0" r="43.68" fill="var(--accent-3)" fill-opacity="0.22"/>
    <circle id="ITEM_1_NODE" r="46" fill="none" stroke="var(--accent-1)" stroke-width="3" stroke-dasharray="6 4" filter="url(#svgcb15df9f-shadow)"/>
    <rect id="ITEM_1_TEXT_BG" x="-355" y="-76" width="275" height="168" rx="24" fill="var(--panel)" fill-opacity="0.96" filter="url(#svgcb15df9f-shadow)" stroke="none"/>
    <text id="ITEM_1_HEAD" x="-110.0" y="-50.0" text-anchor="end" font-weight="bold" font-size="32" fill="var(--accent-3)" data-bg-id="ITEM_1_TEXT_BG" fill-opacity="1.0" stroke="none" style="font-size: 30px; font-family: Inter, Segoe UI, Kalam, Roboto, Helvetica, Arial, sans-serif; font-weight: 700; letter-spacing:-0.4px;" data-final-font-size="30">
      <tspan x="-110.0" dy="31.25px">Sky Descent</tspan>
    </text>
    <rect id="ITEM_1_HEAD_FRAME" x="-320" y="-50" width="210" height="46" fill="none"/>
    <text id="ITEM_1_BODY" x="-110.0" y="2.0" text-anchor="end" font-size="20" fill="var(--primary-text)" data-bg-id="ITEM_1_TEXT_BG" style="font-size: 25px; font-family: Inter, Segoe UI, Kalam, Roboto, Helvetica, Arial, sans-serif; font-weight: 400;" data-final-font-size="25">
      <tspan x="-110.0" dy="22.75px">Fiery object</tspan>
      <tspan x="-110.0" dy="28.75px">crashes into</tspan>
      <tspan x="-110.0" dy="28.75px">village on Dec 30</tspan>
    </text>
    <rect id="ITEM_1_BODY_FRAME" x="-320" y="2" width="210" height="100" fill="none"/>
    <g id="ITEM_1_ICON" transform="translate(-33, -33)" data-icon-size="66" stroke-dasharray="6 4">
      <g transform="translate(-25.240000000000002,-25.240000000000002) scale(4.8533333333333335)" vector-effect="non-scaling-stroke" fill="#f1f5f9" fill-opacity="1.0" stroke="none">
        <path fill="#f1f5f9" d="m5.8 16.59l-1.3-1.31l7.76-7.78l4.24 4.24l-7.78 7.76l-1.43-1.41c-.25.07-.49.19-.66.41c-.06.07-.13.15-.13.24c-.08.14-.12.26-.18.41c-.11.27-.23.54-.39.78c-.12.17-.25.33-.4.46c-.11.11-.24.2-.37.27c-.08.05-.16.1-.26.13c-.6.25-1.27.21-1.9.21v-2h.9c.1 0 .18 0 .26-.06l.05-.05c.07-.08.13-.19.18-.29c.08-.18.14-.36.21-.54l.04-.1c.12-.27.26-.51.44-.73c.1-.13.22-.23.34-.36c.12-.1.24-.2.38-.28M21 3l-1.12 8.19l-7.07-7.07z" vector-effect="non-scaling-stroke" stroke="none"/>
      </g>
    </g>
  </g>
  <g transform="translate(1490, 380)">
    <line x1="-60" y1="36" x2="-350" y2="160" stroke="var(--accent-2)" stroke-width="4.5" stroke-dasharray="6 6" opacity="0.75"/>
    <circle cx="-350" cy="160" r="7" fill="var(--accent-2)"/>
    <circle id="ITEM_2_PAD" r="56" fill="var(--icon-pad-bg)" stroke="var(--primary-text)" opacity="0.95" fill-opacity="0.9" stroke-width="2"/>
    <circle id="ITEM_2_PAD_INNER" cx="0" cy="0" r="43.68" fill="var(--accent-4)" fill-opacity="0.22"/>
    <circle id="ITEM_2_NODE" r="46" fill="none" stroke="var(--accent-2)" stroke-width="3" stroke-dasharray="6 4" filter="url(#svgcb15df9f-shadow)"/>
    <rect id="ITEM_2_TEXT_BG" x="80" y="-76" width="275" height="168" rx="24" fill="var(--panel)" fill-opacity="0.96" filter="url(#svgcb15df9f-shadow)" stroke="none"/>
    <text id="ITEM_2_HEAD" x="110.0" y="-50.0" text-anchor="start" font-weight="bold" font-size="32" fill="var(--accent-4)" data-bg-id="ITEM_2_TEXT_BG" fill-opacity="1.0" stroke="none" style="font-size: 30px; font-family: Inter, Segoe UI, Kalam, Roboto, Helvetica, Arial, sans-serif; font-weight: 700; letter-spacing:-0.4px;" data-final-font-size="30">
      <tspan x="110.0" dy="31.25px">Impact Noise</tspan>
    </text>
    <rect id="ITEM_2_HEAD_FRAME" x="110" y="-50" width="210" height="46" fill="none"/>
    <text id="ITEM_2_BODY" x="110.0" y="2.0" text-anchor="start" font-size="20" fill="var(--primary-text)" data-bg-id="ITEM_2_TEXT_BG" style="font-size: 26px; font-family: Inter, Segoe UI, Kalam, Roboto, Helvetica, Arial, sans-serif; font-weight: 400;" data-final-font-size="26">
      <tspan x="110.0" dy="22.86px">Loud boom shakes</tspan>
      <tspan x="110.0" dy="29.90px">nearby homes and</tspan>
      <tspan x="110.0" dy="29.90px">structures</tspan>
    </text>
    <rect id="ITEM_2_BODY_FRAME" x="110" y="2" width="210" height="100" fill="none"/>
    <g id="ITEM_2_ICON" transform="translate(-33, -33)" data-icon-size="66" stroke-dasharray="6 4">
      <g transform="translate(-16.92,-16.92) scale(3.12)">
        <path d="M26.18 19.61C28.2345 19.61 29.9 17.9445 29.9 15.89C29.9 13.8355 28.2345 12.17 26.18 12.17C24.1255 12.17 22.46 13.8355 22.46 15.89C22.46 17.9445 24.1255 19.61 26.18 19.61Z" fill="#212121"/>
        <path d="M10.9999 11L11.6799 9.99997C12.9299 9.99997 14.1699 9.70997 15.2899 9.16997L21.5499 6.08997V25.71L15.2899 22.63C14.1699 22.08 12.9299 21.79 11.6799 21.79L10.9999 20V11ZM6.21586 29.0083H8.78989C9.45989 29.0083 9.99989 28.4683 9.99989 27.7983V19.89H5.00586V27.7983C5.00586 28.4683 5.54586 29.0083 6.21586 29.0083Z" fill="#D3D3D3"/>
        <path d="M24.07 3C22.38 3 21 4.37 21 6.07V25.72C21 27.41 22.37 28.79 24.07 28.79C25.76 28.79 27.14 27.42 27.14 25.72V6.07C27.13 4.37 25.76 3 24.07 3Z" fill="#F8312F"/>
        <path d="M3.72662 10H12V21.78H3.72662C2.77081 21.78 2 21.03 2 20.11V11.68C2 10.75 2.77081 10 3.72662 10Z" fill="#CA0B4A"/>
      </g>
    </g>
  </g>
  <g transform="translate(430, 740)">
    <line x1="60" y1="-36" x2="350" y2="-160" stroke="var(--accent-3)" stroke-width="4.5" stroke-dasharray="6 6" opacity="0.75"/>
    <circle cx="350" cy="-160" r="7" fill="var(--accent-3)"/>
    <circle id="ITEM_3_PAD" r="56" fill="var(--icon-pad-bg)" stroke="var(--primary-text)" opacity="0.95" fill-opacity="0.9" stroke-width="2"/>
    <circle id="ITEM_3_PAD_INNER" cx="0" cy="0" r="43.68" fill="var(--accent-5)" fill-opacity="0.22"/>
    <circle id="ITEM_3_NODE" r="46" fill="none" stroke="var(--accent-3)" stroke-width="3" stroke-dasharray="6 4" filter="url(#svgcb15df9f-shadow)"/>
    <rect id="ITEM_3_TEXT_BG" x="-355" y="-76" width="275" height="168" rx="24" fill="var(--panel)" fill-opacity="0.96" filter="url(#svgcb15df9f-shadow)" stroke="none"/>
    <text id="ITEM_3_HEAD" x="-110.0" y="-50.0" text-anchor="end" font-weight="bold" font-size="32" fill="var(--accent-5)" data-bg-id="ITEM_3_TEXT_BG" fill-opacity="1.0" stroke="none" style="font-size: 30px; font-family: Inter, Segoe UI, Kalam, Roboto, Helvetica, Arial, sans-serif; font-weight: 700; letter-spacing:-0.4px;" data-final-font-size="30">
      <tspan x="-110.0" dy="31.25px">Ring Recovery</tspan>
    </text>
    <rect id="ITEM_3_HEAD_FRAME" x="-320" y="-50" width="210" height="46" fill="none"/>
    <text id="ITEM_3_BODY" x="-110.0" y="2.0" text-anchor="end" font-size="20" fill="var(--primary-text)" data-bg-id="ITEM_3_TEXT_BG" style="font-size: 26px; font-family: Inter, Segoe UI, Kalam, Roboto, Helvetica, Arial, sans-serif; font-weight: 400;" data-final-font-size="26">
      <tspan x="-110.0" dy="22.86px">Officials secure</tspan>
      <tspan x="-110.0" dy="29.90px">500kg metallic</tspan>
      <tspan x="-110.0" dy="29.90px">ring structure</tspan>
    </text>
    <rect id="ITEM_3_BODY_FRAME" x="-320" y="2" width="210" height="100" fill="none"/>
    <g id="ITEM_3_ICON" transform="translate(-33, -33)" data-icon-size="66" stroke-dasharray="6 4">
      <g transform="translate(-15.75,-16.92) scale(3.12)">
        <path d="M17.9119 2H13.2619C13.0519 2 12.8419 2.09001 12.7119 2.26001L10.8219 4.51999C10.6419 4.72999 10.6019 5.03 10.7219 5.28L12.7419 9.76001C12.8619 10.02 13.1119 10.19 13.4019 10.19H17.7919C18.0719 10.19 18.3319 10.02 18.4519 9.76001L20.4719 5.28C20.5819 5.03 20.5419 4.72999 20.3719 4.51999L18.4819 2.26001C18.3319 2.10001 18.1319 2 17.9119 2Z" fill="#00A6ED"/>
        <path d="M20.5019 4.82999C20.4819 4.71999 20.4319 4.60999 20.3519 4.51999L18.4619 2.26001C18.3219 2.10001 18.1219 2 17.9119 2H13.2619C13.0519 2 12.8419 2.09001 12.7119 2.26001L10.8219 4.51999C10.7419 4.60999 10.6919 4.71999 10.6719 4.82999H20.5019Z" fill="#26EAFC"/>
        <path d="M19.2119 8.53009V8.1001H11.9819V8.53009C11.9819 9.07009 11.6619 9.55008 11.1819 9.77008C7.3919 11.5101 4.8019 15.4201 5.0119 19.9001C5.2719 25.4601 9.8619 29.9101 15.4219 30.0001C21.3419 30.1001 26.1919 25.3001 26.1919 19.4001C26.1919 15.1301 23.6519 11.4401 20.0019 9.7601C19.5219 9.5401 19.2119 9.06009 19.2119 8.53009ZM15.5919 26.9301C11.4419 26.9301 8.0619 23.5501 8.0619 19.4001C8.0619 15.2501 11.4419 11.8701 15.5919 11.8701C19.7419 11.8701 23.1219 15.2501 23.1219 19.4001C23.1219 23.5501 19.7419 26.9301 15.5919 26.9301Z" fill="#B4ACBC"/>
      </g>
    </g>
  </g>
  <g transform="translate(1490, 740)">
    <line x1="-60" y1="-36" x2="-350" y2="-160" stroke="var(--accent-4)" stroke-width="4.5" stroke-dasharray="6 6" opacity="0.75"/>
    <circle cx="-350" cy="-160" r="7" fill="var(--accent-4)"/>
    <circle id="ITEM_4_PAD" r="56" fill="var(--icon-pad-bg)" stroke="var(--primary-text)" opacity="0.95" fill-opacity="0.9" stroke-width="2"/>
    <circle id="ITEM_4_PAD_INNER" cx="0" cy="0" r="43.68" fill="var(--accent-6)" fill-opacity="0.22"/>
    <circle id="ITEM_4_NODE" r="46" fill="none" stroke="var(--accent-4)" stroke-width="3" stroke-dasharray="6 4" filter="url(#svgcb15df9f-shadow)"/>
    <rect id="ITEM_4_TEXT_BG" x="80" y="-76" width="275" height="168" rx="24" fill="var(--panel)" fill-opacity="0.96" filter="url(#svgcb15df9f-shadow)" stroke="none"/>
    <text id="ITEM_4_HEAD" x="110.0" y="-50.0" text-anchor="start" font-weight="bold" font-size="32" fill="var(--accent-6)" data-bg-id="ITEM_4_TEXT_BG" fill-opacity="1.0" stroke="none" style="font-size: 26px; font-family: Inter, Segoe UI, Kalam, Roboto, Helvetica, Arial, sans-serif; font-weight: 700; letter-spacing:-0.4px;" data-final-font-size="26">
      <tspan x="110.0" dy="28.85px">Agency Statement</tspan>
    </text>
    <rect id="ITEM_4_HEAD_FRAME" x="110" y="-50" width="210" height="46" fill="none"/>
    <text id="ITEM_4_BODY" x="110.0" y="2.0" text-anchor="start" font-size="20" fill="var(--primary-text)" data-bg-id="ITEM_4_TEXT_BG" style="font-size: 26px; font-family: Inter, Segoe UI, Kalam, Roboto, Helvetica, Arial, sans-serif; font-weight: 400;" data-final-font-size="26">
      <tspan x="110.0" dy="22.86px">KSA confirms</tspan>
      <tspan x="110.0" dy="29.90px">debris from</tspan>
      <tspan x="110.0" dy="29.90px">launch vehicle</tspan>
    </text>
    <rect id="ITEM_4_BODY_FRAME" x="110" y="2" width="210" height="100" fill="none"/>
    <g id="ITEM_4_ICON" transform="translate(-33, -33)" data-icon-size="66" stroke-dasharray="6 4">
      <g transform="translate(-14.381694915254236,-14.381694915254236) scale(3.9484745762711864)" vector-effect="non-scaling-stroke" stroke-width="2.50" stroke-linecap="round" stroke-linejoin="round" stroke-opacity="1.0">
        <path d="M3.85 8.62a4 4 0 0 1 4.78-4.77 4 4 0 0 1 6.74 0 4 4 0 0 1 4.78 4.78 4 4 0 0 1 0 6.74 4 4 0 0 1-4.77 4.78 4 4 0 0 1-6.75 0 4 4 0 0 1-4.78-4.77 4 4 0 0 1 0-6.76Z" vector-effect="non-scaling-stroke" fill="none" stroke="#f1f5f9"/>
      </g>
    </g>
  </g>
</svg>
