<?xml version='1.0' encoding='utf-8'?>
<svg xmlns="http://www.w3.org/2000/svg" width="1920" height="1080" viewBox="0 0 1920 1080" data-theme="dark">
  <style>
        @font-face {
            font-family: 'Inter';
            src: url('assets/fonts/Inter-Regular.ttf') format('truetype');
            font-weight: 400;
            font-style: normal;
            font-display: swap;
        }
        @font-face {
            font-family: 'Inter';
            src: url('assets/fonts/Inter-Bold.ttf') format('truetype');
            font-weight: 600;
            font-style: normal;
            font-display: swap;
        }
        @font-face {
            font-family: 'Inter';
            src: url('assets/fonts/Inter-Bold.ttf') format('truetype');
            font-weight: 800;
            font-style: normal;
            font-display: swap;
        }
        
:root {
    --background: #0f172a;
    --panel: #1e293b;
    --primary-text: #f1f5f9;
    --muted-text: #94a3b8;
    --inverse-text: #0f172a;
    --border: #334155;
    --shadow-color: #000000;
    --icon-pad-bg: #1e293b;
    --art-glow: #7dd3fc;
    --art-glow-opacity: 0.18;
    --art-sheen: #ffffff;
    --art-sheen-opacity: 0.18;
    --art-shadow: #000000;
    --art-shadow-opacity: 0.28;
    --art-muted-line: #64748b;
    --art-panel-tint: #1e293b;
    --font-family: 'Inter', 'Segoe UI', 'Kalam', Roboto, Helvetica, Arial, sans-serif;
    --radius-xl: 16px;
    --font-family-headline: 'Inter', 'Segoe UI', 'Kalam', Roboto, Helvetica, Arial, sans-serif;
    --font-family-body: 'Inter', 'Segoe UI', 'Kalam', Roboto, Helvetica, Arial, sans-serif;
    --font-heading: 'Inter', 'Segoe UI', 'Kalam', Roboto, Helvetica, Arial, sans-serif;
    --font-body: 'Inter', 'Segoe UI', 'Kalam', Roboto, Helvetica, Arial, sans-serif;
    --font-size-h1: 56px;
    --font-size-h2: 40px;
    --font-size-h3: 28px;
    --font-size-body: 24px;
    --font-size-caption: 18px;
    --secondary-text: var(--muted-text);
    --panel-border: var(--border);
    --font-weight-normal: 400;
    --font-weight-medium: 500;
    --font-weight-semibold: 600;
    --font-weight-bold: 700;
    --spacing-gutter-pct: 0.07;
    --spacing-top-pct: 0.15;
    --spacing-bottom-pct: 0.07;
    --spacing-title-y-pct: 0.055;
    --accent-1: #a5b4fc;
    --accent-2: #34d399;
    --accent-3: #f472b6;
    --accent-4: #fbbf24;
    --accent-5: #38bdf8;
    --accent-6: #c084fc;
    --accent-7: #f87171;
    --accent-8: #2dd4bf;
    --accent-9: #fb923c;
    --accent-10: #e879f9;
}
:root[data-theme="dark"] {
    --background: #0f172a;
    --panel: #1e293b;
    --primary-text: #f1f5f9;
    --muted-text: #94a3b8;
    --inverse-text: #0f172a;
    --border: #334155;
    --shadow-color: #000000;
    --icon-pad-bg: #1e293b;
    --art-glow: #7dd3fc;
    --art-glow-opacity: 0.18;
    --art-sheen: #ffffff;
    --art-sheen-opacity: 0.18;
    --art-shadow: #000000;
    --art-shadow-opacity: 0.28;
    --art-muted-line: #64748b;
    --art-panel-tint: #1e293b;
    --accent-1: #a5b4fc;
    --accent-2: #34d399;
    --accent-3: #f472b6;
    --accent-4: #fbbf24;
    --accent-5: #38bdf8;
    --accent-6: #c084fc;
    --accent-7: #f87171;
    --accent-8: #2dd4bf;
    --accent-9: #fb923c;
    --accent-10: #e879f9;
}
:root[data-theme="light"] {
    --background: #f8fafc;
    --panel: #ffffff;
    --primary-text: #0f172a;
    --muted-text: #64748b;
    --inverse-text: #ffffff;
    --border: #e2e8f0;
    --shadow-color: #000000;
    --icon-pad-bg: #1e293b;
    --art-glow: #0891b2;
    --art-glow-opacity: 0.10;
    --art-sheen: #ffffff;
    --art-sheen-opacity: 0.34;
    --art-shadow: #0f172a;
    --art-shadow-opacity: 0.14;
    --art-muted-line: #94a3b8;
    --art-panel-tint: #f1f5f9;
    --accent-1: #4f46e5;
    --accent-2: #059669;
    --accent-3: #db2777;
    --accent-4: #d97706;
    --accent-5: #0284c7;
    --accent-6: #7c3aed;
    --accent-7: #dc2626;
    --accent-8: #0d9488;
    --accent-9: #ea580c;
    --accent-10: #c026d3;
}</style>
  <rect x="0" y="0" width="1.92E+3" height="1.08E+3" fill="#252a34" stroke="none" id="programmatic_background"/>
  <line id="HEADER_DECOR" x1="960.0" x2="1080.0" y1="85.0" y2="85.0" stroke="var(--accent-1)" stroke-width="6" stroke-linecap="round"/>
  <defs>
    <pattern id="svga341a7b5-napkin-hatch" patternUnits="userSpaceOnUse" width="12" height="12">
      <path d="M -3 12 L 12 -3 M 0 15 L 15 0" fill="none" stroke="var(--primary-text)" stroke-width="1" stroke-opacity="0.05"/>
    </pattern>
    <filter id="svga341a7b5-shadow" x="-30%" y="-30%" width="160%" height="160%">
      <feDropShadow dx="0" dy="2" stdDeviation="3" flood-color="#000000" flood-opacity="0.08"/>
      <feDropShadow dx="0" dy="6" stdDeviation="10" flood-color="#000000" flood-opacity="0.12"/>
    </filter>
    <marker id="svga341a7b5-arrowhead" markerWidth="10" markerHeight="10" refX="9" refY="5" orient="auto">
      <path d="M 0 0 L 10 5 L 0 10 Z" fill="var(--accent-1)"/>
    </marker>
    <filter id="svga341a7b5-text-glow" x="-20%" y="-20%" width="140%" height="140%">
      <feDropShadow dx="0" dy="0" stdDeviation="2" flood-color="#000000" flood-opacity="0.4"/>
    </filter>
    <radialGradient id="svga341a7b5-universal-edge-vignette" cx="50%" cy="50%" r="72%">
      <stop offset="0%" stop-color="var(--background)" stop-opacity="0"/>
      <stop offset="72%" stop-color="var(--background)" stop-opacity="0.12"/>
      <stop offset="100%" stop-color="var(--primary-text)" stop-opacity="0.08"/>
    </radialGradient>
    <linearGradient id="svga341a7b5-universal-surface-sheen" x1="0%" y1="0%" x2="100%" y2="100%">
      <stop offset="0%" stop-color="var(--art-sheen)" stop-opacity="var(--art-sheen-opacity)"/>
      <stop offset="46%" stop-color="var(--art-sheen)" stop-opacity="0.035"/>
      <stop offset="100%" stop-color="var(--art-panel-tint)" stop-opacity="0.14"/>
    </linearGradient>
    <radialGradient id="svga341a7b5-universal-icon-aura" cx="50%" cy="42%" r="64%">
      <stop offset="0%" stop-color="var(--art-glow)" stop-opacity="var(--art-glow-opacity)"/>
      <stop offset="100%" stop-color="var(--background)" stop-opacity="0"/>
    </radialGradient>
    <linearGradient id="svga341a7b5-card-panel-sheen" x1="0%" y1="0%" x2="100%" y2="100%">
      <stop offset="0%" stop-color="var(--inverse-text)" stop-opacity="0.20"/>
      <stop offset="48%" stop-color="var(--inverse-text)" stop-opacity="0.04"/>
      <stop offset="100%" stop-color="var(--background)" stop-opacity="0.16"/>
    </linearGradient>
    <radialGradient id="svga341a7b5-card-icon-glow" cx="50%" cy="35%" r="62%">
      <stop offset="0%" stop-color="var(--inverse-text)" stop-opacity="0.22"/>
      <stop offset="100%" stop-color="var(--background)" stop-opacity="0"/>
    </radialGradient>
  </defs>
  <rect width="100%" height="100%" fill="var(--background)" id="CANVAS_BG"/>
  <rect width="100%" height="100%" fill="url(#svga341a7b5-napkin-hatch)"/>
  <rect id="UNIVERSAL_EDGE_VIGNETTE" width="100%" height="100%" fill="url(#svga341a7b5-universal-edge-vignette)" opacity="0.62"/>
  <text id="TITLE" x="960.0" y="59" font-size="48" font-weight="700" fill="#f1f5f9" text-anchor="middle" style="font-size: 60px; font-family: Inter, Segoe UI, Kalam, Roboto, Helvetica, Arial, sans-serif; font-weight: 700; letter-spacing:-1.2px;" data-final-font-size="60">
    <tspan x="960.0" dy="68.00px">Riga Urban Hotspot</tspan>
  </text>
  <rect id="TITLE_FRAME" x="134" y="25" width="1652" height="70" fill="none"/>
  <g id="DIAGRAM_MAIN">
    <rect id="ITEM_1_BG" x="485" y="170" width="480" height="410" rx="16" fill="var(--accent-3)" stroke="var(--accent-1)" stroke-width="2" filter="url(#svga341a7b5-shadow)" fill-opacity="0.4"/>
    <rect x="485" y="170" width="480" height="410" rx="16" fill="url(#svga341a7b5-card-panel-sheen)" opacity="0.88"/>
    <rect x="485" y="186" width="460" height="12" fill="var(--accent-1)"/>
    <rect id="ITEM_1_HEAD_FRAME" x="500" y="288" width="450" height="96" fill="none"/>
    <rect id="ITEM_1_BODY_FRAME" x="500" y="382" width="450" height="168" fill="none"/>
    <circle id="ITEM_1_PAD" cx="715" cy="231" r="55" fill="var(--icon-pad-bg)" stroke="var(--primary-text)" opacity="0.9" fill-opacity="0.9" stroke-width="2"/>
    <circle cx="715" cy="231" r="44" fill="none" stroke="var(--accent-1)" stroke-width="3" stroke-dasharray="6 4"/>
    <circle id="ITEM_1_BADGE" cx="715" cy="231" r="43" fill="var(--accent-1)" stroke="var(--background)" stroke-width="4" fill-opacity="0.35" opacity="0.85" stroke-opacity="0.75"/>
    <g id="ITEM_1_ICON" transform="translate(682, 198)" data-icon-size="66">
      <g transform="translate(-9.899999999999999,-8.224218749999999) scale(3.5749999999999997)" vector-effect="non-scaling-stroke" fill="#ffffff" fill-opacity="1.0" stroke="none">
        <path fill="#ffffff" d="M8.4 18.2q.6.75.6 1.8c0 1.7-1.3 3-3 3s-3-1.3-3-3s1.3-3 3-3q.6 0 1.2.3l1.4-1.8c-.9-1-1.3-2.4-1.1-3.7l-2-.7c-.5.8-1.4 1.4-2.5 1.4c-1.7 0-3-1.3-3-3s1.3-3 3-3s3 1.3 3 3v.2l2 .7c.6-1.2 1.8-2.1 3.2-2.3V5.9C10 5.6 9 4.4 9 3c0-1.7 1.3-3 3-3s3 1.3 3 3c0 1.4-1 2.6-2.2 2.9v2.2c1.4.2 2.6 1.1 3.2 2.3l2-.7v-.2c0-1.7 1.3-3 3-3s3 1.3 3 3s-1.3 3-3 3c-1.1 0-2-.6-2.5-1.4l-2 .7c.2 1.3-.2 2.7-1.1 3.7l1.4 1.8q.6-.3 1.2-.3c1.7 0 3 1.3 3 3s-1.3 3-3 3s-3-1.3-3-3q0-1.05.6-1.8l-1.4-1.8c-1.4.8-3 .8-4.4 0z" vector-effect="non-scaling-stroke" stroke="none"/>
      </g>
    </g>
    <text id="ITEM_1_HEAD" x="725.0" y="288.0" font-weight="700" font-size="26" fill="var(--primary-text)" text-anchor="middle" data-bg-id="ITEM_1_BG" fill-opacity="1.0" stroke="none" style="font-size: 30px; font-family: Inter, Segoe UI, Kalam, Roboto, Helvetica, Arial, sans-serif; font-weight: 700; letter-spacing:-0.4px;" data-final-font-size="30">
      <tspan x="725.0" dy="56.25px">Population Hub</tspan>
    </text>
    <text id="ITEM_1_BODY" x="725.0" y="382.0" font-size="21" fill="var(--primary-text)" text-anchor="middle" data-bg-id="ITEM_1_BG" style="font-size: 26px; font-family: Inter, Segoe UI, Kalam, Roboto, Helvetica, Arial, sans-serif; font-weight: 400;" data-final-font-size="26">
      <tspan x="725.0" dy="42.44px">Capital region hosts most observers</tspan>
      <tspan x="725.0" dy="29.90px">and media outlets</tspan>
    </text>
    <rect id="ITEM_2_BG" x="975" y="170" width="480" height="410" rx="16" fill="var(--accent-4)" stroke="var(--accent-2)" stroke-width="2" filter="url(#svga341a7b5-shadow)" fill-opacity="0.4"/>
    <rect x="975" y="170" width="480" height="410" rx="16" fill="url(#svga341a7b5-card-panel-sheen)" opacity="0.88"/>
    <rect x="975" y="186" width="460" height="12" fill="var(--accent-2)"/>
    <rect id="ITEM_2_HEAD_FRAME" x="990" y="288" width="450" height="96" fill="none"/>
    <rect id="ITEM_2_BODY_FRAME" x="990" y="382" width="450" height="168" fill="none"/>
    <circle id="ITEM_2_PAD" cx="1205" cy="231" r="55" fill="var(--icon-pad-bg)" stroke="var(--primary-text)" opacity="0.9" fill-opacity="0.9" stroke-width="2"/>
    <circle cx="1205" cy="231" r="44" fill="none" stroke="var(--accent-2)" stroke-width="3" stroke-dasharray="6 4"/>
    <circle id="ITEM_2_BADGE" cx="1205" cy="231" r="43" fill="var(--accent-2)" stroke="var(--background)" stroke-width="4" fill-opacity="0.35" opacity="0.85" stroke-opacity="0.75"/>
    <g id="ITEM_2_ICON" transform="translate(1172, 198)" data-icon-size="66">
      <g transform="translate(-9.899999999999999,-9.899999999999999) scale(6.128571428571428)" vector-effect="non-scaling-stroke" stroke-width="2.50" stroke-linecap="round" stroke-linejoin="round" stroke-opacity="1.0">
        <path id="Vector" fill="none" d="M3.32949 10.6706h-1.45c-0.36248 -0.0302 -0.70038 -0.1955 -0.946679 -0.4632 -0.2463 -0.26766 -0.383006 -0.61811 -0.383006 -0.98184 0 -0.36374 0.136706 -0.71419 0.383006 -0.98185 0.246299 -0.26766 0.584199 -0.43297 0.946679 -0.46315h2.3l1.48 -1.48 -4.06 -2.5c-0.31256 -0.19322 -0.5401 -0.49791 -0.636631 -0.85246 -0.096528 -0.35456 -0.054842 -0.73254 0.116631 -1.05754 0.0757 -0.186 0.1887 -0.35452 0.33204 -0.49516 0.14333 -0.14063 0.31396 -0.25041 0.50137 -0.32256 0.1874 -0.07215 0.38759 -0.105142 0.58823 -0.096934 0.20065 0.008207 0.39748 0.057434 0.57836 0.144654l5.3 2.45L10.9395 0.980556c0.2758 -0.275825 0.6499 -0.430782 1.04 -0.430782s0.7642 0.154957 1.04 0.430782c0.2758 0.275824 0.4308 0.649924 0.4308 1.040004 0 0.39007 -0.155 0.76417 -0.4308 1.04l-2.59 2.56 2.45 5.35004c0.0806 0.1781 0.1246 0.3706 0.1293 0.5661 0.0048 0.1955 -0.0297 0.39 -0.1016 0.5718 -0.0718 0.1819 -0.1794 0.3475 -0.3164 0.487 -0.1371 0.1395 -0.3007 0.25 -0.4813 0.3251 -0.325 0.1714 -0.703 0.2131 -1.0575 0.1166 -0.3546 -0.0965 -0.6593 -0.3241 -0.8525 -0.6366L7.69949 8.34056l-1.48 1.48v2.30004c-0.03018 0.3624 -0.19549 0.7003 -0.46315 0.9466 -0.26766 0.2463 -0.61811 0.383 -0.98185 0.383 -0.36373 0 -0.71419 -0.1367 -0.98184 -0.383 -0.26766 -0.2463 -0.43298 -0.5842 -0.46316 -0.9466v-1.45Z" vector-effect="non-scaling-stroke" stroke="#ffffff"/>
        <path id="Vector_2" stroke="#ffffff" d="M3.32943 10.6706h-1.45c-0.36248 -0.0302 -0.70038 -0.1955 -0.94668 -0.4632 -0.2463 -0.26766 -0.383006 -0.61811 -0.383006 -0.98184 0 -0.36374 0.136706 -0.71419 0.383006 -0.98185 0.2463 -0.26766 0.5842 -0.43297 0.94668 -0.46315h2.3l1.48 -1.48 -4.06 -2.5c-0.31256 -0.19322 -0.5401 -0.49791 -0.636632 -0.85246 -0.096528 -0.35456 -0.054842 -0.73254 0.116632 -1.05754 0.0757 -0.186 0.1887 -0.35452 0.33204 -0.49516 0.14333 -0.14063 0.31396 -0.25041 0.50136 -0.32256 0.18741 -0.07215 0.3876 -0.105142 0.58824 -0.096934 0.20065 0.008207 0.39748 0.057434 0.57836 0.144654l5.3 2.45L10.9394 0.980556c0.2759 -0.275825 0.65 -0.430782 1.04 -0.430782 0.3901 0 0.7642 0.154957 1.04 0.430782 0.2759 0.275824 0.4308 0.649924 0.4308 1.040004 0 0.39007 -0.1549 0.76417 -0.4308 1.04l-2.59 2.56 2.45 5.35004c0.0806 0.1781 0.1246 0.3706 0.1294 0.5661 0.0047 0.1955 -0.0298 0.39 -0.1016 0.5718 -0.0718 0.1819 -0.1795 0.3475 -0.3165 0.487s-0.3007 0.25 -0.4813 0.3251c-0.325 0.1714 -0.703 0.2131 -1.0575 0.1166 -0.3546 -0.0965 -0.6592 -0.3241 -0.8525 -0.6366L7.69943 8.34056l-1.48 1.48v2.30004c-0.03018 0.3624 -0.19549 0.7003 -0.46315 0.9466 -0.26766 0.2463 -0.61811 0.383 -0.98185 0.383 -0.36374 0 -0.71419 -0.1367 -0.98185 -0.383 -0.26765 -0.2463 -0.43297 -0.5842 -0.46315 -0.9466v-1.45Z" vector-effect="non-scaling-stroke" fill="none"/>
      </g>
    </g>
    <text id="ITEM_2_HEAD" x="1215.0" y="288.0" font-weight="700" font-size="26" fill="var(--primary-text)" text-anchor="middle" data-bg-id="ITEM_2_BG" fill-opacity="1.0" stroke="none" style="font-size: 30px; font-family: Inter, Segoe UI, Kalam, Roboto, Helvetica, Arial, sans-serif; font-weight: 700; letter-spacing:-0.4px;" data-final-font-size="30">
      <tspan x="1215.0" dy="56.25px">Airport Traffic</tspan>
    </text>
    <text id="ITEM_2_BODY" x="1215.0" y="382.0" font-size="21" fill="var(--primary-text)" text-anchor="middle" data-bg-id="ITEM_2_BG" style="font-size: 26px; font-family: Inter, Segoe UI, Kalam, Roboto, Helvetica, Arial, sans-serif; font-weight: 400;" data-final-font-size="26">
      <tspan x="1215.0" dy="42.44px">Aircraft appear unusual</tspan>
      <tspan x="1215.0" dy="29.90px">during twilight or low clouds</tspan>
    </text>
    <rect id="ITEM_3_BG" x="485" y="600" width="480" height="410" rx="16" fill="var(--accent-5)" stroke="var(--accent-3)" stroke-width="2" filter="url(#svga341a7b5-shadow)" fill-opacity="0.4"/>
    <rect x="485" y="600" width="480" height="410" rx="16" fill="url(#svga341a7b5-card-panel-sheen)" opacity="0.88"/>
    <rect x="485" y="616" width="460" height="12" fill="var(--accent-3)"/>
    <rect id="ITEM_3_HEAD_FRAME" x="500" y="718" width="450" height="96" fill="none"/>
    <rect id="ITEM_3_BODY_FRAME" x="500" y="812" width="450" height="168" fill="none"/>
    <circle id="ITEM_3_PAD" cx="715" cy="661" r="55" fill="var(--icon-pad-bg)" stroke="var(--primary-text)" opacity="0.9" fill-opacity="0.9" stroke-width="2"/>
    <circle cx="715" cy="661" r="44" fill="none" stroke="var(--accent-3)" stroke-width="3" stroke-dasharray="6 4"/>
    <circle id="ITEM_3_BADGE" cx="715" cy="661" r="43" fill="var(--accent-3)" stroke="var(--background)" stroke-width="4" fill-opacity="0.35" opacity="0.85" stroke-opacity="0.75"/>
    <g id="ITEM_3_ICON" transform="translate(682, 628)" data-icon-size="66">
      <g transform="translate(-16.028571428571425,-16.028571428571425) scale(3.064285714285714)">
        <path d="M2 27.6667V4.12132C2 2.94975 2.94975 2 4.12132 2C4.68393 2 5.2235 2.2235 5.62132 2.62132L29.3787 26.3787C29.7765 26.7765 30 27.3161 30 27.8787C30 29.0503 29.0503 30 27.8787 30H4.33333C3.04467 30 2 28.9553 2 27.6667ZM9 24H16.2618C16.9032 24 17.2245 23.2245 16.7709 22.7709L9.22912 15.2291C8.77554 14.7755 8 15.0968 8 15.7382V23C8 23.5523 8.44772 24 9 24Z" fill="#BEBEBE"/>
        <path d="M28.3906 25.3906L29.1094 26.1095L27.3594 27.8595C27.1609 28.058 26.8391 28.058 26.6406 27.8595C26.4421 27.661 26.4421 27.3391 26.6406 27.1406L28.3906 25.3906Z" fill="#8D65C5"/>
        <path d="M22.8906 19.8906L23.6094 20.6095L21.8594 22.3595C21.6609 22.558 21.3391 22.558 21.1406 22.3595C20.9421 22.161 20.9421 21.8391 21.1406 21.6406L22.8906 19.8906Z" fill="#8D65C5"/>
        <path d="M17.3906 14.3906L18.1094 15.1095L16.3594 16.8595C16.1609 17.058 15.8391 17.058 15.6406 16.8595C15.4421 16.661 15.4421 16.3391 15.6406 16.1406L17.3906 14.3906Z" fill="#8D65C5"/>
        <path d="M11.8906 8.89062L12.6094 9.60947L10.8594 11.3595C10.6609 11.558 10.3391 11.558 10.1406 11.3595C9.94207 11.161 9.94207 10.8391 10.1406 10.6406L11.8906 8.89062Z" fill="#8D65C5"/>
        <path d="M7.10942 4.10947L5.35942 5.85947C5.16092 6.05797 4.83908 6.05797 4.64058 5.85947C4.44207 5.66097 4.44207 5.33913 4.64058 5.14062L6.39058 3.39062L7.10942 4.10947Z" fill="#8D65C5"/>
        <path d="M9.35942 7.35947C9.55793 7.16097 9.55793 6.83913 9.35942 6.64062C9.16092 6.44212 8.83908 6.44212 8.64058 6.64062L7.64058 7.64062C7.44207 7.83913 7.44207 8.16097 7.64058 8.35947C7.83908 8.55797 8.16092 8.55797 8.35942 8.35947L9.35942 7.35947Z" fill="#8D65C5"/>
        <path d="M14.8594 12.8595C15.0579 12.661 15.0579 12.3391 14.8594 12.1406C14.6609 11.9421 14.3391 11.9421 14.1406 12.1406L13.1406 13.1406C12.9421 13.3391 12.9421 13.661 13.1406 13.8595C13.3391 14.058 13.6609 14.058 13.8594 13.8595L14.8594 12.8595Z" fill="#8D65C5"/>
        <path d="M20.3594 18.3595C20.5579 18.161 20.5579 17.8391 20.3594 17.6406C20.1609 17.4421 19.8391 17.4421 19.6406 17.6406L18.6406 18.6406C18.4421 18.8391 18.4421 19.161 18.6406 19.3595C18.8391 19.558 19.1609 19.558 19.3594 19.3595L20.3594 18.3595Z" fill="#8D65C5"/>
        <path d="M25.8594 23.8595C26.0579 23.661 26.0579 23.3391 25.8594 23.1406C25.6609 22.9421 25.3391 22.9421 25.1406 23.1406L24.1406 24.1406C23.9421 24.3391 23.9421 24.661 24.1406 24.8595C24.3391 25.058 24.6609 25.058 24.8594 24.8595L25.8594 23.8595Z" fill="#8D65C5"/>
      </g>
    </g>
    <text id="ITEM_3_HEAD" x="725.0" y="718.0" font-weight="700" font-size="26" fill="var(--primary-text)" text-anchor="middle" data-bg-id="ITEM_3_BG" fill-opacity="1.0" stroke="none" style="font-size: 30px; font-family: Inter, Segoe UI, Kalam, Roboto, Helvetica, Arial, sans-serif; font-weight: 700; letter-spacing:-0.4px;" data-final-font-size="30">
      <tspan x="725.0" dy="56.25px">Triangular Lights</tspan>
    </text>
    <text id="ITEM_3_BODY" x="725.0" y="812.0" font-size="21" fill="var(--primary-text)" text-anchor="middle" data-bg-id="ITEM_3_BG" style="font-size: 26px; font-family: Inter, Segoe UI, Kalam, Roboto, Helvetica, Arial, sans-serif; font-weight: 400;" data-final-font-size="26">
      <tspan x="725.0" dy="42.44px">Witnesses describe pulsating lights</tspan>
      <tspan x="725.0" dy="29.90px">in triangular shapes</tspan>
    </text>
    <rect id="ITEM_4_BG" x="975" y="600" width="480" height="410" rx="16" fill="var(--accent-6)" stroke="var(--accent-4)" stroke-width="2" filter="url(#svga341a7b5-shadow)" fill-opacity="0.4"/>
    <rect x="975" y="600" width="480" height="410" rx="16" fill="url(#svga341a7b5-card-panel-sheen)" opacity="0.88"/>
    <rect x="975" y="616" width="460" height="12" fill="var(--accent-4)"/>
    <rect id="ITEM_4_HEAD_FRAME" x="990" y="718" width="450" height="96" fill="none"/>
    <rect id="ITEM_4_BODY_FRAME" x="990" y="812" width="450" height="168" fill="none"/>
    <circle id="ITEM_4_PAD" cx="1205" cy="661" r="55" fill="var(--icon-pad-bg)" stroke="var(--primary-text)" opacity="0.9" fill-opacity="0.9" stroke-width="2"/>
    <circle cx="1205" cy="661" r="44" fill="none" stroke="var(--accent-4)" stroke-width="3" stroke-dasharray="6 4"/>
    <circle id="ITEM_4_BADGE" cx="1205" cy="661" r="43" fill="var(--accent-4)" stroke="var(--background)" stroke-width="4" fill-opacity="0.35" opacity="0.85" stroke-opacity="0.75"/>
    <g id="ITEM_4_ICON" transform="translate(1172, 628)" data-icon-size="66">
      <g transform="translate(-13.535593220338981,-13.535593220338981) scale(3.877966101694915)" vector-effect="non-scaling-stroke" stroke-width="2.50" stroke-linecap="round" stroke-linejoin="round" stroke-opacity="1.0">
        <rect width="14" height="20" x="5" y="2" rx="2" ry="2" vector-effect="non-scaling-stroke" fill="none" stroke="#ffffff"/>
        <path d="M12 18h.01" vector-effect="non-scaling-stroke" fill="none" stroke="#ffffff"/>
      </g>
    </g>
    <text id="ITEM_4_HEAD" x="1215.0" y="718.0" font-weight="700" font-size="26" fill="var(--primary-text)" text-anchor="middle" data-bg-id="ITEM_4_BG" fill-opacity="1.0" stroke="none" style="font-size: 30px; font-family: Inter, Segoe UI, Kalam, Roboto, Helvetica, Arial, sans-serif; font-weight: 700; letter-spacing:-0.4px;" data-final-font-size="30">
      <tspan x="1215.0" dy="56.25px">Media Attention</tspan>
    </text>
    <text id="ITEM_4_BODY" x="1215.0" y="812.0" font-size="21" fill="var(--primary-text)" text-anchor="middle" data-bg-id="ITEM_4_BG" style="font-size: 26px; font-family: Inter, Segoe UI, Kalam, Roboto, Helvetica, Arial, sans-serif; font-weight: 400;" data-final-font-size="26">
      <tspan x="1215.0" dy="42.44px">Social media amplifies urban</tspan>
      <tspan x="1215.0" dy="29.90px">sightings over forests</tspan>
    </text>
  </g>
</svg>
