<?xml version='1.0' encoding='utf-8'?>
<svg xmlns="http://www.w3.org/2000/svg" width="1920" height="1080" viewBox="0 0 1920 1080" data-theme="light">
  <style>
        @font-face {
            font-family: 'Inter';
            src: url('assets/fonts/Inter-Regular.ttf') format('truetype');
            font-weight: 400;
            font-style: normal;
            font-display: swap;
        }
        @font-face {
            font-family: 'Inter';
            src: url('assets/fonts/Inter-Bold.ttf') format('truetype');
            font-weight: 600;
            font-style: normal;
            font-display: swap;
        }
        @font-face {
            font-family: 'Inter';
            src: url('assets/fonts/Inter-Bold.ttf') format('truetype');
            font-weight: 800;
            font-style: normal;
            font-display: swap;
        }
        
:root {
    --background: #f8fafc;
    --panel: #ffffff;
    --primary-text: #0f172a;
    --muted-text: #64748b;
    --inverse-text: #ffffff;
    --border: #e2e8f0;
    --shadow-color: #000000;
    --icon-pad-bg: #1e293b;
    --art-glow: #0891b2;
    --art-glow-opacity: 0.10;
    --art-sheen: #ffffff;
    --art-sheen-opacity: 0.34;
    --art-shadow: #0f172a;
    --art-shadow-opacity: 0.14;
    --art-muted-line: #94a3b8;
    --art-panel-tint: #f1f5f9;
    --font-family: 'Inter', 'Segoe UI', 'Kalam', Roboto, Helvetica, Arial, sans-serif;
    --radius-xl: 16px;
    --font-family-headline: 'Inter', 'Segoe UI', 'Kalam', Roboto, Helvetica, Arial, sans-serif;
    --font-family-body: 'Inter', 'Segoe UI', 'Kalam', Roboto, Helvetica, Arial, sans-serif;
    --font-heading: 'Inter', 'Segoe UI', 'Kalam', Roboto, Helvetica, Arial, sans-serif;
    --font-body: 'Inter', 'Segoe UI', 'Kalam', Roboto, Helvetica, Arial, sans-serif;
    --font-size-h1: 56px;
    --font-size-h2: 40px;
    --font-size-h3: 28px;
    --font-size-body: 24px;
    --font-size-caption: 18px;
    --secondary-text: var(--muted-text);
    --panel-border: var(--border);
    --font-weight-normal: 400;
    --font-weight-medium: 500;
    --font-weight-semibold: 600;
    --font-weight-bold: 700;
    --spacing-gutter-pct: 0.07;
    --spacing-top-pct: 0.15;
    --spacing-bottom-pct: 0.07;
    --spacing-title-y-pct: 0.055;
    --accent-1: #d97706;
    --accent-2: #ea580c;
    --accent-3: #dc2626;
    --accent-4: #65a30d;
    --accent-5: #16a34a;
    --accent-6: #92400e;
}
:root[data-theme="dark"] {
    --background: #0f172a;
    --panel: #1e293b;
    --primary-text: #f1f5f9;
    --muted-text: #94a3b8;
    --inverse-text: #0f172a;
    --border: #334155;
    --shadow-color: #000000;
    --icon-pad-bg: #1e293b;
    --art-glow: #7dd3fc;
    --art-glow-opacity: 0.18;
    --art-sheen: #ffffff;
    --art-sheen-opacity: 0.18;
    --art-shadow: #000000;
    --art-shadow-opacity: 0.28;
    --art-muted-line: #64748b;
    --art-panel-tint: #1e293b;
    --accent-1: #fbbf24;
    --accent-2: #fb923c;
    --accent-3: #f87171;
    --accent-4: #a3e635;
    --accent-5: #4ade80;
    --accent-6: #d4a574;
}
:root[data-theme="light"] {
    --background: #f8fafc;
    --panel: #ffffff;
    --primary-text: #0f172a;
    --muted-text: #64748b;
    --inverse-text: #ffffff;
    --border: #e2e8f0;
    --shadow-color: #000000;
    --icon-pad-bg: #1e293b;
    --art-glow: #0891b2;
    --art-glow-opacity: 0.10;
    --art-sheen: #ffffff;
    --art-sheen-opacity: 0.34;
    --art-shadow: #0f172a;
    --art-shadow-opacity: 0.14;
    --art-muted-line: #94a3b8;
    --art-panel-tint: #f1f5f9;
    --accent-1: #d97706;
    --accent-2: #ea580c;
    --accent-3: #dc2626;
    --accent-4: #65a30d;
    --accent-5: #16a34a;
    --accent-6: #92400e;
}</style>
  <rect x="0" y="0" width="1.92E+3" height="1.08E+3" fill="#252a34" stroke="none" id="programmatic_background"/>
  <line id="HEADER_DECOR" x1="960.0" x2="1080.0" y1="115.0" y2="115.0" stroke="var(--accent-1)" stroke-width="6" stroke-linecap="round"/>
  <defs>
    <pattern id="svg4f56c658-napkin-hatch" patternUnits="userSpaceOnUse" width="12" height="12">
      <path d="M -3 12 L 12 -3 M 0 15 L 15 0" fill="none" stroke="var(--primary-text)" stroke-width="1" stroke-opacity="0.05"/>
    </pattern>
    <filter id="svg4f56c658-soft-shadow" x="-30%" y="-30%" width="160%" height="160%">
      <feDropShadow dx="0" dy="4" stdDeviation="10" flood-color="#000000" flood-opacity="0.2"/>
    </filter>
    <radialGradient id="svg4f56c658-universal-edge-vignette" cx="50%" cy="50%" r="72%">
      <stop offset="0%" stop-color="var(--background)" stop-opacity="0"/>
      <stop offset="72%" stop-color="var(--background)" stop-opacity="0.12"/>
      <stop offset="100%" stop-color="var(--primary-text)" stop-opacity="0.08"/>
    </radialGradient>
    <linearGradient id="svg4f56c658-universal-surface-sheen" x1="0%" y1="0%" x2="100%" y2="100%">
      <stop offset="0%" stop-color="var(--art-sheen)" stop-opacity="var(--art-sheen-opacity)"/>
      <stop offset="46%" stop-color="var(--art-sheen)" stop-opacity="0.035"/>
      <stop offset="100%" stop-color="var(--art-panel-tint)" stop-opacity="0.14"/>
    </linearGradient>
    <radialGradient id="svg4f56c658-universal-icon-aura" cx="50%" cy="42%" r="64%">
      <stop offset="0%" stop-color="var(--art-glow)" stop-opacity="var(--art-glow-opacity)"/>
      <stop offset="100%" stop-color="var(--background)" stop-opacity="0"/>
    </radialGradient>
    <radialGradient id="svg4f56c658-funnel-layers-art-glow" cx="50%" cy="52%" r="68%">
      <stop offset="0%" stop-color="var(--inverse-text)" stop-opacity="0.14"/>
      <stop offset="100%" stop-color="var(--background)" stop-opacity="0"/>
    </radialGradient>
    <linearGradient id="svg4f56c658-funnel-layers-art-sheen" x1="16%" y1="0%" x2="86%" y2="100%">
      <stop offset="0%" stop-color="var(--inverse-text)" stop-opacity="0.22"/>
      <stop offset="52%" stop-color="var(--inverse-text)" stop-opacity="0.035"/>
      <stop offset="100%" stop-color="var(--background)" stop-opacity="0.14"/>
    </linearGradient>
    <filter id="svg4f56c658-text-glow" x="-20%" y="-20%" width="140%" height="140%">
      <feDropShadow dx="0" dy="0" stdDeviation="2" flood-color="#000000" flood-opacity="0.4"/>
    </filter>
    <filter id="svg4f56c658-shadow" x="-30%" y="-30%" width="160%" height="160%">
      <feDropShadow dx="0" dy="2" stdDeviation="3" flood-color="#000000" flood-opacity="0.08"/>
      <feDropShadow dx="0" dy="6" stdDeviation="10" flood-color="#000000" flood-opacity="0.12"/>
    </filter>
    <marker id="svg4f56c658-arrowhead" markerWidth="10" markerHeight="7" refX="9" refY="3.5" orient="auto" markerUnits="strokeWidth">
      <polygon points="0 0, 10 3.5, 0 7" fill="var(--muted-text)" opacity="0.6"/>
    </marker>
  </defs>
  <rect id="CANVAS_BG" width="100%" height="100%" fill="var(--background)"/>
  <rect width="100%" height="100%" fill="url(#svg4f56c658-napkin-hatch)"/>
  <ellipse id="FUNNEL-LAYERS_ART_GLOW" cx="960" cy="600" rx="650" ry="340" fill="url(#svg4f56c658-funnel-layers-art-glow)" opacity="0.84"/>
  <rect id="UNIVERSAL_EDGE_VIGNETTE" width="100%" height="100%" fill="url(#svg4f56c658-universal-edge-vignette)" opacity="0.62"/>
  <text id="TITLE" x="960.0" y="59" text-anchor="middle" font-size="56" font-weight="800" fill="#0f172a" style="font-size: 60px; font-family: Inter, Segoe UI, Kalam, Roboto, Helvetica, Arial, sans-serif; font-weight: 700; letter-spacing:-1.2px;" data-final-font-size="60">
    <tspan x="960.0" dy="68.00px">Liechtenstein UFO</tspan>
  </text>
  <rect id="TITLE_FRAME" x="134" y="25" width="1652" height="70" fill="none"/>
  <rect x="170" y="150" width="1580" height="830" rx="38" fill="var(--panel)" fill-opacity="0.24" stroke="var(--muted-text)" stroke-width="2" opacity="0.92"/>
  <g filter="url(#svg4f56c658-soft-shadow)">
    <path id="ITEM_1_BG" d="M 350 210 L 1570 210 L 1490 365 L 430 365 Z" fill="var(--accent-1)" fill-opacity="1.0" stroke="var(--accent-1)" stroke-width="3"/>
    <path id="FUNNEL-LAYERS_ART_ITEM_SHEEN_1" d="M 350 210 L 1570 210 L 1490 365 L 430 365 Z" fill="url(#svg4f56c658-funnel-layers-art-sheen)" opacity="0.62"/>
    <circle id="FUNNEL-LAYERS_ART_ICON_AURA_1" cx="960" cy="286" r="72" fill="url(#svg4f56c658-universal-icon-aura)" opacity="0.78"/>
    <circle id="ITEM_1_PAD" cx="960" cy="286" r="48" fill="var(--icon-pad-bg)" opacity="0.95" fill-opacity="0.9" stroke-width="2" stroke="var(--primary-text)"/>
    <circle id="ITEM_1_PAD_INNER" cx="960" cy="286" r="37.44" fill="var(--accent-1)" fill-opacity="0.22"/>
    <circle cx="960" cy="286" r="38" fill="none" stroke="var(--accent-1)" stroke-width="3" stroke-dasharray="6 4"/>
    <g id="ITEM_1_ICON" transform="translate(926, 252)" data-icon-size="68" stroke-dasharray="6 4">
      <g transform="translate(-8.788571428571426,-11.462857142857137) scale(2.674285714285714)">
        <path d="M15.385 7.39062L12.9075 4.915C12.3219 4.32875 11.5275 4 10.6987 4H4.125C2.95125 4 2 4.95125 2 6.125V13.5H12.985H30V10.1375C30 8.96375 29.0488 8.0125 27.875 8.0125H16.8875C16.3237 8.0125 15.7838 7.78875 15.385 7.39062Z" fill="#FFB02E"/>
        <path d="M27.875 30H4.125C2.95125 30 2 29.0545 2 27.8878V13.1122C2 11.9455 2.95125 11 4.125 11H27.875C29.0488 11 30 11.9455 30 13.1122V27.8878C30 29.0545 29.0488 30 27.875 30Z" fill="#FCD53F"/>
      </g>
    </g>
    <path id="ITEM_2_BG" d="M 430 390 L 1490 390 L 1410 545 L 510 545 Z" fill="var(--accent-2)" fill-opacity="1.0" stroke="var(--accent-2)" stroke-width="3"/>
    <path id="FUNNEL-LAYERS_ART_ITEM_SHEEN_2" d="M 430 390 L 1490 390 L 1410 545 L 510 545 Z" fill="url(#svg4f56c658-funnel-layers-art-sheen)" opacity="0.62"/>
    <circle id="FUNNEL-LAYERS_ART_ICON_AURA_2" cx="960" cy="466" r="72" fill="url(#svg4f56c658-universal-icon-aura)" opacity="0.78"/>
    <circle id="ITEM_2_PAD" cx="960" cy="466" r="48" fill="var(--icon-pad-bg)" opacity="0.95" fill-opacity="0.9" stroke-width="2" stroke="var(--primary-text)"/>
    <circle id="ITEM_2_PAD_INNER" cx="960" cy="466" r="37.44" fill="var(--accent-2)" fill-opacity="0.22"/>
    <circle cx="960" cy="466" r="38" fill="none" stroke="var(--accent-2)" stroke-width="3" stroke-dasharray="6 4"/>
    <g id="ITEM_2_ICON" transform="translate(926, 432)" data-icon-size="68" stroke-dasharray="6 4">
      <g transform="translate(-6.612881355932201,-6.612881355932201) scale(3.384406779661017)" vector-effect="non-scaling-stroke" stroke-width="2.53" stroke-linecap="round" stroke-linejoin="round" stroke-opacity="1.0">
        <path d="m14 13-8.381 8.38a1 1 0 0 1-3.001-3l8.384-8.381" vector-effect="non-scaling-stroke" fill="none" stroke="#f1f5f9"/>
        <path d="m16 16 6-6" vector-effect="non-scaling-stroke" fill="none" stroke="#f1f5f9"/>
        <path d="m21.5 10.5-8-8" vector-effect="non-scaling-stroke" fill="none" stroke="#f1f5f9"/>
        <path d="m8 8 6-6" vector-effect="non-scaling-stroke" fill="none" stroke="#f1f5f9"/>
        <path d="m8.5 7.5 8 8" vector-effect="non-scaling-stroke" fill="none" stroke="#f1f5f9"/>
      </g>
    </g>
    <path id="ITEM_3_BG" d="M 510 570 L 1410 570 L 1325 725 L 595 725 Z" fill="var(--accent-3)" fill-opacity="1.0" stroke="var(--accent-3)" stroke-width="3"/>
    <path id="FUNNEL-LAYERS_ART_ITEM_SHEEN_3" d="M 510 570 L 1410 570 L 1325 725 L 595 725 Z" fill="url(#svg4f56c658-funnel-layers-art-sheen)" opacity="0.62"/>
    <circle id="FUNNEL-LAYERS_ART_ICON_AURA_3" cx="960" cy="646" r="72" fill="url(#svg4f56c658-universal-icon-aura)" opacity="0.78"/>
    <circle id="ITEM_3_PAD" cx="960" cy="646" r="48" fill="var(--icon-pad-bg)" opacity="0.95" fill-opacity="0.9" stroke-width="2" stroke="var(--primary-text)"/>
    <circle id="ITEM_3_PAD_INNER" cx="960" cy="646" r="37.44" fill="var(--accent-3)" fill-opacity="0.22"/>
    <circle cx="960" cy="646" r="38" fill="none" stroke="var(--accent-3)" stroke-width="3" stroke-dasharray="6 4"/>
    <g id="ITEM_3_ICON" transform="translate(926, 612)" data-icon-size="68" stroke-dasharray="6 4">
      <g transform="translate(-10.373333333333331,-10.373333333333328) scale(3.6977777777777776)" vector-effect="non-scaling-stroke" stroke-width="2.53" stroke-linecap="round" stroke-linejoin="round" stroke-opacity="1.0">
        <path d="M14.106 5.553a2 2 0 0 0 1.788 0l3.659-1.83A1 1 0 0 1 21 4.619v12.764a1 1 0 0 1-.553.894l-4.553 2.277a2 2 0 0 1-1.788 0l-4.212-2.106a2 2 0 0 0-1.788 0l-3.659 1.83A1 1 0 0 1 3 19.381V6.618a1 1 0 0 1 .553-.894l4.553-2.277a2 2 0 0 1 1.788 0z" vector-effect="non-scaling-stroke" fill="none" stroke="#f1f5f9"/>
        <path d="M15 5.764v15" vector-effect="non-scaling-stroke" fill="none" stroke="#f1f5f9"/>
        <path d="M9 3.236v15" vector-effect="non-scaling-stroke" fill="none" stroke="#f1f5f9"/>
      </g>
    </g>
    <path id="ITEM_4_BG" d="M 595 750 L 1325 750 L 1230 900 L 690 900 Z" fill="var(--accent-4)" fill-opacity="1.0" stroke="var(--accent-4)" stroke-width="3"/>
    <path id="FUNNEL-LAYERS_ART_ITEM_SHEEN_4" d="M 595 750 L 1325 750 L 1230 900 L 690 900 Z" fill="url(#svg4f56c658-funnel-layers-art-sheen)" opacity="0.62"/>
    <circle id="FUNNEL-LAYERS_ART_ICON_AURA_4" cx="960" cy="824" r="72" fill="url(#svg4f56c658-universal-icon-aura)" opacity="0.78"/>
    <circle id="ITEM_4_PAD" cx="960" cy="824" r="48" fill="var(--icon-pad-bg)" opacity="0.95" fill-opacity="0.9" stroke-width="2" stroke="var(--primary-text)"/>
    <circle id="ITEM_4_PAD_INNER" cx="960" cy="824" r="37.44" fill="var(--accent-4)" fill-opacity="0.22"/>
    <circle cx="960" cy="824" r="38" fill="none" stroke="var(--accent-4)" stroke-width="3" stroke-dasharray="6 4"/>
    <g id="ITEM_4_ICON" transform="translate(926, 790)" data-icon-size="68" stroke-dasharray="6 4">
      <g transform="translate(-8.741238938053094,-8.07858407079646) scale(2.6506194690265485)">
        <path d="M29.2001 2.94972C28.253 2.00263 26.4999 1.9525 25.3817 2.52547C24.4693 2.83877 23.5081 3.19209 22.5278 3.58828L22.5383 3.59883C19.9627 4.69286 16.1108 6.63769 13.0279 9.49984C10.8637 11.5091 9.62366 13.0559 8.79313 14.4647L3.49489 16.4149C2.80991 16.6671 2.6171 17.5444 3.13322 18.0605C6.84572 21.773 10.5582 25.4855 14.2707 29.198C14.7868 29.7141 15.6641 29.5213 15.9163 28.8363L18.1197 22.8504C19.7284 21.8921 21.3425 20.6853 23.0279 18.9999C25.4183 16.6095 27.3936 12.4408 28.5413 9.64309L28.5496 9.65145C28.9506 8.66094 29.3079 7.68963 29.6243 6.76812C30.1973 5.64991 30.3642 4.11384 29.2001 2.94972Z" fill="#CA0B4A"/>
        <path d="M23.2987 4.3645C20.7818 5.4041 16.8206 7.34324 13.7083 10.2327C11.6937 12.103 10.5374 13.5272 9.76899 14.7821C8.99995 16.0381 8.59391 17.1628 8.10621 18.5226L8.10371 18.5296C7.93354 19.0041 7.75311 19.5072 7.54517 20.0441L12.1006 24.5996C15.7031 23.1209 18.8412 21.7724 22.3208 18.2928C24.6722 15.9414 26.6597 11.6505 27.7751 8.87168L23.2987 4.3645Z" fill="#F4F4F4"/>
        <path d="M24.5278 11.25C24.5278 13.0449 23.0727 14.5 21.2778 14.5C19.4828 14.5 18.0278 13.0449 18.0278 11.25C18.0278 9.45507 19.4828 8 21.2778 8C23.0727 8 24.5278 9.45507 24.5278 11.25Z" fill="#9B9B9B"/>
        <path d="M23.5278 11.25C23.5278 12.4926 22.5204 13.5 21.2778 13.5C20.0351 13.5 19.0278 12.4926 19.0278 11.25C19.0278 10.0074 20.0351 9 21.2778 9C22.5204 9 23.5278 10.0074 23.5278 11.25Z" fill="#83CBFF"/>
        <path d="M2.45122 29.6108C1.74411 28.9037 2.02779 24 4.52777 23C4.52777 23 7.02777 22 8.63878 23.6005C10.2498 25.2011 9.52776 26.9999 9.52776 26.9999C8.82068 29.1212 5.81033 29.9645 5.45679 29.6109C5.26153 29.4157 5.61314 29.0602 5.45679 28.9038C5.30045 28.7475 5.05904 28.9259 4.39613 29.2574C3.92473 29.4931 2.73406 29.8937 2.45122 29.6108Z" fill="#FF8257"/>
        <path d="M6.08839 21.0607C6.67417 20.4749 7.62392 20.4749 8.20971 21.0607L11.7452 24.5962C12.331 25.182 12.331 26.1317 11.7452 26.7175C11.1595 27.3033 10.2097 27.3033 9.62392 26.7175L6.08839 23.182C5.5026 22.5962 5.5026 21.6465 6.08839 21.0607Z" fill="#533566"/>
        <path d="M15.5351 18.722C15.977 17.5214 14.8098 16.3542 13.6092 16.7961L6.49489 19.4149C5.80991 19.6671 5.6171 20.5444 6.13322 21.0605L11.2707 26.198C11.7868 26.7141 12.6641 26.5213 12.9163 25.8363L15.5351 18.722Z" fill="#F92F60"/>
      </g>
    </g>
  </g>
  <g filter="url(#svg4f56c658-soft-shadow)">
    <line x1="430" y1="286" x2="520" y2="286" stroke="var(--accent-1)" stroke-width="3" opacity="0.8"/>
    <rect id="ITEM_1_TEXT_BG" x="140" y="220" width="380" height="132" rx="24" fill="var(--panel)" fill-opacity="0.97" stroke="var(--accent-1)" stroke-width="2.5"/>
    <text id="ITEM_1_HEAD" x="330.0" y="234.0" text-anchor="middle" font-size="28" font-weight="800" fill="var(--primary-text)" data-bg-id="ITEM_1_TEXT_BG" fill-opacity="1.0" style="font-size: 30px; font-family: Inter, Segoe UI, Kalam, Roboto, Helvetica, Arial, sans-serif; font-weight: 700; letter-spacing:-0.4px;" data-final-font-size="30">
      <tspan x="330.0" dy="34.29px">Sparse Record</tspan>
    </text>
    <rect id="ITEM_1_HEAD_FRAME" x="180" y="234" width="300" height="42" fill="none"/>
    <text id="ITEM_1_BODY" x="330.0" y="286.0" text-anchor="middle" font-size="18" fill="var(--primary-text)" data-bg-id="ITEM_1_TEXT_BG" style="font-size: 26px; font-family: Inter, Segoe UI, Kalam, Roboto, Helvetica, Arial, sans-serif; font-weight: 400;" data-final-font-size="26">
      <tspan x="330.0" dy="22.73px">Small population limits</tspan>
      <tspan x="330.0" dy="29.90px">witness and file counts</tspan>
    </text>
    <rect id="ITEM_1_BODY_FRAME" x="180" y="286" width="300" height="56" fill="none"/>
  </g>
  <g filter="url(#svg4f56c658-soft-shadow)">
    <line x1="1490" y1="466" x2="1400" y2="466" stroke="var(--accent-2)" stroke-width="3" opacity="0.8"/>
    <rect id="ITEM_2_TEXT_BG" x="1400" y="400" width="380" height="132" rx="24" fill="var(--panel)" fill-opacity="0.97" stroke="var(--accent-2)" stroke-width="2.5"/>
    <text id="ITEM_2_HEAD" x="1590.0" y="414.0" text-anchor="middle" font-size="28" font-weight="800" fill="var(--primary-text)" data-bg-id="ITEM_2_TEXT_BG" fill-opacity="1.0" style="font-size: 30px; font-family: Inter, Segoe UI, Kalam, Roboto, Helvetica, Arial, sans-serif; font-weight: 700; letter-spacing:-0.4px;" data-final-font-size="30">
      <tspan x="1590.0" dy="34.29px">Swiss Law</tspan>
    </text>
    <rect id="ITEM_2_HEAD_FRAME" x="1440" y="414" width="300" height="42" fill="none"/>
    <text id="ITEM_2_BODY" x="1590.0" y="466.0" text-anchor="middle" font-size="18" fill="var(--primary-text)" data-bg-id="ITEM_2_TEXT_BG" style="font-size: 26px; font-family: Inter, Segoe UI, Kalam, Roboto, Helvetica, Arial, sans-serif; font-weight: 400;" data-final-font-size="26">
      <tspan x="1590.0" dy="22.73px">Swiss aviation authority</tspan>
      <tspan x="1590.0" dy="29.90px">enforces local rules</tspan>
    </text>
    <rect id="ITEM_2_BODY_FRAME" x="1440" y="466" width="300" height="56" fill="none"/>
  </g>
  <g filter="url(#svg4f56c658-soft-shadow)">
    <line x1="510" y1="646" x2="600" y2="646" stroke="var(--accent-3)" stroke-width="3" opacity="0.8"/>
    <rect id="ITEM_3_TEXT_BG" x="140" y="580" width="380" height="132" rx="24" fill="var(--panel)" fill-opacity="0.97" stroke="var(--accent-3)" stroke-width="2.5"/>
    <text id="ITEM_3_HEAD" x="330.0" y="594.0" text-anchor="middle" font-size="28" font-weight="800" fill="var(--accent-3)" data-bg-id="ITEM_3_TEXT_BG" fill-opacity="1.0" style="font-size: 30px; font-family: Inter, Segoe UI, Kalam, Roboto, Helvetica, Arial, sans-serif; font-weight: 700; letter-spacing:-0.4px;" data-final-font-size="30">
      <tspan x="330.0" dy="34.29px">Cross Border</tspan>
    </text>
    <rect id="ITEM_3_HEAD_FRAME" x="180" y="594" width="300" height="42" fill="none"/>
    <text id="ITEM_3_BODY" x="330.0" y="646.0" text-anchor="middle" font-size="18" fill="var(--primary-text)" data-bg-id="ITEM_3_TEXT_BG" style="font-size: 26px; font-family: Inter, Segoe UI, Kalam, Roboto, Helvetica, Arial, sans-serif; font-weight: 400;" data-final-font-size="26">
      <tspan x="330.0" dy="22.73px">Sightings often cross</tspan>
      <tspan x="330.0" dy="29.90px">into Austria or Germany</tspan>
    </text>
    <rect id="ITEM_3_BODY_FRAME" x="180" y="646" width="300" height="56" fill="none"/>
  </g>
  <g filter="url(#svg4f56c658-soft-shadow)">
    <line x1="1325" y1="824" x2="1415" y2="824" stroke="var(--accent-4)" stroke-width="3" opacity="0.8"/>
    <rect id="ITEM_4_TEXT_BG" x="1400" y="758" width="380" height="132" rx="24" fill="var(--panel)" fill-opacity="0.97" stroke="var(--accent-4)" stroke-width="2.5"/>
    <text id="ITEM_4_HEAD" x="1590.0" y="772.0" text-anchor="middle" font-size="28" font-weight="800" fill="var(--primary-text)" data-bg-id="ITEM_4_TEXT_BG" fill-opacity="1.0" style="font-size: 30px; font-family: Inter, Segoe UI, Kalam, Roboto, Helvetica, Arial, sans-serif; font-weight: 700; letter-spacing:-0.4px;" data-final-font-size="30">
      <tspan x="1590.0" dy="34.29px">Re-entry Debris</tspan>
    </text>
    <rect id="ITEM_4_HEAD_FRAME" x="1440" y="772" width="300" height="42" fill="none"/>
    <text id="ITEM_4_BODY" x="1590.0" y="824.0" text-anchor="middle" font-size="18" fill="var(--primary-text)" data-bg-id="ITEM_4_TEXT_BG" style="font-size: 26px; font-family: Inter, Segoe UI, Kalam, Roboto, Helvetica, Arial, sans-serif; font-weight: 400;" data-final-font-size="26">
      <tspan x="1590.0" dy="22.73px">Rocket fragments explain</tspan>
      <tspan x="1590.0" dy="29.90px">recent mystery lights</tspan>
    </text>
    <rect id="ITEM_4_BODY_FRAME" x="1440" y="824" width="300" height="56" fill="none"/>
  </g>
  <g filter="url(#svg4f56c658-soft-shadow)">
    <path d="M 955 900 L 965 900 L 980 930 L 940 930 Z" fill="var(--accent-5)" fill-opacity="0.45" stroke="var(--accent-5)" stroke-width="2"/>
    <rect id="ITEM_5_BG" x="620" y="924" width="680" height="118" rx="28" fill="var(--panel)" fill-opacity="0.98" stroke="var(--accent-5)" stroke-width="3"/>
    <rect id="FUNNEL-LAYERS_ART_ITEM_SHEEN_5" x="620" y="924" width="680" height="118" rx="18" fill="url(#svg4f56c658-funnel-layers-art-sheen)" opacity="0.62"/>
    <rect x="620" y="924" width="680" height="16" rx="8" fill="var(--accent-5)" fill-opacity="0.55"/>
    <circle id="FUNNEL-LAYERS_ART_ICON_AURA_5" cx="745" cy="983" r="72" fill="url(#svg4f56c658-universal-icon-aura)" opacity="0.78"/>
    <circle id="ITEM_5_PAD" cx="745" cy="983" r="40" fill="var(--icon-pad-bg)" opacity="0.95" fill-opacity="0.9" stroke-width="2" stroke="var(--primary-text)"/>
    <circle id="ITEM_5_PAD_INNER" cx="745" cy="983" r="31.20" fill="var(--accent-5)" fill-opacity="0.22"/>
    <circle cx="745" cy="983" r="32" fill="none" stroke="var(--accent-5)" stroke-width="3" stroke-dasharray="6 4"/>
    <g id="ITEM_5_ICON" transform="translate(715, 953)" data-icon-size="60" stroke-dasharray="6 4">
      <g transform="translate(-3.844067796610173,-3.844067796610173) scale(2.820338983050848)" vector-effect="non-scaling-stroke" stroke-width="2.43" stroke-linecap="round" stroke-linejoin="round" stroke-opacity="1.0">
        <rect width="14" height="8" x="5" y="2" rx="2" vector-effect="non-scaling-stroke" fill="none" stroke="#f1f5f9"/>
        <rect width="20" height="8" x="2" y="14" rx="2" vector-effect="non-scaling-stroke" fill="none" stroke="#f1f5f9"/>
        <path d="M6 18h2" vector-effect="non-scaling-stroke" fill="none" stroke="#f1f5f9"/>
        <path d="M12 18h6" vector-effect="non-scaling-stroke" fill="none" stroke="#f1f5f9"/>
      </g>
    </g>
    <text id="ITEM_5_HEAD" x="990.0" y="948.0" text-anchor="middle" font-size="27" font-weight="800" fill="var(--primary-text)" data-bg-id="ITEM_5_BG" fill-opacity="1.0" style="font-size: 30px; font-family: Inter, Segoe UI, Kalam, Roboto, Helvetica, Arial, sans-serif; font-weight: 700; letter-spacing:-0.4px;" data-final-font-size="30">
      <tspan x="990.0" dy="33.05px">Weak Evidence</tspan>
    </text>
    <rect id="ITEM_5_HEAD_FRAME" x="820" y="948" width="340" height="40" fill="none"/>
    <text id="ITEM_5_BODY" x="990.0" y="992.0" text-anchor="middle" font-size="18" fill="var(--primary-text)" data-bg-id="ITEM_5_BG" style="font-size: 26px; font-family: Inter, Segoe UI, Kalam, Roboto, Helvetica, Arial, sans-serif; font-weight: 400;" data-final-font-size="26">
      <tspan x="990.0" dy="22.73px">Data base pages lack local</tspan>
      <tspan x="990.0" dy="29.90px">verification details</tspan>
    </text>
    <rect id="ITEM_5_BODY_FRAME" x="810" y="992" width="360" height="56" fill="none"/>
  </g>
</svg>
